<?xml version="1.0" encoding="UTF-8"?>
<svg width="276px" height="98px" viewBox="0 0 276 98" version="1.1" xmlns="http://www.w3.org/2000/svg" xmlns:xlink="http://www.w3.org/1999/xlink">
    <!-- Generator: Sketch 52.5 (67469) - http://www.bohemiancoding.com/sketch -->
    <title>Group</title>
    <desc>Created with Sketch.</desc>
    <defs>
        <linearGradient x1="101.999998%" y1="100.999999%" x2="0%" y2="6.24500451e-15%" id="linearGradient-1">
            <stop stop-color="#3023AE" offset="0%"></stop>
            <stop stop-color="#C86DD7" offset="100%"></stop>
        </linearGradient>
    </defs>
    <g id="Page-1" stroke="none" stroke-width="1" fill="none" fill-rule="evenodd">
        <g id="Group" transform="translate(-77.000000, -54.000000)">
            <rect id="Rectangle" fill-rule="nonzero" x="0" y="0" width="430" height="205"></rect>
            <g id="Group-2" transform="translate(77.000000, 54.000000)" fill="url(#linearGradient-1)">
                <path d="M32.1722327,29.9733333 L34.1155219,26.3466667 L34.1155219,46.08 L32.1722327,46.08 L32.1722327,29.9733333 Z M36.0588112,22.6133333 L38.0021004,18.9866667 L38.0021004,46.08 L36.0588112,46.08 L36.0588112,22.6133333 Z M39.9453896,15.36 L41.8886788,11.7066667 L41.8886788,46.08 L39.9453896,46.08 L39.9453896,15.36 Z M26.9091577,29.0666667 L25.8025625,27.0666667 L39.189666,1.92 L41.3758664,1.92 L26.9091577,29.0666667 Z M24.6689771,24.88 L23.5353917,22.8533333 L34.763285,1.92 L36.9764755,1.92 L24.6689771,24.88 Z M11.6597353,26.56 L13.6030246,30.1866667 L13.6030246,46.08 L11.6597353,46.08 L11.6597353,26.56 Z M7.7731569,19.2533333 L9.71644612,22.88 L9.71644612,46.08 L7.7731569,46.08 L7.7731569,19.2533333 Z M3.88657845,11.9466667 L5.82986767,15.6 L5.82986767,46.08 L3.88657845,46.08 L3.88657845,11.9466667 Z M19.594833,34.56 L17.4086326,34.56 L1.94328922,5.57333333 L1.94328922,46.08 L0,46.08 L0,1.92 L2.18620038,1.92 L19.594833,34.56 Z M23.9942239,34.56 L21.7810334,34.56 L4.39939088,1.92 L6.61258139,1.92 L23.9942239,34.56 Z M43.8319681,5.57333333 L28.3666247,34.56 L26.1534342,34.56 L8.79878177,1.92 L10.9849821,1.92 L27.2870195,32.5333333 L43.5620668,1.92 L45.7752573,1.92 L45.7752573,46.08 L43.8319681,46.08 L43.8319681,5.57333333 Z M62.563117,1.92 L64.5064062,1.92 L64.5064062,46.08 L62.563117,46.08 L62.563117,1.92 Z M58.6765385,1.92 L60.6198278,1.92 L60.6198278,46.08 L58.6765385,46.08 L58.6765385,1.92 Z M54.7899601,1.92 L56.7332493,1.92 L56.7332493,46.08 L54.7899601,46.08 L54.7899601,1.92 Z M50.9033816,1.92 L52.8466709,1.92 L52.8466709,46.08 L50.9033816,46.08 L50.9033816,1.92 Z M84.3171603,24.1066667 L96.0308759,24.1066667 C97.8122332,24.1066667 99.319167,23.5377835 100.551722,22.4 C101.784278,21.2622165 102.400546,19.6444549 102.400546,17.5466667 C102.400546,15.9999923 101.75279,14.6088951 100.457257,13.3733333 C99.1617243,12.1377716 97.6862787,11.52 96.0308759,11.52 L79.3509767,11.52 L79.3509767,46.08 L77.4076875,46.08 L77.4076875,9.6 L96.0308759,9.6 C98.2260839,9.6 100.160357,10.4044364 101.833753,12.0133333 C103.50715,13.6222303 104.343835,15.4666563 104.343835,17.5466667 C104.343835,20.1066795 103.53414,22.1599923 101.914724,23.7066667 C100.295308,25.2533411 98.334045,26.0266667 96.0308759,26.0266667 L84.3171603,26.0266667 L84.3171603,24.1066667 Z M84.3171603,27.9466667 L96.0308759,27.9466667 C98.8378632,27.9466667 101.248957,26.9733431 103.26423,25.0266667 C105.279503,23.0799903 106.287125,20.5866819 106.287125,17.5466667 C106.287125,14.9333203 105.257012,12.6355655 103.196755,10.6533333 C101.136498,8.6711012 98.7478957,7.68 96.0308759,7.68 L75.4643982,7.68 L75.4643982,46.08 L73.521109,46.08 L73.521109,5.76 L96.0308759,5.76 C98.1721034,5.76 100.182848,6.3022168 102.06317,7.38666667 C103.943491,8.47111653 105.441428,9.92443533 106.557026,11.7466667 C107.672623,13.568898 108.230414,15.502212 108.230414,17.5466667 C108.230414,21.0489064 107.029365,23.977766 104.627232,26.3333333 C102.225098,28.6889007 99.359675,29.8666667 96.0308759,29.8666667 L84.3171603,29.8666667 L84.3171603,27.9466667 Z M84.3171603,31.7866667 L96.0308759,31.7866667 C98.5499671,31.7866667 100.889088,31.1733395 103.048309,29.9466667 C105.20753,28.7199939 106.934881,27.0088999 108.230414,24.8133333 C109.525946,22.6177668 110.173703,20.1955688 110.173703,17.5466667 C110.173703,15.1466547 109.530445,12.8933439 108.243909,10.7866667 C106.957373,8.67998947 105.225524,6.99556187 103.048309,5.73333333 C100.871095,4.4711048 98.5319736,3.84 96.0308759,3.84 L71.5778198,3.84 L71.5778198,46.08 L69.6345306,46.08 L69.6345306,1.92 L96.0308759,1.92 C98.8558567,1.92 101.509859,2.6355484 103.992964,4.06666667 C106.476068,5.49778493 108.450826,7.41776573 109.917297,9.82666667 C111.383768,12.2355676 112.116992,14.8088752 112.116992,17.5466667 C112.116992,20.7111269 111.428751,23.4933213 110.052247,25.8933333 C108.675744,28.2933453 106.808945,30.1688821 104.451796,31.52 L109.47196,46.08 L107.42071,46.08 L102.616467,32.4266667 C101.896727,32.7111125 101.347933,32.9066661 100.970069,33.0133333 L105.477421,46.08 L103.426171,46.08 L99.0267801,33.4666667 C98.8648385,33.5022224 98.2890549,33.564444 97.2994119,33.6533333 L101.482882,46.08 L99.431632,46.08 L95.3021424,33.7066667 L93.5477841,33.7066667 L97.4883428,46.08 L95.437093,46.08 L91.4695442,33.7066667 L84.3171603,33.7066667 L84.3171603,31.7866667 Z M83.2375551,46.08 L81.2942659,46.08 L81.2942659,13.44 L96.0308759,13.44 C97.236441,13.44 98.2755505,13.8444404 99.1482357,14.6533333 C100.020921,15.4622263 100.457257,16.4266611 100.457257,17.5466667 C100.457257,20.6400155 98.9818113,22.1866667 96.0308759,22.1866667 L84.3171603,22.1866667 L84.3171603,20.2666667 L96.0308759,20.2666667 C96.8045967,20.2666667 97.4118686,20.0666687 97.8527095,19.6666667 C98.2935505,19.2666647 98.5139677,18.5600051 98.5139677,17.5466667 C98.5139677,16.9244413 98.2755572,16.4044465 97.7987293,15.9866667 C97.3219013,15.5688868 96.7326227,15.36 96.0308759,15.36 L83.2375551,15.36 L83.2375551,46.08 Z M130.956102,24.1066667 L142.669817,24.1066667 C144.451175,24.1066667 145.958108,23.5377835 147.190664,22.4 C148.423219,21.2622165 149.039488,19.6444549 149.039488,17.5466667 C149.039488,15.9999923 148.391731,14.6088951 147.096198,13.3733333 C145.800666,12.1377716 144.32522,11.52 142.669817,11.52 L125.989918,11.52 L125.989918,46.08 L124.046629,46.08 L124.046629,9.6 L142.669817,9.6 C144.865025,9.6 146.799299,10.4044364 148.472695,12.0133333 C150.146091,13.6222303 150.982777,15.4666563 150.982777,17.5466667 C150.982777,20.1066795 150.173081,22.1599923 148.553665,23.7066667 C146.934249,25.2533411 144.972986,26.0266667 142.669817,26.0266667 L130.956102,26.0266667 L130.956102,24.1066667 Z M130.956102,27.9466667 L142.669817,27.9466667 C145.476805,27.9466667 147.887899,26.9733431 149.903172,25.0266667 C151.918445,23.0799903 152.926066,20.5866819 152.926066,17.5466667 C152.926066,14.9333203 151.895953,12.6355655 149.835696,10.6533333 C147.77544,8.6711012 145.386837,7.68 142.669817,7.68 L122.10334,7.68 L122.10334,46.08 L120.16005,46.08 L120.16005,5.76 L142.669817,5.76 C144.811045,5.76 146.821789,6.3022168 148.702111,7.38666667 C150.582433,8.47111653 152.08037,9.92443533 153.195967,11.7466667 C154.311565,13.568898 154.869355,15.502212 154.869355,17.5466667 C154.869355,21.0489064 153.668306,23.977766 151.266173,26.3333333 C148.86404,28.6889007 145.998616,29.8666667 142.669817,29.8666667 L130.956102,29.8666667 L130.956102,27.9466667 Z M130.956102,31.7866667 L142.669817,31.7866667 C145.188908,31.7866667 147.52803,31.1733395 149.687251,29.9466667 C151.846472,28.7199939 153.573823,27.0088999 154.869355,24.8133333 C156.164888,22.6177668 156.812644,20.1955688 156.812644,17.5466667 C156.812644,15.1466547 156.169386,12.8933439 154.88285,10.7866667 C153.596314,8.67998947 151.864465,6.99556187 149.687251,5.73333333 C147.510036,4.4711048 145.170915,3.84 142.669817,3.84 L118.216761,3.84 L118.216761,46.08 L116.273472,46.08 L116.273472,1.92 L142.669817,1.92 C145.494798,1.92 148.148801,2.6355484 150.631905,4.06666667 C153.115009,5.49778493 155.089767,7.41776573 156.556238,9.82666667 C158.022709,12.2355676 158.755934,14.8088752 158.755934,17.5466667 C158.755934,20.7111269 158.067692,23.4933213 156.691189,25.8933333 C155.314685,28.2933453 153.447887,30.1688821 151.090737,31.52 L156.110901,46.08 L154.059651,46.08 L149.255409,32.4266667 C148.535668,32.7111125 147.986874,32.9066661 147.609011,33.0133333 L152.116362,46.08 L150.065112,46.08 L145.665721,33.4666667 C145.50378,33.5022224 144.927996,33.564444 143.938353,33.6533333 L148.121823,46.08 L146.070573,46.08 L141.941084,33.7066667 L140.186725,33.7066667 L144.127284,46.08 L142.076034,46.08 L138.108486,33.7066667 L130.956102,33.7066667 L130.956102,31.7866667 Z M129.876497,46.08 L127.933207,46.08 L127.933207,13.44 L142.669817,13.44 C143.875382,13.44 144.914492,13.8444404 145.787177,14.6533333 C146.659862,15.4622263 147.096198,16.4266611 147.096198,17.5466667 C147.096198,20.6400155 145.620753,22.1866667 142.669817,22.1866667 L130.956102,22.1866667 L130.956102,20.2666667 L142.669817,20.2666667 C143.443538,20.2666667 144.05081,20.0666687 144.491651,19.6666667 C144.932492,19.2666647 145.152909,18.5600051 145.152909,17.5466667 C145.152909,16.9244413 144.914499,16.4044465 144.437671,15.9866667 C143.960843,15.5688868 143.371564,15.36 142.669817,15.36 L129.876497,15.36 L129.876497,46.08 Z M178.647658,16.5333333 C176.560411,18.5955659 175.516803,21.0844299 175.516803,24 C175.516803,26.9155701 176.560411,29.4044341 178.647658,31.4666667 C180.734905,33.5288992 183.253959,34.56 186.204894,34.56 C189.155829,34.56 191.674883,33.5288992 193.76213,31.4666667 C195.849377,29.4044341 196.892985,26.9155701 196.892985,24 C196.892985,21.0844299 195.849377,18.5955659 193.76213,16.5333333 C191.674883,14.4711008 189.155829,13.44 186.204894,13.44 C183.253959,13.44 180.734905,14.4711008 178.647658,16.5333333 Z M174.572149,28.8533333 C173.906389,27.3066589 173.573514,25.6888973 173.573514,24 C173.573514,22.3111027 173.906389,20.6977855 174.572149,19.16 C175.237909,17.6222145 176.13757,16.2933389 177.271162,15.1733333 C178.404753,14.0533277 179.749747,13.1644477 181.306186,12.5066667 C182.862624,11.8488856 184.495511,11.52 186.204894,11.52 C187.914277,11.52 189.547164,11.8488856 191.103602,12.5066667 C192.660041,13.1644477 194.005035,14.0533277 195.138626,15.1733333 C196.272217,16.2933389 197.171879,17.6222145 197.837639,19.16 C198.503399,20.6977855 198.836274,22.3111027 198.836274,24 C198.836274,25.6888973 198.503399,27.3022145 197.837639,28.84 C197.171879,30.3777855 196.272217,31.7066611 195.138626,32.8266667 C194.005035,33.9466723 192.660041,34.8355523 191.103602,35.4933333 C189.547164,36.1511144 187.914277,36.48 186.204894,36.48 C184.495511,36.48 182.862624,36.1511144 181.306186,35.4933333 C179.749747,34.8355523 178.404753,33.9466723 177.271162,32.8266667 C176.13757,31.7066611 175.237909,30.3822299 174.572149,28.8533333 Z M173.573514,16.7733333 C172.277981,18.9777888 171.630225,21.3866536 171.630225,24 C171.630225,26.6133464 172.28248,29.0222112 173.587009,31.2266667 C174.891538,33.4311221 176.659374,35.1777713 178.890569,36.4666667 C181.121764,37.755562 183.559848,38.4 186.204894,38.4 C188.84994,38.4 191.288024,37.755562 193.519219,36.4666667 C195.750414,35.1777713 197.518249,33.4311221 198.822779,31.2266667 C200.127308,29.0222112 200.779563,26.6133464 200.779563,24 C200.779563,21.3866536 200.127308,18.9777888 198.822779,16.7733333 C197.518249,14.5688779 195.750414,12.8222287 193.519219,11.5333333 C191.288024,10.244438 188.84994,9.6 186.204894,9.6 C183.559848,9.6 181.121764,10.244438 178.890569,11.5333333 C176.659374,12.8222287 174.88704,14.5688779 173.573514,16.7733333 Z M171.900126,32.1866667 C170.424658,29.6799875 169.686936,26.9511259 169.686936,24 C169.686936,21.0488741 170.424658,18.3200125 171.900126,15.8133333 C173.375594,13.3066541 175.38184,11.3244517 177.918925,9.86666667 C180.456009,8.4088816 183.217971,7.68 186.204894,7.68 C189.191816,7.68 191.953779,8.4088816 194.490863,9.86666667 C197.027948,11.3244517 199.034194,13.3066541 200.509662,15.8133333 C201.98513,18.3200125 202.722852,21.0488741 202.722852,24 C202.722852,26.9511259 201.98513,29.6799875 200.509662,32.1866667 C199.034194,34.6933459 197.027948,36.6755483 194.490863,38.1333333 C191.953779,39.5911184 189.191816,40.32 186.204894,40.32 C183.217971,40.32 180.456009,39.5911184 177.918925,38.1333333 C175.38184,36.6755483 173.375594,34.6933459 171.900126,32.1866667 Z M169.201113,16.9066667 C168.229464,19.1644557 167.743646,21.5288765 167.743646,24 C167.743646,26.4711235 168.229464,28.8355443 169.201113,31.0933333 C170.172763,33.3511224 171.481771,35.2933252 173.128177,36.92 C174.774583,38.5466748 176.740344,39.8399952 179.02552,40.8 C181.310695,41.7600048 183.703796,42.24 186.204894,42.24 C188.705992,42.24 191.099092,41.7600048 193.384268,40.8 C195.669444,39.8399952 197.635205,38.5466748 199.281611,36.92 C200.928017,35.2933252 202.237025,33.3511224 203.208675,31.0933333 C204.180324,28.8355443 204.666142,26.4711235 204.666142,24 C204.666142,21.5288765 204.180324,19.1644557 203.208675,16.9066667 C202.237025,14.6488776 200.928017,12.7066748 199.281611,11.08 C197.635205,9.4533252 195.669444,8.1600048 193.384268,7.2 C191.099092,6.2399952 188.705992,5.76 186.204894,5.76 C183.703796,5.76 181.310695,6.2399952 179.02552,7.2 C176.740344,8.1600048 174.774583,9.4533252 173.128177,11.08 C171.481771,12.7066748 170.172763,14.6488776 169.201113,16.9066667 Z M168.52636,34.1066667 C166.709016,31.0133179 165.800357,27.6444627 165.800357,24 C165.800357,20.3555373 166.713514,16.9866821 168.539855,13.8933333 C170.366196,10.7999845 172.844765,8.35112013 175.975635,6.54666667 C179.106506,4.7422132 182.516225,3.84 186.204894,3.84 C189.893563,3.84 193.303282,4.7422132 196.434152,6.54666667 C199.565023,8.35112013 202.043592,10.7999845 203.869933,13.8933333 C205.696274,16.9866821 206.609431,20.3555373 206.609431,24 C206.609431,27.6444627 205.696274,31.0133179 203.869933,34.1066667 C202.043592,37.2000155 199.565023,39.6488799 196.434152,41.4533333 C193.303282,43.2577868 189.893563,44.16 186.204894,44.16 C182.516225,44.16 179.106506,43.2577868 175.975635,41.4533333 C172.844765,39.6488799 170.361698,37.2000155 168.52636,34.1066667 Z M165.611426,15.44 C164.441848,18.1600136 163.857068,21.0133184 163.857068,24 C163.857068,26.9866816 164.446346,29.8444308 165.624921,32.5733333 C166.803496,35.3022359 168.391399,37.6533235 170.388679,39.6266667 C172.385958,41.6000099 174.765564,43.1688831 177.527568,44.3333333 C180.289571,45.4977836 183.181984,46.08 186.204894,46.08 C189.227803,46.08 192.120217,45.4977836 194.88222,44.3333333 C197.644224,43.1688831 200.02383,41.6000099 202.021109,39.6266667 C204.018388,37.6533235 205.606292,35.3022359 206.784867,32.5733333 C207.963441,29.8444308 208.55272,26.9866816 208.55272,24 C208.55272,21.0133184 207.963441,18.1555692 206.784867,15.4266667 C205.606292,12.6977641 204.018388,10.3466765 202.021109,8.37333333 C200.02383,6.39999013 197.644224,4.83111693 194.88222,3.66666667 C192.120217,2.5022164 189.227803,1.92 186.204894,1.92 C183.181984,1.92 180.289571,2.5022164 177.527568,3.66666667 C174.765564,4.83111693 172.385958,6.39999013 170.388679,8.37333333 C168.391399,10.3466765 166.798998,12.7022085 165.611426,15.44 Z M163.830078,33.3333333 C162.552539,30.3644296 161.913779,27.2533496 161.913779,24 C161.913779,20.7466504 162.557037,17.6400148 163.843573,14.68 C165.130109,11.7199852 166.85746,9.1688996 169.025677,7.02666667 C171.193895,4.88443373 173.775925,3.17778413 176.771844,1.90666667 C179.767763,0.6355492 182.912082,0 186.204894,0 C189.497706,0 192.642025,0.6355492 195.637944,1.90666667 C198.633863,3.17778413 201.215893,4.88443373 203.38411,7.02666667 C205.552328,9.1688996 207.279679,11.7199852 208.566215,14.68 C209.852751,17.6400148 210.496009,20.7466504 210.496009,24 C210.496009,27.2533496 209.852751,30.3599852 208.566215,33.32 C207.279679,36.2800148 205.552328,38.8311004 203.38411,40.9733333 C201.215893,43.1155663 198.633863,44.8222159 195.637944,46.0933333 C192.642025,47.3644508 189.497706,48 186.204894,48 C182.912082,48 179.767763,47.3644508 176.771844,46.0933333 C173.775925,44.8222159 171.193895,43.1155663 169.025677,40.9733333 C166.85746,38.8311004 165.12561,36.2844592 163.830078,33.3333333 Z M229.200168,24.1066667 L240.913884,24.1066667 C242.695241,24.1066667 244.202175,23.5377835 245.43473,22.4 C246.667285,21.2622165 247.283554,19.6444549 247.283554,17.5466667 C247.283554,15.9999923 246.635797,14.6088951 245.340265,13.3733333 C244.044732,12.1377716 242.569286,11.52 240.913884,11.52 L224.233984,11.52 L224.233984,46.08 L222.290695,46.08 L222.290695,9.6 L240.913884,9.6 C243.109092,9.6 245.043365,10.4044364 246.716761,12.0133333 C248.390157,13.6222303 249.226843,15.4666563 249.226843,17.5466667 C249.226843,20.1066795 248.417147,22.1599923 246.797732,23.7066667 C245.178316,25.2533411 243.217053,26.0266667 240.913884,26.0266667 L229.200168,26.0266667 L229.200168,24.1066667 Z M229.200168,27.9466667 L240.913884,27.9466667 C243.720871,27.9466667 246.131965,26.9733431 248.147238,25.0266667 C250.162511,23.0799903 251.170132,20.5866819 251.170132,17.5466667 C251.170132,14.9333203 250.140019,12.6355655 248.079763,10.6533333 C246.019506,8.6711012 243.630903,7.68 240.913884,7.68 L220.347406,7.68 L220.347406,46.08 L218.404117,46.08 L218.404117,5.76 L240.913884,5.76 C243.055111,5.76 245.065856,6.3022168 246.946177,7.38666667 C248.826499,8.47111653 250.324436,9.92443533 251.440034,11.7466667 C252.555631,13.568898 253.113422,15.502212 253.113422,17.5466667 C253.113422,21.0489064 251.912373,23.977766 249.510239,26.3333333 C247.108106,28.6889007 244.242683,29.8666667 240.913884,29.8666667 L229.200168,29.8666667 L229.200168,27.9466667 Z M229.200168,31.7866667 L240.913884,31.7866667 C243.432975,31.7866667 245.772096,31.1733395 247.931317,29.9466667 C250.090538,28.7199939 251.817889,27.0088999 253.113422,24.8133333 C254.408954,22.6177668 255.056711,20.1955688 255.056711,17.5466667 C255.056711,15.1466547 254.413452,12.8933439 253.126917,10.7866667 C251.840381,8.67998947 250.108532,6.99556187 247.931317,5.73333333 C245.754102,4.4711048 243.414981,3.84 240.913884,3.84 L216.460828,3.84 L216.460828,46.08 L214.517538,46.08 L214.517538,1.92 L240.913884,1.92 C243.738865,1.92 246.392867,2.6355484 248.875971,4.06666667 C251.359076,5.49778493 253.333834,7.41776573 254.800305,9.82666667 C256.266776,12.2355676 257,14.8088752 257,17.5466667 C257,20.7111269 256.311759,23.4933213 254.935255,25.8933333 C253.558752,28.2933453 251.691953,30.1688821 249.334804,31.52 L254.354967,46.08 L252.303718,46.08 L247.499475,32.4266667 C246.779735,32.7111125 246.230941,32.9066661 245.853077,33.0133333 L250.360428,46.08 L248.309179,46.08 L243.909788,33.4666667 C243.747846,33.5022224 243.172063,33.564444 242.18242,33.6533333 L246.36589,46.08 L244.31464,46.08 L240.18515,33.7066667 L238.430792,33.7066667 L242.371351,46.08 L240.320101,46.08 L236.352552,33.7066667 L229.200168,33.7066667 L229.200168,31.7866667 Z M228.120563,46.08 L226.177274,46.08 L226.177274,13.44 L240.913884,13.44 C242.119449,13.44 243.158558,13.8444404 244.031243,14.6533333 C244.903929,15.4622263 245.340265,16.4266611 245.340265,17.5466667 C245.340265,20.6400155 243.864819,22.1866667 240.913884,22.1866667 L229.200168,22.1866667 L229.200168,20.2666667 L240.913884,20.2666667 C241.687605,20.2666667 242.294876,20.0666687 242.735717,19.6666667 C243.176558,19.2666647 243.396975,18.5600051 243.396975,17.5466667 C243.396975,16.9244413 243.158565,16.4044465 242.681737,15.9866667 C242.204909,15.5688868 241.61563,15.36 240.913884,15.36 L228.120563,15.36 L228.120563,46.08 Z M51.1722327,79.9733333 L53.1155219,76.3466667 L53.1155219,96.08 L51.1722327,96.08 L51.1722327,79.9733333 Z M55.0588112,72.6133333 L57.0021004,68.9866667 L57.0021004,96.08 L55.0588112,96.08 L55.0588112,72.6133333 Z M58.9453896,65.36 L60.8886788,61.7066667 L60.8886788,96.08 L58.9453896,96.08 L58.9453896,65.36 Z M45.9091577,79.0666667 L44.8025625,77.0666667 L58.189666,51.92 L60.3758664,51.92 L45.9091577,79.0666667 Z M43.6689771,74.88 L42.5353917,72.8533333 L53.763285,51.92 L55.9764755,51.92 L43.6689771,74.88 Z M30.6597353,76.56 L32.6030246,80.1866667 L32.6030246,96.08 L30.6597353,96.08 L30.6597353,76.56 Z M26.7731569,69.2533333 L28.7164461,72.88 L28.7164461,96.08 L26.7731569,96.08 L26.7731569,69.2533333 Z M22.8865784,61.9466667 L24.8298677,65.6 L24.8298677,96.08 L22.8865784,96.08 L22.8865784,61.9466667 Z M38.594833,84.56 L36.4086326,84.56 L20.9432892,55.5733333 L20.9432892,96.08 L19,96.08 L19,51.92 L21.1862004,51.92 L38.594833,84.56 Z M42.9942239,84.56 L40.7810334,84.56 L23.3993909,51.92 L25.6125814,51.92 L42.9942239,84.56 Z M62.8319681,55.5733333 L47.3666247,84.56 L45.1534342,84.56 L27.7987818,51.92 L29.9849821,51.92 L46.2870195,82.5333333 L62.5620668,51.92 L64.7752573,51.92 L64.7752573,96.08 L62.8319681,96.08 L62.8319681,55.5733333 Z M81.563117,51.92 L83.5064062,51.92 L83.5064062,96.08 L81.563117,96.08 L81.563117,51.92 Z M77.6765385,51.92 L79.6198278,51.92 L79.6198278,96.08 L77.6765385,96.08 L77.6765385,51.92 Z M73.7899601,51.92 L75.7332493,51.92 L75.7332493,96.08 L73.7899601,96.08 L73.7899601,51.92 Z M69.9033816,51.92 L71.8466709,51.92 L71.8466709,96.08 L69.9033816,96.08 L69.9033816,51.92 Z M103.31716,74.1066667 L115.030876,74.1066667 C116.812233,74.1066667 118.319167,73.5377835 119.551722,72.4 C120.784278,71.2622165 121.400546,69.6444549 121.400546,67.5466667 C121.400546,65.9999923 120.75279,64.6088951 119.457257,63.3733333 C118.161724,62.1377716 116.686279,61.52 115.030876,61.52 L98.3509767,61.52 L98.3509767,96.08 L96.4076875,96.08 L96.4076875,59.6 L115.030876,59.6 C117.226084,59.6 119.160357,60.4044364 120.833753,62.0133333 C122.50715,63.6222303 123.343835,65.4666563 123.343835,67.5466667 C123.343835,70.1066795 122.53414,72.1599923 120.914724,73.7066667 C119.295308,75.2533411 117.334045,76.0266667 115.030876,76.0266667 L103.31716,76.0266667 L103.31716,74.1066667 Z M103.31716,77.9466667 L115.030876,77.9466667 C117.837863,77.9466667 120.248957,76.9733431 122.26423,75.0266667 C124.279503,73.0799903 125.287125,70.5866819 125.287125,67.5466667 C125.287125,64.9333203 124.257012,62.6355655 122.196755,60.6533333 C120.136498,58.6711012 117.747896,57.68 115.030876,57.68 L94.4643982,57.68 L94.4643982,96.08 L92.521109,96.08 L92.521109,55.76 L115.030876,55.76 C117.172103,55.76 119.182848,56.3022168 121.06317,57.3866667 C122.943491,58.4711165 124.441428,59.9244353 125.557026,61.7466667 C126.672623,63.568898 127.230414,65.502212 127.230414,67.5466667 C127.230414,71.0489064 126.029365,73.977766 123.627232,76.3333333 C121.225098,78.6889007 118.359675,79.8666667 115.030876,79.8666667 L103.31716,79.8666667 L103.31716,77.9466667 Z M103.31716,81.7866667 L115.030876,81.7866667 C117.549967,81.7866667 119.889088,81.1733395 122.048309,79.9466667 C124.20753,78.7199939 125.934881,77.0088999 127.230414,74.8133333 C128.525946,72.6177668 129.173703,70.1955688 129.173703,67.5466667 C129.173703,65.1466547 128.530445,62.8933439 127.243909,60.7866667 C125.957373,58.6799895 124.225524,56.9955619 122.048309,55.7333333 C119.871095,54.4711048 117.531974,53.84 115.030876,53.84 L90.5778198,53.84 L90.5778198,96.08 L88.6345306,96.08 L88.6345306,51.92 L115.030876,51.92 C117.855857,51.92 120.509859,52.6355484 122.992964,54.0666667 C125.476068,55.4977849 127.450826,57.4177657 128.917297,59.8266667 C130.383768,62.2355676 131.116992,64.8088752 131.116992,67.5466667 C131.116992,70.7111269 130.428751,73.4933213 129.052247,75.8933333 C127.675744,78.2933453 125.808945,80.1688821 123.451796,81.52 L128.47196,96.08 L126.42071,96.08 L121.616467,82.4266667 C120.896727,82.7111125 120.347933,82.9066661 119.970069,83.0133333 L124.477421,96.08 L122.426171,96.08 L118.02678,83.4666667 C117.864839,83.5022224 117.289055,83.564444 116.299412,83.6533333 L120.482882,96.08 L118.431632,96.08 L114.302142,83.7066667 L112.547784,83.7066667 L116.488343,96.08 L114.437093,96.08 L110.469544,83.7066667 L103.31716,83.7066667 L103.31716,81.7866667 Z M102.237555,96.08 L100.294266,96.08 L100.294266,63.44 L115.030876,63.44 C116.236441,63.44 117.27555,63.8444404 118.148236,64.6533333 C119.020921,65.4622263 119.457257,66.4266611 119.457257,67.5466667 C119.457257,70.6400155 117.981811,72.1866667 115.030876,72.1866667 L103.31716,72.1866667 L103.31716,70.2666667 L115.030876,70.2666667 C115.804597,70.2666667 116.411869,70.0666687 116.85271,69.6666667 C117.29355,69.2666647 117.513968,68.5600051 117.513968,67.5466667 C117.513968,66.9244413 117.275557,66.4044465 116.798729,65.9866667 C116.321901,65.5688868 115.732623,65.36 115.030876,65.36 L102.237555,65.36 L102.237555,96.08 Z M149.956102,74.1066667 L161.669817,74.1066667 C163.451175,74.1066667 164.958108,73.5377835 166.190664,72.4 C167.423219,71.2622165 168.039488,69.6444549 168.039488,67.5466667 C168.039488,65.9999923 167.391731,64.6088951 166.096198,63.3733333 C164.800666,62.1377716 163.32522,61.52 161.669817,61.52 L144.989918,61.52 L144.989918,96.08 L143.046629,96.08 L143.046629,59.6 L161.669817,59.6 C163.865025,59.6 165.799299,60.4044364 167.472695,62.0133333 C169.146091,63.6222303 169.982777,65.4666563 169.982777,67.5466667 C169.982777,70.1066795 169.173081,72.1599923 167.553665,73.7066667 C165.934249,75.2533411 163.972986,76.0266667 161.669817,76.0266667 L149.956102,76.0266667 L149.956102,74.1066667 Z M149.956102,77.9466667 L161.669817,77.9466667 C164.476805,77.9466667 166.887899,76.9733431 168.903172,75.0266667 C170.918445,73.0799903 171.926066,70.5866819 171.926066,67.5466667 C171.926066,64.9333203 170.895953,62.6355655 168.835696,60.6533333 C166.77544,58.6711012 164.386837,57.68 161.669817,57.68 L141.10334,57.68 L141.10334,96.08 L139.16005,96.08 L139.16005,55.76 L161.669817,55.76 C163.811045,55.76 165.821789,56.3022168 167.702111,57.3866667 C169.582433,58.4711165 171.08037,59.9244353 172.195967,61.7466667 C173.311565,63.568898 173.869355,65.502212 173.869355,67.5466667 C173.869355,71.0489064 172.668306,73.977766 170.266173,76.3333333 C167.86404,78.6889007 164.998616,79.8666667 161.669817,79.8666667 L149.956102,79.8666667 L149.956102,77.9466667 Z M149.956102,81.7866667 L161.669817,81.7866667 C164.188908,81.7866667 166.52803,81.1733395 168.687251,79.9466667 C170.846472,78.7199939 172.573823,77.0088999 173.869355,74.8133333 C175.164888,72.6177668 175.812644,70.1955688 175.812644,67.5466667 C175.812644,65.1466547 175.169386,62.8933439 173.88285,60.7866667 C172.596314,58.6799895 170.864465,56.9955619 168.687251,55.7333333 C166.510036,54.4711048 164.170915,53.84 161.669817,53.84 L137.216761,53.84 L137.216761,96.08 L135.273472,96.08 L135.273472,51.92 L161.669817,51.92 C164.494798,51.92 167.148801,52.6355484 169.631905,54.0666667 C172.115009,55.4977849 174.089767,57.4177657 175.556238,59.8266667 C177.022709,62.2355676 177.755934,64.8088752 177.755934,67.5466667 C177.755934,70.7111269 177.067692,73.4933213 175.691189,75.8933333 C174.314685,78.2933453 172.447887,80.1688821 170.090737,81.52 L175.110901,96.08 L173.059651,96.08 L168.255409,82.4266667 C167.535668,82.7111125 166.986874,82.9066661 166.609011,83.0133333 L171.116362,96.08 L169.065112,96.08 L164.665721,83.4666667 C164.50378,83.5022224 163.927996,83.564444 162.938353,83.6533333 L167.121823,96.08 L165.070573,96.08 L160.941084,83.7066667 L159.186725,83.7066667 L163.127284,96.08 L161.076034,96.08 L157.108486,83.7066667 L149.956102,83.7066667 L149.956102,81.7866667 Z M148.876497,96.08 L146.933207,96.08 L146.933207,63.44 L161.669817,63.44 C162.875382,63.44 163.914492,63.8444404 164.787177,64.6533333 C165.659862,65.4622263 166.096198,66.4266611 166.096198,67.5466667 C166.096198,70.6400155 164.620753,72.1866667 161.669817,72.1866667 L149.956102,72.1866667 L149.956102,70.2666667 L161.669817,70.2666667 C162.443538,70.2666667 163.05081,70.0666687 163.491651,69.6666667 C163.932492,69.2666647 164.152909,68.5600051 164.152909,67.5466667 C164.152909,66.9244413 163.914499,66.4044465 163.437671,65.9866667 C162.960843,65.5688868 162.371564,65.36 161.669817,65.36 L148.876497,65.36 L148.876497,96.08 Z M197.647658,66.5333333 C195.560411,68.5955659 194.516803,71.0844299 194.516803,74 C194.516803,76.9155701 195.560411,79.4044341 197.647658,81.4666667 C199.734905,83.5288992 202.253959,84.56 205.204894,84.56 C208.155829,84.56 210.674883,83.5288992 212.76213,81.4666667 C214.849377,79.4044341 215.892985,76.9155701 215.892985,74 C215.892985,71.0844299 214.849377,68.5955659 212.76213,66.5333333 C210.674883,64.4711008 208.155829,63.44 205.204894,63.44 C202.253959,63.44 199.734905,64.4711008 197.647658,66.5333333 Z M193.572149,78.8533333 C192.906389,77.3066589 192.573514,75.6888973 192.573514,74 C192.573514,72.3111027 192.906389,70.6977855 193.572149,69.16 C194.237909,67.6222145 195.13757,66.2933389 196.271162,65.1733333 C197.404753,64.0533277 198.749747,63.1644477 200.306186,62.5066667 C201.862624,61.8488856 203.495511,61.52 205.204894,61.52 C206.914277,61.52 208.547164,61.8488856 210.103602,62.5066667 C211.660041,63.1644477 213.005035,64.0533277 214.138626,65.1733333 C215.272217,66.2933389 216.171879,67.6222145 216.837639,69.16 C217.503399,70.6977855 217.836274,72.3111027 217.836274,74 C217.836274,75.6888973 217.503399,77.3022145 216.837639,78.84 C216.171879,80.3777855 215.272217,81.7066611 214.138626,82.8266667 C213.005035,83.9466723 211.660041,84.8355523 210.103602,85.4933333 C208.547164,86.1511144 206.914277,86.48 205.204894,86.48 C203.495511,86.48 201.862624,86.1511144 200.306186,85.4933333 C198.749747,84.8355523 197.404753,83.9466723 196.271162,82.8266667 C195.13757,81.7066611 194.237909,80.3822299 193.572149,78.8533333 Z M192.573514,66.7733333 C191.277981,68.9777888 190.630225,71.3866536 190.630225,74 C190.630225,76.6133464 191.28248,79.0222112 192.587009,81.2266667 C193.891538,83.4311221 195.659374,85.1777713 197.890569,86.4666667 C200.121764,87.755562 202.559848,88.4 205.204894,88.4 C207.84994,88.4 210.288024,87.755562 212.519219,86.4666667 C214.750414,85.1777713 216.518249,83.4311221 217.822779,81.2266667 C219.127308,79.0222112 219.779563,76.6133464 219.779563,74 C219.779563,71.3866536 219.127308,68.9777888 217.822779,66.7733333 C216.518249,64.5688779 214.750414,62.8222287 212.519219,61.5333333 C210.288024,60.244438 207.84994,59.6 205.204894,59.6 C202.559848,59.6 200.121764,60.244438 197.890569,61.5333333 C195.659374,62.8222287 193.88704,64.5688779 192.573514,66.7733333 Z M190.900126,82.1866667 C189.424658,79.6799875 188.686936,76.9511259 188.686936,74 C188.686936,71.0488741 189.424658,68.3200125 190.900126,65.8133333 C192.375594,63.3066541 194.38184,61.3244517 196.918925,59.8666667 C199.456009,58.4088816 202.217971,57.68 205.204894,57.68 C208.191816,57.68 210.953779,58.4088816 213.490863,59.8666667 C216.027948,61.3244517 218.034194,63.3066541 219.509662,65.8133333 C220.98513,68.3200125 221.722852,71.0488741 221.722852,74 C221.722852,76.9511259 220.98513,79.6799875 219.509662,82.1866667 C218.034194,84.6933459 216.027948,86.6755483 213.490863,88.1333333 C210.953779,89.5911184 208.191816,90.32 205.204894,90.32 C202.217971,90.32 199.456009,89.5911184 196.918925,88.1333333 C194.38184,86.6755483 192.375594,84.6933459 190.900126,82.1866667 Z M188.201113,66.9066667 C187.229464,69.1644557 186.743646,71.5288765 186.743646,74 C186.743646,76.4711235 187.229464,78.8355443 188.201113,81.0933333 C189.172763,83.3511224 190.481771,85.2933252 192.128177,86.92 C193.774583,88.5466748 195.740344,89.8399952 198.02552,90.8 C200.310695,91.7600048 202.703796,92.24 205.204894,92.24 C207.705992,92.24 210.099092,91.7600048 212.384268,90.8 C214.669444,89.8399952 216.635205,88.5466748 218.281611,86.92 C219.928017,85.2933252 221.237025,83.3511224 222.208675,81.0933333 C223.180324,78.8355443 223.666142,76.4711235 223.666142,74 C223.666142,71.5288765 223.180324,69.1644557 222.208675,66.9066667 C221.237025,64.6488776 219.928017,62.7066748 218.281611,61.08 C216.635205,59.4533252 214.669444,58.1600048 212.384268,57.2 C210.099092,56.2399952 207.705992,55.76 205.204894,55.76 C202.703796,55.76 200.310695,56.2399952 198.02552,57.2 C195.740344,58.1600048 193.774583,59.4533252 192.128177,61.08 C190.481771,62.7066748 189.172763,64.6488776 188.201113,66.9066667 Z M187.52636,84.1066667 C185.709016,81.0133179 184.800357,77.6444627 184.800357,74 C184.800357,70.3555373 185.713514,66.9866821 187.539855,63.8933333 C189.366196,60.7999845 191.844765,58.3511201 194.975635,56.5466667 C198.106506,54.7422132 201.516225,53.84 205.204894,53.84 C208.893563,53.84 212.303282,54.7422132 215.434152,56.5466667 C218.565023,58.3511201 221.043592,60.7999845 222.869933,63.8933333 C224.696274,66.9866821 225.609431,70.3555373 225.609431,74 C225.609431,77.6444627 224.696274,81.0133179 222.869933,84.1066667 C221.043592,87.2000155 218.565023,89.6488799 215.434152,91.4533333 C212.303282,93.2577868 208.893563,94.16 205.204894,94.16 C201.516225,94.16 198.106506,93.2577868 194.975635,91.4533333 C191.844765,89.6488799 189.361698,87.2000155 187.52636,84.1066667 Z M184.611426,65.44 C183.441848,68.1600136 182.857068,71.0133184 182.857068,74 C182.857068,76.9866816 183.446346,79.8444308 184.624921,82.5733333 C185.803496,85.3022359 187.391399,87.6533235 189.388679,89.6266667 C191.385958,91.6000099 193.765564,93.1688831 196.527568,94.3333333 C199.289571,95.4977836 202.181984,96.08 205.204894,96.08 C208.227803,96.08 211.120217,95.4977836 213.88222,94.3333333 C216.644224,93.1688831 219.02383,91.6000099 221.021109,89.6266667 C223.018388,87.6533235 224.606292,85.3022359 225.784867,82.5733333 C226.963441,79.8444308 227.55272,76.9866816 227.55272,74 C227.55272,71.0133184 226.963441,68.1555692 225.784867,65.4266667 C224.606292,62.6977641 223.018388,60.3466765 221.021109,58.3733333 C219.02383,56.3999901 216.644224,54.8311169 213.88222,53.6666667 C211.120217,52.5022164 208.227803,51.92 205.204894,51.92 C202.181984,51.92 199.289571,52.5022164 196.527568,53.6666667 C193.765564,54.8311169 191.385958,56.3999901 189.388679,58.3733333 C187.391399,60.3466765 185.798998,62.7022085 184.611426,65.44 Z M182.830078,83.3333333 C181.552539,80.3644296 180.913779,77.2533496 180.913779,74 C180.913779,70.7466504 181.557037,67.6400148 182.843573,64.68 C184.130109,61.7199852 185.85746,59.1688996 188.025677,57.0266667 C190.193895,54.8844337 192.775925,53.1777841 195.771844,51.9066667 C198.767763,50.6355492 201.912082,50 205.204894,50 C208.497706,50 211.642025,50.6355492 214.637944,51.9066667 C217.633863,53.1777841 220.215893,54.8844337 222.38411,57.0266667 C224.552328,59.1688996 226.279679,61.7199852 227.566215,64.68 C228.852751,67.6400148 229.496009,70.7466504 229.496009,74 C229.496009,77.2533496 228.852751,80.3599852 227.566215,83.32 C226.279679,86.2800148 224.552328,88.8311004 222.38411,90.9733333 C220.215893,93.1155663 217.633863,94.8222159 214.637944,96.0933333 C211.642025,97.3644508 208.497706,98 205.204894,98 C201.912082,98 198.767763,97.3644508 195.771844,96.0933333 C192.775925,94.8222159 190.193895,93.1155663 188.025677,90.9733333 C185.85746,88.8311004 184.12561,86.2844592 182.830078,83.3333333 Z M248.200168,74.1066667 L259.913884,74.1066667 C261.695241,74.1066667 263.202175,73.5377835 264.43473,72.4 C265.667285,71.2622165 266.283554,69.6444549 266.283554,67.5466667 C266.283554,65.9999923 265.635797,64.6088951 264.340265,63.3733333 C263.044732,62.1377716 261.569286,61.52 259.913884,61.52 L243.233984,61.52 L243.233984,96.08 L241.290695,96.08 L241.290695,59.6 L259.913884,59.6 C262.109092,59.6 264.043365,60.4044364 265.716761,62.0133333 C267.390157,63.6222303 268.226843,65.4666563 268.226843,67.5466667 C268.226843,70.1066795 267.417147,72.1599923 265.797732,73.7066667 C264.178316,75.2533411 262.217053,76.0266667 259.913884,76.0266667 L248.200168,76.0266667 L248.200168,74.1066667 Z M248.200168,77.9466667 L259.913884,77.9466667 C262.720871,77.9466667 265.131965,76.9733431 267.147238,75.0266667 C269.162511,73.0799903 270.170132,70.5866819 270.170132,67.5466667 C270.170132,64.9333203 269.140019,62.6355655 267.079763,60.6533333 C265.019506,58.6711012 262.630903,57.68 259.913884,57.68 L239.347406,57.68 L239.347406,96.08 L237.404117,96.08 L237.404117,55.76 L259.913884,55.76 C262.055111,55.76 264.065856,56.3022168 265.946177,57.3866667 C267.826499,58.4711165 269.324436,59.9244353 270.440034,61.7466667 C271.555631,63.568898 272.113422,65.502212 272.113422,67.5466667 C272.113422,71.0489064 270.912373,73.977766 268.510239,76.3333333 C266.108106,78.6889007 263.242683,79.8666667 259.913884,79.8666667 L248.200168,79.8666667 L248.200168,77.9466667 Z M248.200168,81.7866667 L259.913884,81.7866667 C262.432975,81.7866667 264.772096,81.1733395 266.931317,79.9466667 C269.090538,78.7199939 270.817889,77.0088999 272.113422,74.8133333 C273.408954,72.6177668 274.056711,70.1955688 274.056711,67.5466667 C274.056711,65.1466547 273.413452,62.8933439 272.126917,60.7866667 C270.840381,58.6799895 269.108532,56.9955619 266.931317,55.7333333 C264.754102,54.4711048 262.414981,53.84 259.913884,53.84 L235.460828,53.84 L235.460828,96.08 L233.517538,96.08 L233.517538,51.92 L259.913884,51.92 C262.738865,51.92 265.392867,52.6355484 267.875971,54.0666667 C270.359076,55.4977849 272.333834,57.4177657 273.800305,59.8266667 C275.266776,62.2355676 276,64.8088752 276,67.5466667 C276,70.7111269 275.311759,73.4933213 273.935255,75.8933333 C272.558752,78.2933453 270.691953,80.1688821 268.334804,81.52 L273.354967,96.08 L271.303718,96.08 L266.499475,82.4266667 C265.779735,82.7111125 265.230941,82.9066661 264.853077,83.0133333 L269.360428,96.08 L267.309179,96.08 L262.909788,83.4666667 C262.747846,83.5022224 262.172063,83.564444 261.18242,83.6533333 L265.36589,96.08 L263.31464,96.08 L259.18515,83.7066667 L257.430792,83.7066667 L261.371351,96.08 L259.320101,96.08 L255.352552,83.7066667 L248.200168,83.7066667 L248.200168,81.7866667 Z M247.120563,96.08 L245.177274,96.08 L245.177274,63.44 L259.913884,63.44 C261.119449,63.44 262.158558,63.8444404 263.031243,64.6533333 C263.903929,65.4622263 264.340265,66.4266611 264.340265,67.5466667 C264.340265,70.6400155 262.864819,72.1866667 259.913884,72.1866667 L248.200168,72.1866667 L248.200168,70.2666667 L259.913884,70.2666667 C260.687605,70.2666667 261.294876,70.0666687 261.735717,69.6666667 C262.176558,69.2666647 262.396975,68.5600051 262.396975,67.5466667 C262.396975,66.9244413 262.158565,66.4044465 261.681737,65.9866667 C261.204909,65.5688868 260.61563,65.36 259.913884,65.36 L247.120563,65.36 L247.120563,96.08 Z" id="Combined-Shape"></path>
            </g>
        </g>
    </g>
</svg>