<?xml version="1.0" encoding="UTF-8"?>
<svg width="216px" height="116px" viewBox="0 0 216 116" version="1.1" xmlns="http://www.w3.org/2000/svg" xmlns:xlink="http://www.w3.org/1999/xlink">
    <!-- Generator: Sketch 52.5 (67469) - http://www.bohemiancoding.com/sketch -->
    <title>Group</title>
    <desc>Created with Sketch.</desc>
    <g id="Page-1" stroke="none" stroke-width="1" fill="none" fill-rule="evenodd">
        <g id="Group" transform="translate(-108.000000, -43.000000)">
            <rect id="Rectangle" fill-rule="nonzero" x="0" y="0" width="430" height="205"></rect>
            <g id="Group-2" transform="translate(215.500000, 102.500000) rotate(-360.000000) translate(-215.500000, -102.500000) translate(107.000000, 43.000000)">
                <path d="M35.8885867,35.0208477 C35.6542105,37.880237 34.8104689,40.4231803 33.3573367,42.649754 C31.9042044,44.8763276 29.9823486,46.7630275 27.5917117,48.3099102 C25.9979537,49.2942901 24.2870333,50.1849062 22.4588992,50.9817852 C20.630765,51.7786642 18.8026583,52.3880331 16.9745242,52.8099102 C15.333891,53.1849121 13.7284383,53.3489729 12.1581179,53.3020977 C10.5877976,53.2552225 9.00578214,53.1380362 7.41202417,52.9505352 C7.0370223,53.3724123 6.57999562,53.6653781 6.04093042,53.8294415 C5.50186523,53.9935048 4.97452675,54.0052234 4.45889917,53.8645977 C3.38076878,53.5833463 2.72452534,52.9036656 2.49014917,51.8255352 C1.92764636,51.2630324 1.64639917,50.5833517 1.64639917,49.7864727 C1.64639917,48.7552176 2.11514448,47.9349133 3.05264917,47.3255352 C3.33390058,45.4505258 3.5565546,43.5755446 3.72061792,41.7005352 C3.88468124,39.8255258 4.0135862,37.9271073 4.10733667,36.0052227 C4.24796237,33.7552115 4.3651487,31.5286712 4.45889917,29.3255352 C4.55264964,27.1223992 4.57608691,24.895859 4.52921167,22.6458477 C4.52921167,21.2395907 4.48233714,19.7864802 4.38858667,18.2864727 C4.2948362,16.7864652 4.24796167,15.2981988 4.24796167,13.821629 C4.24796167,12.3450591 4.3299921,10.88023 4.49405542,9.42709771 C4.65811874,7.97396545 4.99795909,6.56772951 5.51358667,5.20834771 C5.2792105,4.45834396 5.32608503,3.6849142 5.65421167,2.88803521 C5.98233831,2.09115623 6.61514448,1.59897365 7.55264917,1.41147271 C8.11515198,0.802094667 8.78311405,0.52084748 9.55655542,0.567722714 C10.3299968,0.614597949 10.9745216,0.872407871 11.4901492,1.34116021 C13.7870357,1.52866115 16.0252945,1.96225057 18.2049929,2.64194146 C20.3846913,3.32163236 22.3885775,4.41146521 24.2167117,5.91147271 C26.4667229,7.69273162 28.2713924,9.83724143 29.6307742,12.3450665 C30.990156,14.8528915 32.0917075,17.4427094 32.9354617,20.1145977 C33.3104635,21.2864786 33.6971784,22.4817791 34.0956179,23.7005352 C34.4940574,24.9192913 34.8456164,26.1614664 35.1503054,27.4270977 C35.4549944,28.692729 35.6776485,29.9583414 35.8182742,31.2239727 C35.9588999,32.489604 35.9823371,33.7552164 35.8885867,35.0208477 Z M24.1463992,43.8099102 C24.7557772,43.4349083 25.306553,43.0599121 25.7987429,42.6849102 C26.2909329,42.3099083 26.7948341,41.8646003 27.3104617,41.3489727 C27.7323388,40.8802204 28.0604605,40.5052241 28.2948367,40.2239727 C28.5292128,39.9427213 28.81046,39.5208505 29.1385867,38.9583477 C29.9354657,37.3177145 30.3104619,35.4661705 30.2635867,33.4036602 C30.2635867,32.2317794 30.1698376,31.1419465 29.9823367,30.134129 C29.7948357,29.1263114 29.5135885,27.989604 29.1385867,26.7239727 C28.7635848,25.4114662 28.3768699,24.1106979 27.9784304,22.821629 C27.5799909,21.53256 27.1229642,20.2786663 26.6073367,19.0599102 C26.2323348,18.0286551 25.7284336,16.9153849 25.0956179,15.7200665 C24.4628023,14.524748 23.8182775,13.5286642 23.1620242,12.7317852 C21.521391,10.7630254 19.669847,9.3450708 17.6073367,8.47787896 C15.5448264,7.61068713 13.2948489,7.10678592 10.8573367,6.96616021 C10.3417091,8.27866678 10.025306,9.64974682 9.90811792,11.0794415 C9.79092984,12.5091361 9.75577394,13.9505279 9.80264917,15.4036602 C9.84952441,16.8567925 9.93155484,18.3099029 10.0487429,19.7630352 C10.165931,21.2161675 10.2010869,22.6224034 10.1542117,23.9817852 C9.96671073,27.9661801 9.79093124,31.9036408 9.62686792,35.7942852 C9.4628046,39.6849297 9.12296425,43.598953 8.60733667,47.5364727 C9.45109089,47.6302232 10.3065511,47.700535 11.1737429,47.7474102 C12.0409348,47.7942854 12.896395,47.7708482 13.7401492,47.6770977 C15.5214081,47.4895968 17.3143589,47.0325701 19.1190554,46.306004 C20.9237519,45.5794378 22.5995164,44.7474149 24.1463992,43.8099102 Z M43.3417117,23.7708477 C43.3885869,22.8802183 43.7167086,22.2122562 44.3260867,21.7669415 C44.9354647,21.3216267 45.5917082,21.0989727 46.2948367,21.0989727 C46.9979652,21.0989727 47.6190527,21.3216267 48.1581179,21.7669415 C48.6971831,22.2122562 48.9432744,22.8802183 48.8963992,23.7708477 C48.8963992,24.0520991 48.8846805,24.3450649 48.8612429,24.649754 C48.8378053,24.954443 48.8260867,25.2474088 48.8260867,25.5286602 C50.3260942,24.7786565 51.9081096,24.1341317 53.5721804,23.5950665 C55.2362512,23.0560013 56.9002971,22.7161609 58.5643679,22.5755352 C60.2284387,22.4349095 61.8456101,22.5638145 63.4159304,22.962254 C64.9862508,23.3606935 66.4276426,24.1224046 67.7401492,25.2474102 C68.3964025,25.8567883 68.6893683,26.5130317 68.6190554,27.2161602 C68.5487426,27.9192887 68.2674954,28.516939 67.7753054,29.009129 C67.2831155,29.5013189 66.6620279,29.8060034 65.9120242,29.9231915 C65.1620204,30.0403796 64.4354652,29.8177255 63.7323367,29.2552227 C63.2167091,28.8333456 62.6424961,28.5286612 62.0096804,28.3411602 C61.3768648,28.1536593 60.6971841,28.0716288 59.9706179,28.0950665 C59.2440518,28.1185041 58.5174966,28.2005345 57.7909304,28.3411602 C57.0643643,28.4817859 56.372965,28.6458468 55.7167117,28.8333477 C53.2323242,29.6302267 50.912035,30.6849037 48.7557742,31.9974102 C48.8495246,34.2942967 48.9901482,36.5911487 49.1776492,38.8880352 C49.3651501,40.8099198 49.529211,42.7903688 49.6698367,44.8294415 C49.8104624,46.8685142 50.2088959,48.8020886 50.8651492,50.6302227 C51.1464006,51.4739769 51.0878074,52.1888135 50.6893679,52.774754 C50.2909284,53.3606944 49.7518713,53.7474093 49.0721804,53.9349102 C48.3924895,54.1224112 47.6893716,54.0755366 46.9628054,53.7942852 C46.2362393,53.5130338 45.7323381,52.9505394 45.4510867,52.1067852 C45.0760848,51.0286548 44.8182749,49.9271033 44.6776492,48.8020977 L44.2557742,45.4270977 C44.1620237,44.3489673 44.056556,43.2591345 43.9393679,42.1575665 C43.8221798,41.0559985 43.7167121,39.9661656 43.6229617,38.8880352 C43.3885855,36.3567726 43.2362433,33.8372665 43.1659304,31.3294415 C43.0956176,28.8216164 43.1542107,26.3021104 43.3417117,23.7708477 Z M76.8807742,50.4895977 C75.2870162,49.7864692 74.0331225,48.8138227 73.1190554,47.571629 C72.2049884,46.3294353 71.5721822,44.9583552 71.2206179,43.4583477 C70.8690537,41.9583402 70.763586,40.3997621 70.9042117,38.7825665 C71.0448374,37.1653709 71.3729591,35.6067927 71.8885867,34.1067852 C72.3104638,32.9349044 72.7909277,31.7161665 73.3299929,30.4505352 C73.8690581,29.1849039 74.5135829,28.0130406 75.2635867,26.9349102 C76.0135904,25.8567798 76.9042065,24.9310078 77.9354617,24.1575665 C78.9667168,23.3841251 80.1854546,22.8802239 81.5917117,22.6458477 C83.0448439,22.4114715 84.509673,22.3294411 85.9862429,22.399754 C87.4628128,22.4700668 88.9276419,22.622409 90.3807742,22.8567852 C91.0370275,22.9505357 91.6698336,23.1028779 92.2792117,23.3138165 C92.8885897,23.524755 93.4979586,23.747409 94.1073367,23.9817852 C94.1542119,23.2786567 94.470615,22.6927251 95.0565554,22.2239727 C95.6424959,21.7552204 96.2635834,21.5208477 96.9198367,21.5208477 C97.7167157,21.5208477 98.3612405,21.7903763 98.8534304,22.3294415 C99.3456204,22.8685067 99.6385862,23.5130315 99.7323367,24.2630352 C99.9667128,26.419296 100.072181,28.5755244 100.048743,30.7317852 C100.025305,32.888046 99.9549935,35.0442744 99.8378054,37.2005352 C99.7206173,39.356796 99.6268683,41.5130244 99.5565554,43.6692852 C99.4862426,45.825546 99.4979612,47.9817744 99.5917117,50.1380352 C99.6385869,51.0286647 99.3690584,51.6966267 98.7831179,52.1419415 C98.1971775,52.5872562 97.5526527,52.8099102 96.8495242,52.8099102 C96.1463957,52.8099102 95.5018709,52.5872562 94.9159304,52.1419415 C94.32999,51.6966267 94.0135869,51.0286647 93.9667117,50.1380352 C91.2948233,51.2630408 88.4589142,51.9075656 85.4588992,52.071629 C82.4588842,52.2356923 79.5995378,51.7083538 76.8807742,50.4895977 Z M77.3729617,35.2317852 C77.0917103,36.0755394 76.8339003,37.0364673 76.5995242,38.1145977 C76.365148,39.1927281 76.2948362,40.2239678 76.3885867,41.2083477 C76.4823371,42.1927276 76.7870216,43.0950624 77.3026492,43.915379 C77.8182767,44.7356956 78.6620183,45.3099086 79.8338992,45.6380352 C82.2245361,46.388039 84.6268559,46.5989744 87.0409304,46.2708477 C89.455005,45.9427211 91.7167011,45.0989795 93.8260867,43.7395977 C94.0135876,41.4427112 94.1659298,39.216171 94.2831179,37.0599102 C94.400306,34.9036494 94.4354619,32.7239837 94.3885867,30.5208477 C93.5917077,30.0052201 92.783122,29.5481935 91.9628054,29.149754 C91.1424888,28.7513145 90.2401541,28.4817859 89.2557742,28.3411602 C88.2713942,28.2005345 87.2284359,28.0950668 86.1268679,28.024754 C85.0252999,27.9544411 83.9589043,27.9661597 82.9276492,28.0599102 C82.8338987,28.0599102 82.5878074,28.1185034 82.1893679,28.2356915 C81.7909284,28.3528796 81.5682744,28.43491 81.5213992,28.4817852 C81.0526468,28.7161614 80.630776,29.0911576 80.2557742,29.6067852 C79.6463961,30.4505394 79.107339,31.3528742 78.6385867,32.3138165 C78.1698343,33.2747588 77.7479635,34.2474053 77.3729617,35.2317852 Z M149.021399,25.3177227 C148.740148,26.6302293 148.412026,27.9309975 148.037024,29.2200665 C147.662022,30.5091354 147.240152,31.7864664 146.771399,33.0520977 C146.255772,34.3646043 145.763589,35.6653725 145.294837,36.9544415 C144.826084,38.2435104 144.26359,39.4974041 143.607337,40.7161602 C142.997959,41.8880411 142.341715,43.0247485 141.638587,44.1263165 C140.935458,45.2278845 140.326089,46.3880291 139.810462,47.6067852 C139.341709,48.6849156 138.861245,49.7513112 138.369055,50.806004 C137.876865,51.8606967 137.255778,52.8567805 136.505774,53.7942852 C136.130772,54.2630376 135.708902,54.5442847 135.240149,54.6380352 C134.771397,54.7317857 134.31437,54.6966298 133.869055,54.5325665 C133.423741,54.3685031 133.00187,54.0989746 132.60343,53.7239727 C132.204991,53.3489708 131.935462,52.9505373 131.794837,52.5286602 C130.997958,50.3255242 130.412026,48.1107026 130.037024,45.884129 C129.662022,43.6575553 129.16984,41.4192965 128.560462,39.1692852 C128.419836,38.5130319 128.267494,37.8802258 128.10343,37.2708477 C127.939367,36.6614697 127.763588,36.0521008 127.576087,35.4427227 C127.201085,36.5208531 126.790933,37.5755301 126.345618,38.6067852 C125.900303,39.6380404 125.419839,40.6927173 124.904212,41.7708477 C124.341709,42.8489781 123.779214,43.9505296 123.216712,45.0755352 C122.654209,46.2005408 122.068277,47.3020923 121.458899,48.3802227 C120.943272,49.4583531 120.333903,50.4544369 119.630774,51.368504 C118.927646,52.282571 118.083904,53.0677194 117.099524,53.7239727 C116.302645,54.2396003 115.49406,54.2864748 114.673743,53.8645977 C113.853426,53.4427206 113.302651,52.8333517 113.021399,52.0364727 C112.318271,49.9270872 111.685464,47.7825774 111.122962,45.602879 L109.435462,39.0638165 C108.872959,36.8841181 108.287027,34.7278896 107.677649,32.5950665 C107.068271,30.4622433 106.365153,28.3411708 105.568274,26.2317852 C105.287023,25.5286567 105.369053,24.8372574 105.814368,24.1575665 C106.259683,23.4778756 106.810458,23.0208489 107.466712,22.7864727 C108.263591,22.5520965 108.978427,22.6458456 109.611243,23.0677227 C110.244059,23.4895998 110.677648,24.0520942 110.912024,24.7552227 C112.224531,28.1302396 113.302645,31.5286431 114.146399,34.9505352 C114.990153,38.3724273 115.880769,41.8177054 116.818274,45.2864727 L120.263587,38.3958477 C120.826089,37.3177173 121.329991,36.2044472 121.775305,35.056004 C122.22062,33.9075607 122.630772,32.7474161 123.005774,31.5755352 C123.380776,30.4505296 123.732335,29.3255408 124.060462,28.2005352 C124.388588,27.0755296 124.599524,25.9036663 124.693274,24.6849102 C124.740149,23.9349065 125.009678,23.3255376 125.501868,22.8567852 C125.994058,22.3880329 126.556552,22.1067857 127.189368,22.0130352 C127.822184,21.9192847 128.419834,22.0247524 128.982337,22.3294415 C129.544839,22.6341305 129.943273,23.1849062 130.177649,23.9817852 C130.833902,26.3724222 131.513583,28.739586 132.216712,31.0833477 C132.91984,33.4271094 133.552646,35.7942733 134.115149,38.1849102 C134.349525,39.1692901 134.560461,40.1419367 134.747962,41.102879 C134.935463,42.0638213 135.146398,43.0130305 135.380774,43.9505352 C135.896402,42.8255296 136.494052,41.7356967 137.173743,40.681004 C137.853434,39.6263112 138.474521,38.5364783 139.037024,37.4114727 C140.068279,35.3020872 140.970614,33.0872656 141.744055,30.7669415 C142.517497,28.4466174 143.138584,26.1380467 143.607337,23.8411602 C143.747962,23.0442812 144.181552,22.4583496 144.908118,22.0833477 C145.634684,21.7083458 146.349521,21.638034 147.052649,21.8724102 C147.849528,22.1067864 148.412023,22.5520944 148.740149,23.2083477 C149.068276,23.864601 149.162025,24.567719 149.021399,25.3177227 Z" id="Draw" fill="#FFFFFF"></path>
                <path d="M102.865873,95.3805409 C102.631497,98.2399302 101.787755,100.782874 100.334623,103.009447 C98.8814907,105.236021 96.959635,107.122721 94.568998,108.669603 C92.97524,109.653983 91.2643197,110.544599 89.4361855,111.341478 C87.6080514,112.138357 85.7799447,112.747726 83.9518105,113.169603 C82.3111773,113.544605 80.7057246,113.708666 79.1354043,113.661791 C77.5650839,113.614916 75.9830685,113.497729 74.3893105,113.310228 C74.0143086,113.732106 73.557282,114.025071 73.0182168,114.189135 C72.4791516,114.353198 71.9518131,114.364917 71.4361855,114.224291 C70.3580551,113.94304 69.7018117,113.263359 69.4674355,112.185228 C68.9049327,111.622726 68.6236855,110.943045 68.6236855,110.146166 C68.6236855,109.114911 69.0924308,108.294606 70.0299355,107.685228 C70.3111869,105.810219 70.5338409,103.935238 70.6979043,102.060228 C70.8619676,100.185219 70.9908725,98.2868005 71.084623,96.3649159 C71.2252487,94.1149047 71.342435,91.8883645 71.4361855,89.6852284 C71.529936,87.4820924 71.5533732,85.2555522 71.506498,83.0055409 C71.506498,81.5992839 71.4596235,80.1461734 71.365873,78.6461659 C71.2721225,77.1461584 71.225248,75.6578921 71.225248,74.1813222 C71.225248,72.7047523 71.3072784,71.2399232 71.4713418,69.7867909 C71.6354051,68.3336587 71.9752454,66.9274227 72.490873,65.5680409 C72.2564968,64.8180372 72.3033714,64.0446074 72.631498,63.2477284 C72.9596247,62.4508495 73.5924308,61.9586669 74.5299355,61.7711659 C75.0924383,61.1617879 75.7604004,60.8805407 76.5338418,60.9274159 C77.3072831,60.9742912 77.9518079,61.2321011 78.4674355,61.7008534 C80.764322,61.8883544 83.0025809,62.3219438 85.1822793,63.0016347 C87.3619777,63.6813256 89.3658639,64.7711584 91.193998,66.2711659 C93.4440093,68.0524248 95.2486787,70.1969346 96.6080605,72.7047597 C97.9674423,75.2125847 99.0689938,77.8024026 99.912748,80.4742909 C100.28775,81.6461718 100.674465,82.8414723 101.072904,84.0602284 C101.471344,85.2789845 101.822903,86.5211596 102.127592,87.7867909 C102.432281,89.0524223 102.654935,90.3180346 102.795561,91.5836659 C102.936186,92.8492973 102.959623,94.1149096 102.865873,95.3805409 Z M91.1236855,104.169603 C91.7330636,103.794602 92.2838393,103.419605 92.7760293,103.044603 C93.2682192,102.669602 93.7721204,102.224294 94.287748,101.708666 C94.7096251,101.239914 95.0377468,100.864917 95.272123,100.583666 C95.5064992,100.302415 95.7877464,99.8805437 96.115873,99.3180409 C96.912752,97.6774077 97.2877482,95.8258637 97.240873,93.7633534 C97.240873,92.5914726 97.147124,91.5016397 96.959623,90.4938222 C96.7721221,89.4860046 96.4908749,88.3492973 96.115873,87.0836659 C95.7408711,85.7711594 95.3541563,84.4703911 94.9557168,83.1813222 C94.5572773,81.8922532 94.1002506,80.6383595 93.584623,79.4196034 C93.2096211,78.3883483 92.7057199,77.2750782 92.0729043,76.0797597 C91.4400886,74.8844412 90.7955638,73.8883574 90.1393105,73.0914784 C88.4986773,71.1227186 86.6471333,69.704764 84.584623,68.8375722 C82.5221127,67.9703804 80.2721352,67.4664791 77.834623,67.3258534 C77.3189954,68.63836 77.0025924,70.00944 76.8854043,71.4391347 C76.7682162,72.8688293 76.7330603,74.3102212 76.7799355,75.7633534 C76.8268107,77.2164857 76.9088412,78.6695962 77.0260293,80.1227284 C77.1432174,81.5758607 77.1783732,82.9820966 77.131498,84.3414784 C76.9439971,88.3258734 76.7682176,92.263334 76.6041543,96.1539784 C76.4400909,100.044623 76.1002506,103.958646 75.584623,107.896166 C76.4283772,107.989916 77.2838374,108.060228 78.1510293,108.107103 C79.0182211,108.153979 79.8736813,108.130541 80.7174355,108.036791 C82.4986944,107.84929 84.2916452,107.392263 86.0963418,106.665697 C87.9010383,105.939131 89.5768028,105.107108 91.1236855,104.169603 Z M110.318998,84.1305409 C110.365873,83.2399115 110.693995,82.5719494 111.303373,82.1266347 C111.912751,81.68132 112.568994,81.4586659 113.272123,81.4586659 C113.975252,81.4586659 114.596339,81.68132 115.135404,82.1266347 C115.674469,82.5719494 115.920561,83.2399115 115.873686,84.1305409 C115.873686,84.4117923 115.861967,84.7047582 115.838529,85.0094472 C115.815092,85.3141362 115.803373,85.607102 115.803373,85.8883534 C117.303381,85.1383497 118.885396,84.4938249 120.549467,83.9547597 C122.213538,83.4156945 123.877583,83.0758541 125.541654,82.9352284 C127.205725,82.7946027 128.822896,82.9235077 130.393217,83.3219472 C131.963537,83.7203867 133.404929,84.4820978 134.717436,85.6071034 C135.373689,86.2164815 135.666655,86.8727249 135.596342,87.5758534 C135.526029,88.278982 135.244782,88.8766322 134.752592,89.3688222 C134.260402,89.8610121 133.639314,90.1656966 132.889311,90.2828847 C132.139307,90.4000728 131.412752,90.1774187 130.709623,89.6149159 C130.193995,89.1930388 129.619782,88.8883544 128.986967,88.7008534 C128.354151,88.5133525 127.67447,88.4313221 126.947904,88.4547597 C126.221338,88.4781973 125.494783,88.5602277 124.768217,88.7008534 C124.041651,88.8414791 123.350251,89.00554 122.693998,89.1930409 C120.209611,89.9899199 117.889321,91.0445969 115.733061,92.3571034 C115.826811,94.6539899 115.967435,96.950842 116.154936,99.2477284 C116.342436,101.169613 116.506497,103.150062 116.647123,105.189135 C116.787749,107.228207 117.186182,109.161782 117.842436,110.989916 C118.123687,111.83367 118.065094,112.548507 117.666654,113.134447 C117.268215,113.720388 116.729158,114.107102 116.049467,114.294603 C115.369776,114.482104 114.666658,114.43523 113.940092,114.153978 C113.213526,113.872727 112.709624,113.310233 112.428373,112.466478 C112.053371,111.388348 111.795561,110.286797 111.654936,109.161791 L111.233061,105.786791 C111.13931,104.708661 111.033842,103.618828 110.916654,102.51726 C110.799466,101.415692 110.693998,100.325859 110.600248,99.2477284 C110.365872,96.7164658 110.21353,94.1969597 110.143217,91.6891347 C110.072904,89.1813096 110.131497,86.6618036 110.318998,84.1305409 Z M143.858061,110.849291 C142.264303,110.146162 141.010409,109.173516 140.096342,107.931322 C139.182275,106.689128 138.549469,105.318048 138.197904,103.818041 C137.84634,102.318033 137.740872,100.759455 137.881498,99.1422597 C138.022124,97.5250641 138.350245,95.9664859 138.865873,94.4664784 C139.28775,93.2945976 139.768214,92.0758598 140.307279,90.8102284 C140.846344,89.5445971 141.490869,88.3727338 142.240873,87.2946034 C142.990877,86.216473 143.881493,85.2907011 144.912748,84.5172597 C145.944003,83.7438183 147.162741,83.2399171 148.568998,83.0055409 C150.02213,82.7711648 151.486959,82.6891343 152.963529,82.7594472 C154.440099,82.82976 155.904928,82.9821023 157.358061,83.2164784 C158.014314,83.3102289 158.64712,83.4625711 159.256498,83.6735097 C159.865876,83.8844482 160.475245,84.1071023 161.084623,84.3414784 C161.131498,83.6383499 161.447901,83.0524183 162.033842,82.5836659 C162.619782,82.1149136 163.24087,81.8805409 163.897123,81.8805409 C164.694002,81.8805409 165.338527,82.1500695 165.830717,82.6891347 C166.322907,83.2281999 166.615873,83.8727247 166.709623,84.6227284 C166.943999,86.7789892 167.049467,88.9352177 167.026029,91.0914784 C167.002592,93.2477392 166.93228,95.4039677 166.815092,97.5602284 C166.697904,99.7164892 166.604155,101.872718 166.533842,104.028978 C166.463529,106.185239 166.475248,108.341468 166.568998,110.497728 C166.615873,111.388358 166.346345,112.05632 165.760404,112.501635 C165.174464,112.946949 164.529939,113.169603 163.826811,113.169603 C163.123682,113.169603 162.479157,112.946949 161.893217,112.501635 C161.307276,112.05632 160.990873,111.388358 160.943998,110.497728 C158.27211,111.622734 155.436201,112.267259 152.436186,112.431322 C149.436171,112.595386 146.576824,112.068047 143.858061,110.849291 Z M144.350248,95.5914784 C144.068997,96.4352327 143.811187,97.3961605 143.576811,98.4742909 C143.342434,99.5524213 143.272123,100.583661 143.365873,101.568041 C143.459623,102.552421 143.764308,103.454756 144.279936,104.275072 C144.795563,105.095389 145.639305,105.669602 146.811186,105.997728 C149.201822,106.747732 151.604142,106.958668 154.018217,106.630541 C156.432291,106.302414 158.693987,105.458673 160.803373,104.099291 C160.990874,101.802404 161.143216,99.5758642 161.260404,97.4196034 C161.377592,95.2633427 161.412748,93.083677 161.365873,90.8805409 C160.568994,90.3649134 159.760408,89.9078867 158.940092,89.5094472 C158.119775,89.1110077 157.21744,88.8414791 156.233061,88.7008534 C155.248681,88.5602277 154.205722,88.45476 153.104154,88.3844472 C152.002586,88.3141343 150.936191,88.325853 149.904936,88.4196034 C149.811185,88.4196034 149.565094,88.4781966 149.166654,88.5953847 C148.768215,88.7125728 148.545561,88.7946032 148.498686,88.8414784 C148.029933,89.0758546 147.608062,89.4508509 147.233061,89.9664784 C146.623682,90.8102327 146.084625,91.7125674 145.615873,92.6735097 C145.147121,93.634452 144.72525,94.6070985 144.350248,95.5914784 Z M215.998686,85.6774159 C215.717434,86.9899225 215.389312,88.2906907 215.014311,89.5797597 C214.639309,90.8688286 214.217438,92.1461596 213.748686,93.4117909 C213.233058,94.7242975 212.740875,96.0250657 212.272123,97.3141347 C211.803371,98.6032036 211.240876,99.8570973 210.584623,101.075853 C209.975245,102.247734 209.319002,103.384442 208.615873,104.48601 C207.912744,105.587578 207.303376,106.747722 206.787748,107.966478 C206.318996,109.044609 205.838532,110.111004 205.346342,111.165697 C204.854152,112.22039 204.233064,113.216474 203.483061,114.153978 C203.108059,114.622731 202.686188,114.903978 202.217436,114.997728 C201.748683,115.091479 201.291656,115.056323 200.846342,114.89226 C200.401027,114.728196 199.979156,114.458668 199.580717,114.083666 C199.182277,113.708664 198.912749,113.310231 198.772123,112.888353 C197.975244,110.685217 197.389312,108.470396 197.014311,106.243822 C196.639309,104.017249 196.147126,101.77899 195.537748,99.5289784 C195.397122,98.8727252 195.24478,98.239919 195.080717,97.6305409 C194.916653,97.0211629 194.740874,96.411794 194.553373,95.8024159 C194.178371,96.8805463 193.768219,97.9352233 193.322904,98.9664784 C192.87759,99.9977336 192.397126,101.052411 191.881498,102.130541 C191.318995,103.208671 190.756501,104.310223 190.193998,105.435228 C189.631495,106.560234 189.045564,107.661786 188.436186,108.739916 C187.920558,109.818046 187.311189,110.81413 186.608061,111.728197 C185.904932,112.642264 185.06119,113.427413 184.076811,114.083666 C183.279932,114.599294 182.471346,114.646168 181.651029,114.224291 C180.830713,113.802414 180.279937,113.193045 179.998686,112.396166 C179.295557,110.28678 178.662751,108.142271 178.100248,105.962572 L176.412748,99.4235097 C175.850245,97.2438113 175.264314,95.0875829 174.654936,92.9547597 C174.045557,90.8219365 173.342439,88.700864 172.545561,86.5914784 C172.264309,85.8883499 172.34634,85.1969506 172.791654,84.5172597 C173.236969,83.8375688 173.787745,83.3805421 174.443998,83.1461659 C175.240877,82.9117898 175.955714,83.0055388 176.588529,83.4274159 C177.221345,83.849293 177.654934,84.4117874 177.889311,85.1149159 C179.201817,88.4899328 180.279931,91.8883363 181.123686,95.3102284 C181.96744,98.7321205 182.858056,102.177399 183.795561,105.646166 L187.240873,98.7555409 C187.803376,97.6774105 188.307277,96.5641404 188.752592,95.4156972 C189.197906,94.2672539 189.608059,93.1071093 189.983061,91.9352284 C190.358062,90.8102228 190.709621,89.6852341 191.037748,88.5602284 C191.365875,87.4352228 191.57681,86.2633595 191.670561,85.0446034 C191.717436,84.2945997 191.986964,83.6852308 192.479154,83.2164784 C192.971344,82.7477261 193.533839,82.4664789 194.166654,82.3727284 C194.79947,82.278978 195.39712,82.3844457 195.959623,82.6891347 C196.522126,82.9938237 196.920559,83.5445995 197.154936,84.3414784 C197.811189,86.7321154 198.490869,89.0992792 199.193998,91.4430409 C199.897127,93.7868027 200.529933,96.1539665 201.092436,98.5446034 C201.326812,99.5289834 201.537747,100.50163 201.725248,101.462572 C201.912749,102.423514 202.123684,103.372724 202.358061,104.310228 C202.873688,103.185223 203.471338,102.09539 204.151029,101.040697 C204.83072,99.9860044 205.451808,98.8961716 206.014311,97.7711659 C207.045566,95.6617804 207.9479,93.4469588 208.721342,91.1266347 C209.494783,88.8063106 210.115871,86.4977399 210.584623,84.2008534 C210.725249,83.4039745 211.158838,82.8180428 211.885404,82.4430409 C212.61197,82.0680391 213.326807,81.9977273 214.029936,82.2321034 C214.826814,82.4664796 215.389309,82.9117877 215.717436,83.5680409 C216.045562,84.2242942 216.139311,84.9274122 215.998686,85.6774159 Z" id="Draw" fill="#FFFFFF"></path>
                <path d="M181.428705,36.6089123 C183.069241,46.9899355 201.284288,32.7629483 186.574336,26.2338454 C177.471059,22.1933001 162.987861,45.6293989 182.950685,53.6439973 C186.097229,54.9072598 190.228602,56.2127451 193.082588,54.3720722 C197.821267,51.3158704 200.67711,45.785888 203.089777,40.6553284 C204.577083,37.4925561 205.18652,33.6558144 204.431613,30.2382572 C199.148652,6.32162162 152.000261,14.9161278 160.592136,46.8836355 C162.061661,52.3512493 165.196587,57.4872878 169.121226,61.5338086 C172.062551,64.5664784 176.352865,66.0430459 180.373251,67.2790661 C183.837105,68.3439873 187.58206,67.9713595 191.186465,68.3175062" id="Path" stroke="#F733B1" stroke-width="5" stroke-linecap="round" stroke-linejoin="round" fill-rule="nonzero" transform="translate(182.152483, 42.432999) rotate(55.000000) translate(-182.152483, -42.432999) "></path>
                <path d="M42.5949714,71.1818009 C32.6335437,68.3091428 18.889647,64.1472681 11.8164638,75.29626 C4.89544934,86.2053983 5.88019074,107.492606 21.6603846,111.018663 C49.8120955,117.309113 61.1136041,85.2642998 41.1191057,67.3958333" id="Path-2" stroke="#F733B1" stroke-width="5" stroke-linecap="round" stroke-linejoin="round" fill-rule="nonzero" transform="translate(29.480423, 89.610205) rotate(-24.000000) translate(-29.480423, -89.610205) "></path>
                <path d="M20.9752188,82.1657902 C20.9286819,85.8681856 20.882145,89.5705809 20.8356082,93.2729763" id="Path-3" stroke="#F733B1" stroke-width="5" stroke-linecap="round" stroke-linejoin="round" fill-rule="nonzero" transform="translate(20.905413, 87.719383) rotate(-24.000000) translate(-20.905413, -87.719383) "></path>
                <path d="M33.5239852,76.201023 C33.4774483,80.8290171 33.4309114,85.4570113 33.3843745,90.0850055" id="Path-4" stroke="#F733B1" stroke-width="5" stroke-linecap="round" stroke-linejoin="round" fill-rule="nonzero" transform="translate(33.454180, 83.143014) rotate(-24.000000) translate(-33.454180, -83.143014) "></path>
                <path d="M21.7821281,95.6924562 C27.9490476,104.573161 41.2954173,108.776736 45.8476979,95.8109268" id="Path-5" stroke="#F733B1" stroke-width="5" stroke-linecap="round" stroke-linejoin="round" fill-rule="nonzero" transform="translate(33.814913, 99.857651) rotate(-24.000000) translate(-33.814913, -99.857651) "></path>
            </g>
        </g>
    </g>
</svg>