<?xml version="1.0" encoding="UTF-8"?>
<svg width="360px" height="129px" viewBox="0 0 360 129" version="1.1" xmlns="http://www.w3.org/2000/svg" xmlns:xlink="http://www.w3.org/1999/xlink">
    <!-- Generator: Sketch 52.5 (67469) - http://www.bohemiancoding.com/sketch -->
    <title>Group</title>
    <desc>Created with Sketch.</desc>
    <defs>
        <linearGradient x1="0%" y1="6.24500451e-15%" x2="101.999998%" y2="100.999999%" id="linearGradient-1">
            <stop stop-color="#3C2EC2" offset="0%"></stop>
            <stop stop-color="#C86DD7" offset="100%"></stop>
        </linearGradient>
    </defs>
    <g id="Page-1" stroke="none" stroke-width="1" fill="none" fill-rule="evenodd">
        <g id="Group" transform="translate(-35.000000, -38.000000)">
            <rect id="Rectangle" fill-rule="nonzero" x="0" y="0" width="430" height="205"></rect>
            <g id="Group-2" transform="translate(35.000000, 38.000000)" fill="url(#linearGradient-1)">
                <path d="M42.0898438,39.765625 L44.6210938,34.984375 L44.6210938,61 L42.0898438,61 L42.0898438,39.765625 Z M47.1523438,30.0625 L49.6835938,25.28125 L49.6835938,61 L47.1523438,61 L47.1523438,30.0625 Z M52.2148438,20.5 L54.7460938,15.6835938 L54.7460938,61 L52.2148438,61 L52.2148438,20.5 Z M35.234375,38.5703125 L33.7929688,35.9335938 L51.2304688,2.78125 L54.078125,2.78125 L35.234375,38.5703125 Z M32.3164062,33.0507812 L30.8398438,30.3789062 L45.4648438,2.78125 L48.3476562,2.78125 L32.3164062,33.0507812 Z M15.3710938,35.265625 L17.9023438,40.046875 L17.9023438,61 L15.3710938,61 L15.3710938,35.265625 Z M10.3085938,25.6328125 L12.8398438,30.4140625 L12.8398438,61 L10.3085938,61 L10.3085938,25.6328125 Z M5.24609375,16 L7.77734375,20.8164062 L7.77734375,61 L5.24609375,61 L5.24609375,16 Z M25.7070312,45.8125 L22.859375,45.8125 L2.71484375,7.59765625 L2.71484375,61 L0.18359375,61 L0.18359375,2.78125 L3.03125,2.78125 L25.7070312,45.8125 Z M31.4375,45.8125 L28.5546875,45.8125 L5.9140625,2.78125 L8.796875,2.78125 L31.4375,45.8125 Z M57.2773438,7.59765625 L37.1328125,45.8125 L34.25,45.8125 L11.6445312,2.78125 L14.4921875,2.78125 L35.7265625,43.140625 L56.9257812,2.78125 L59.8085938,2.78125 L59.8085938,61 L57.2773438,61 L57.2773438,7.59765625 Z M81.6757812,2.78125 L84.2070312,2.78125 L84.2070312,61 L81.6757812,61 L81.6757812,2.78125 Z M76.6132812,2.78125 L79.1445312,2.78125 L79.1445312,61 L76.6132812,61 L76.6132812,2.78125 Z M71.5507812,2.78125 L74.0820312,2.78125 L74.0820312,61 L71.5507812,61 L71.5507812,2.78125 Z M66.4882812,2.78125 L69.0195312,2.78125 L69.0195312,61 L66.4882812,61 L66.4882812,2.78125 Z M110.011719,32.03125 L125.269531,32.03125 C127.589855,32.03125 129.552726,31.2812575 131.158203,29.78125 C132.76368,28.2812425 133.566406,26.1484513 133.566406,23.3828125 C133.566406,21.3437398 132.722665,19.5097738 131.035156,17.8808594 C129.347648,16.251945 127.425792,15.4375 125.269531,15.4375 L103.542969,15.4375 L103.542969,61 L101.011719,61 L101.011719,12.90625 L125.269531,12.90625 C128.128921,12.90625 130.648427,13.9667863 132.828125,16.0878906 C135.007823,18.208995 136.097656,20.6406113 136.097656,23.3828125 C136.097656,26.7578294 135.042979,29.4648336 132.933594,31.5039062 C130.824208,33.5429789 128.269546,34.5625 125.269531,34.5625 L110.011719,34.5625 L110.011719,32.03125 Z M110.011719,37.09375 L125.269531,37.09375 C128.9258,37.09375 132.066393,35.8105597 134.691406,33.2441406 C137.316419,30.6777215 138.628906,27.390645 138.628906,23.3828125 C138.628906,19.9374828 137.287123,16.9082162 134.603516,14.2949219 C131.919908,11.6816276 128.808611,10.375 125.269531,10.375 L98.4804688,10.375 L98.4804688,61 L95.9492188,61 L95.9492188,7.84375 L125.269531,7.84375 C128.058608,7.84375 130.677722,8.5585866 133.126953,9.98828125 C135.576184,11.4179759 137.527336,13.3339724 138.980469,15.7363281 C140.433601,18.1386839 141.160156,20.6874865 141.160156,23.3828125 C141.160156,28.0000231 139.595719,31.8613126 136.466797,34.9667969 C133.337875,38.0722812 129.60549,39.625 125.269531,39.625 L110.011719,39.625 L110.011719,37.09375 Z M110.011719,42.15625 L125.269531,42.15625 C128.550798,42.15625 131.597642,41.3476643 134.410156,39.7304688 C137.22267,38.1132732 139.472648,35.8574363 141.160156,32.9628906 C142.847665,30.0683449 143.691406,26.8750175 143.691406,23.3828125 C143.691406,20.2187342 142.853524,17.2480608 141.177734,14.4707031 C139.501945,11.6933455 137.246108,9.47266457 134.410156,7.80859375 C131.574205,6.14452293 128.52736,5.3125 125.269531,5.3125 L93.4179688,5.3125 L93.4179688,61 L90.8867188,61 L90.8867188,2.78125 L125.269531,2.78125 C128.949237,2.78125 132.406234,3.72459994 135.640625,5.61132812 C138.875016,7.49805631 141.447256,10.029281 143.357422,13.2050781 C145.267588,16.3808753 146.222656,19.7734195 146.222656,23.3828125 C146.222656,27.5547084 145.326181,31.2226404 143.533203,34.3867188 C141.740225,37.5507971 139.308609,40.0234286 136.238281,41.8046875 L142.777344,61 L140.105469,61 L133.847656,43 C132.910152,43.3750019 132.195315,43.6328118 131.703125,43.7734375 L137.574219,61 L134.902344,61 L129.171875,44.3710938 C128.960936,44.417969 128.210944,44.4999994 126.921875,44.6171875 L132.371094,61 L129.699219,61 L124.320312,44.6875 L122.035156,44.6875 L127.167969,61 L124.496094,61 L119.328125,44.6875 L110.011719,44.6875 L110.011719,42.15625 Z M108.605469,61 L106.074219,61 L106.074219,17.96875 L125.269531,17.96875 C126.839852,17.96875 128.193354,18.5019478 129.330078,19.5683594 C130.466803,20.634771 131.035156,21.9062426 131.035156,23.3828125 C131.035156,27.4609579 129.1133,29.5 125.269531,29.5 L110.011719,29.5 L110.011719,26.96875 L125.269531,26.96875 C126.277349,26.96875 127.068357,26.7050808 127.642578,26.1777344 C128.2168,25.650388 128.503906,24.7187567 128.503906,23.3828125 C128.503906,22.5624959 128.193362,21.8769559 127.572266,21.3261719 C126.951169,20.7753879 126.183598,20.5 125.269531,20.5 L108.605469,20.5 L108.605469,61 Z M170.761719,32.03125 L186.019531,32.03125 C188.339855,32.03125 190.302726,31.2812575 191.908203,29.78125 C193.51368,28.2812425 194.316406,26.1484513 194.316406,23.3828125 C194.316406,21.3437398 193.472665,19.5097738 191.785156,17.8808594 C190.097648,16.251945 188.175792,15.4375 186.019531,15.4375 L164.292969,15.4375 L164.292969,61 L161.761719,61 L161.761719,12.90625 L186.019531,12.90625 C188.878921,12.90625 191.398427,13.9667863 193.578125,16.0878906 C195.757823,18.208995 196.847656,20.6406113 196.847656,23.3828125 C196.847656,26.7578294 195.792979,29.4648336 193.683594,31.5039062 C191.574208,33.5429789 189.019546,34.5625 186.019531,34.5625 L170.761719,34.5625 L170.761719,32.03125 Z M170.761719,37.09375 L186.019531,37.09375 C189.6758,37.09375 192.816393,35.8105597 195.441406,33.2441406 C198.066419,30.6777215 199.378906,27.390645 199.378906,23.3828125 C199.378906,19.9374828 198.037123,16.9082162 195.353516,14.2949219 C192.669908,11.6816276 189.558611,10.375 186.019531,10.375 L159.230469,10.375 L159.230469,61 L156.699219,61 L156.699219,7.84375 L186.019531,7.84375 C188.808608,7.84375 191.427722,8.5585866 193.876953,9.98828125 C196.326184,11.4179759 198.277336,13.3339724 199.730469,15.7363281 C201.183601,18.1386839 201.910156,20.6874865 201.910156,23.3828125 C201.910156,28.0000231 200.345719,31.8613126 197.216797,34.9667969 C194.087875,38.0722812 190.35549,39.625 186.019531,39.625 L170.761719,39.625 L170.761719,37.09375 Z M170.761719,42.15625 L186.019531,42.15625 C189.300798,42.15625 192.347642,41.3476643 195.160156,39.7304688 C197.97267,38.1132732 200.222648,35.8574363 201.910156,32.9628906 C203.597665,30.0683449 204.441406,26.8750175 204.441406,23.3828125 C204.441406,20.2187342 203.603524,17.2480608 201.927734,14.4707031 C200.251945,11.6933455 197.996108,9.47266457 195.160156,7.80859375 C192.324205,6.14452293 189.27736,5.3125 186.019531,5.3125 L154.167969,5.3125 L154.167969,61 L151.636719,61 L151.636719,2.78125 L186.019531,2.78125 C189.699237,2.78125 193.156234,3.72459994 196.390625,5.61132812 C199.625016,7.49805631 202.197256,10.029281 204.107422,13.2050781 C206.017588,16.3808753 206.972656,19.7734195 206.972656,23.3828125 C206.972656,27.5547084 206.076181,31.2226404 204.283203,34.3867188 C202.490225,37.5507971 200.058609,40.0234286 196.988281,41.8046875 L203.527344,61 L200.855469,61 L194.597656,43 C193.660152,43.3750019 192.945315,43.6328118 192.453125,43.7734375 L198.324219,61 L195.652344,61 L189.921875,44.3710938 C189.710936,44.417969 188.960944,44.4999994 187.671875,44.6171875 L193.121094,61 L190.449219,61 L185.070312,44.6875 L182.785156,44.6875 L187.917969,61 L185.246094,61 L180.078125,44.6875 L170.761719,44.6875 L170.761719,42.15625 Z M169.355469,61 L166.824219,61 L166.824219,17.96875 L186.019531,17.96875 C187.589852,17.96875 188.943354,18.5019478 190.080078,19.5683594 C191.216803,20.634771 191.785156,21.9062426 191.785156,23.3828125 C191.785156,27.4609579 189.8633,29.5 186.019531,29.5 L170.761719,29.5 L170.761719,26.96875 L186.019531,26.96875 C187.027349,26.96875 187.818357,26.7050808 188.392578,26.1777344 C188.9668,25.650388 189.253906,24.7187567 189.253906,23.3828125 C189.253906,22.5624959 188.943362,21.8769559 188.322266,21.3261719 C187.701169,20.7753879 186.933598,20.5 186.019531,20.5 L169.355469,20.5 L169.355469,61 Z M232.882812,22.046875 C230.164049,24.7656386 228.804688,28.0468558 228.804688,31.890625 C228.804688,35.7343942 230.164049,39.0156114 232.882812,41.734375 C235.601576,44.4531386 238.882793,45.8125 242.726562,45.8125 C246.570332,45.8125 249.851549,44.4531386 252.570312,41.734375 C255.289076,39.0156114 256.648438,35.7343942 256.648438,31.890625 C256.648438,28.0468558 255.289076,24.7656386 252.570312,22.046875 C249.851549,19.3281114 246.570332,17.96875 242.726562,17.96875 C238.882793,17.96875 235.601576,19.3281114 232.882812,22.046875 Z M227.574219,38.2890625 C226.707027,36.2499898 226.273438,34.1171986 226.273438,31.890625 C226.273438,29.6640514 226.707027,27.5371195 227.574219,25.5097656 C228.441411,23.4824117 229.613274,21.7304761 231.089844,20.2539062 C232.566414,18.7773364 234.318349,17.6054731 236.345703,16.7382812 C238.373057,15.8710894 240.499989,15.4375 242.726562,15.4375 C244.953136,15.4375 247.080068,15.8710894 249.107422,16.7382812 C251.134776,17.6054731 252.886711,18.7773364 254.363281,20.2539062 C255.839851,21.7304761 257.011714,23.4824117 257.878906,25.5097656 C258.746098,27.5371195 259.179688,29.6640514 259.179688,31.890625 C259.179688,34.1171986 258.746098,36.2441305 257.878906,38.2714844 C257.011714,40.2988383 255.839851,42.0507739 254.363281,43.5273438 C252.886711,45.0039136 251.134776,46.1757769 249.107422,47.0429688 C247.080068,47.9101606 244.953136,48.34375 242.726562,48.34375 C240.499989,48.34375 238.373057,47.9101606 236.345703,47.0429688 C234.318349,46.1757769 232.566414,45.0039136 231.089844,43.5273438 C229.613274,42.0507739 228.441411,40.3046976 227.574219,38.2890625 Z M226.273438,22.3632812 C224.585929,25.2695458 223.742188,28.4452953 223.742188,31.890625 C223.742188,35.3359547 224.591788,38.5117042 226.291016,41.4179688 C227.990243,44.3242333 230.292954,46.6269446 233.199219,48.3261719 C236.105483,50.0253991 239.281233,50.875 242.726562,50.875 C246.171892,50.875 249.347642,50.0253991 252.253906,48.3261719 C255.160171,46.6269446 257.462882,44.3242333 259.162109,41.4179688 C260.861337,38.5117042 261.710938,35.3359547 261.710938,31.890625 C261.710938,28.4452953 260.861337,25.2695458 259.162109,22.3632812 C257.462882,19.4570167 255.160171,17.1543054 252.253906,15.4550781 C249.347642,13.7558509 246.171892,12.90625 242.726562,12.90625 C239.281233,12.90625 236.105483,13.7558509 233.199219,15.4550781 C230.292954,17.1543054 227.984384,19.4570167 226.273438,22.3632812 Z M224.09375,42.6835938 C222.171865,39.3788897 221.210938,35.7812695 221.210938,31.890625 C221.210938,27.9999805 222.171865,24.4023603 224.09375,21.0976562 C226.015635,17.7929522 228.62889,15.1796971 231.933594,13.2578125 C235.238298,11.3359279 238.835918,10.375 242.726562,10.375 C246.617207,10.375 250.214827,11.3359279 253.519531,13.2578125 C256.824235,15.1796971 259.43749,17.7929522 261.359375,21.0976562 C263.28126,24.4023603 264.242188,27.9999805 264.242188,31.890625 C264.242188,35.7812695 263.28126,39.3788897 261.359375,42.6835938 C259.43749,45.9882978 256.824235,48.6015529 253.519531,50.5234375 C250.214827,52.4453221 246.617207,53.40625 242.726562,53.40625 C238.835918,53.40625 235.238298,52.4453221 231.933594,50.5234375 C228.62889,48.6015529 226.015635,45.9882978 224.09375,42.6835938 Z M220.578125,22.5390625 C219.312494,25.5156399 218.679688,28.6327962 218.679688,31.890625 C218.679688,35.1484538 219.312494,38.2656101 220.578125,41.2421875 C221.843756,44.2187649 223.548817,46.7792862 225.693359,48.9238281 C227.837901,51.0683701 230.398423,52.7734312 233.375,54.0390625 C236.351577,55.3046938 239.468734,55.9375 242.726562,55.9375 C245.984391,55.9375 249.101548,55.3046938 252.078125,54.0390625 C255.054702,52.7734312 257.615224,51.0683701 259.759766,48.9238281 C261.904308,46.7792862 263.609369,44.2187649 264.875,41.2421875 C266.140631,38.2656101 266.773438,35.1484538 266.773438,31.890625 C266.773438,28.6327962 266.140631,25.5156399 264.875,22.5390625 C263.609369,19.5624851 261.904308,17.0019638 259.759766,14.8574219 C257.615224,12.7128799 255.054702,11.0078188 252.078125,9.7421875 C249.101548,8.47655617 245.984391,7.84375 242.726562,7.84375 C239.468734,7.84375 236.351577,8.47655617 233.375,9.7421875 C230.398423,11.0078188 227.837901,12.7128799 225.693359,14.8574219 C223.548817,17.0019638 221.843756,19.5624851 220.578125,22.5390625 Z M219.699219,45.2148438 C217.332019,41.1366984 216.148438,36.6953365 216.148438,31.890625 C216.148438,27.0859135 217.337879,22.6445516 219.716797,18.5664062 C222.095715,14.4882609 225.324198,11.2597775 229.402344,8.88085938 C233.480489,6.50194123 237.921851,5.3125 242.726562,5.3125 C247.531274,5.3125 251.972636,6.50194123 256.050781,8.88085938 C260.128927,11.2597775 263.35741,14.4882609 265.736328,18.5664062 C268.115246,22.6445516 269.304688,27.0859135 269.304688,31.890625 C269.304688,36.6953365 268.115246,41.1366984 265.736328,45.2148438 C263.35741,49.2929891 260.128927,52.5214725 256.050781,54.9003906 C251.972636,57.2793088 247.531274,58.46875 242.726562,58.46875 C237.921851,58.46875 233.480489,57.2793088 229.402344,54.9003906 C225.324198,52.5214725 222.089856,49.2929891 219.699219,45.2148438 Z M215.902344,20.6054688 C214.378899,24.1914242 213.617188,27.9531053 213.617188,31.890625 C213.617188,35.8281447 214.384758,39.5956851 215.919922,43.1933594 C217.455086,46.7910336 219.523424,49.890612 222.125,52.4921875 C224.726576,55.093763 227.826154,57.1621017 231.423828,58.6972656 C235.021502,60.2324296 238.789043,61 242.726562,61 C246.664082,61 250.431623,60.2324296 254.029297,58.6972656 C257.626971,57.1621017 260.726549,55.093763 263.328125,52.4921875 C265.929701,49.890612 267.998039,46.7910336 269.533203,43.1933594 C271.068367,39.5956851 271.835938,35.8281447 271.835938,31.890625 C271.835938,27.9531053 271.068367,24.1855649 269.533203,20.5878906 C267.998039,16.9902164 265.929701,13.890638 263.328125,11.2890625 C260.726549,8.68748699 257.626971,6.6191483 254.029297,5.08398438 C250.431623,3.54882045 246.664082,2.78125 242.726562,2.78125 C238.789043,2.78125 235.021502,3.54882045 231.423828,5.08398438 C227.826154,6.6191483 224.726576,8.68748699 222.125,11.2890625 C219.523424,13.890638 217.449226,16.9960757 215.902344,20.6054688 Z M213.582031,44.1953125 C211.91796,40.2812304 211.085938,36.1797089 211.085938,31.890625 C211.085938,27.6015411 211.92382,23.5058789 213.599609,19.6035156 C215.275399,15.7011524 217.525377,12.3379047 220.349609,9.51367188 C223.173842,6.689439 226.53709,4.4394615 230.439453,2.76367188 C234.341816,1.08788225 238.437479,0.25 242.726562,0.25 C247.015646,0.25 251.111309,1.08788225 255.013672,2.76367188 C258.916035,4.4394615 262.279283,6.689439 265.103516,9.51367188 C267.927748,12.3379047 270.177726,15.7011524 271.853516,19.6035156 C273.529305,23.5058789 274.367188,27.6015411 274.367188,31.890625 C274.367188,36.1797089 273.529305,40.2753711 271.853516,44.1777344 C270.177726,48.0800976 267.927748,51.4433453 265.103516,54.2675781 C262.279283,57.091811 258.916035,59.3417885 255.013672,61.0175781 C251.111309,62.6933678 247.015646,63.53125 242.726562,63.53125 C238.437479,63.53125 234.341816,62.6933678 230.439453,61.0175781 C226.53709,59.3417885 223.173842,57.091811 220.349609,54.2675781 C217.525377,51.4433453 215.26954,48.085957 213.582031,44.1953125 Z M298.730469,32.03125 L313.988281,32.03125 C316.308605,32.03125 318.271476,31.2812575 319.876953,29.78125 C321.48243,28.2812425 322.285156,26.1484513 322.285156,23.3828125 C322.285156,21.3437398 321.441415,19.5097738 319.753906,17.8808594 C318.066398,16.251945 316.144542,15.4375 313.988281,15.4375 L292.261719,15.4375 L292.261719,61 L289.730469,61 L289.730469,12.90625 L313.988281,12.90625 C316.847671,12.90625 319.367177,13.9667863 321.546875,16.0878906 C323.726573,18.208995 324.816406,20.6406113 324.816406,23.3828125 C324.816406,26.7578294 323.761729,29.4648336 321.652344,31.5039062 C319.542958,33.5429789 316.988296,34.5625 313.988281,34.5625 L298.730469,34.5625 L298.730469,32.03125 Z M298.730469,37.09375 L313.988281,37.09375 C317.64455,37.09375 320.785143,35.8105597 323.410156,33.2441406 C326.035169,30.6777215 327.347656,27.390645 327.347656,23.3828125 C327.347656,19.9374828 326.005873,16.9082162 323.322266,14.2949219 C320.638658,11.6816276 317.527361,10.375 313.988281,10.375 L287.199219,10.375 L287.199219,61 L284.667969,61 L284.667969,7.84375 L313.988281,7.84375 C316.777358,7.84375 319.396472,8.5585866 321.845703,9.98828125 C324.294934,11.4179759 326.246086,13.3339724 327.699219,15.7363281 C329.152351,18.1386839 329.878906,20.6874865 329.878906,23.3828125 C329.878906,28.0000231 328.314469,31.8613126 325.185547,34.9667969 C322.056625,38.0722812 318.32424,39.625 313.988281,39.625 L298.730469,39.625 L298.730469,37.09375 Z M298.730469,42.15625 L313.988281,42.15625 C317.269548,42.15625 320.316392,41.3476643 323.128906,39.7304688 C325.94142,38.1132732 328.191398,35.8574363 329.878906,32.9628906 C331.566415,30.0683449 332.410156,26.8750175 332.410156,23.3828125 C332.410156,20.2187342 331.572274,17.2480608 329.896484,14.4707031 C328.220695,11.6933455 325.964858,9.47266457 323.128906,7.80859375 C320.292955,6.14452293 317.24611,5.3125 313.988281,5.3125 L282.136719,5.3125 L282.136719,61 L279.605469,61 L279.605469,2.78125 L313.988281,2.78125 C317.667987,2.78125 321.124984,3.72459994 324.359375,5.61132812 C327.593766,7.49805631 330.166006,10.029281 332.076172,13.2050781 C333.986338,16.3808753 334.941406,19.7734195 334.941406,23.3828125 C334.941406,27.5547084 334.044931,31.2226404 332.251953,34.3867188 C330.458975,37.5507971 328.027359,40.0234286 324.957031,41.8046875 L331.496094,61 L328.824219,61 L322.566406,43 C321.628902,43.3750019 320.914065,43.6328118 320.421875,43.7734375 L326.292969,61 L323.621094,61 L317.890625,44.3710938 C317.679686,44.417969 316.929694,44.4999994 315.640625,44.6171875 L321.089844,61 L318.417969,61 L313.039062,44.6875 L310.753906,44.6875 L315.886719,61 L313.214844,61 L308.046875,44.6875 L298.730469,44.6875 L298.730469,42.15625 Z M297.324219,61 L294.792969,61 L294.792969,17.96875 L313.988281,17.96875 C315.558602,17.96875 316.912104,18.5019478 318.048828,19.5683594 C319.185553,20.634771 319.753906,21.9062426 319.753906,23.3828125 C319.753906,27.4609579 317.83205,29.5 313.988281,29.5 L298.730469,29.5 L298.730469,26.96875 L313.988281,26.96875 C314.996099,26.96875 315.787107,26.7050808 316.361328,26.1777344 C316.93555,25.650388 317.222656,24.7187567 317.222656,23.3828125 C317.222656,22.5624959 316.912112,21.8769559 316.291016,21.3261719 C315.669919,20.7753879 314.902348,20.5 313.988281,20.5 L297.324219,20.5 L297.324219,61 Z M67.0898438,104.765625 L69.6210938,99.984375 L69.6210938,126 L67.0898438,126 L67.0898438,104.765625 Z M72.1523438,95.0625 L74.6835938,90.28125 L74.6835938,126 L72.1523438,126 L72.1523438,95.0625 Z M77.2148438,85.5 L79.7460938,80.6835938 L79.7460938,126 L77.2148438,126 L77.2148438,85.5 Z M60.234375,103.570312 L58.7929688,100.933594 L76.2304688,67.78125 L79.078125,67.78125 L60.234375,103.570312 Z M57.3164062,98.0507812 L55.8398438,95.3789062 L70.4648438,67.78125 L73.3476562,67.78125 L57.3164062,98.0507812 Z M40.3710938,100.265625 L42.9023438,105.046875 L42.9023438,126 L40.3710938,126 L40.3710938,100.265625 Z M35.3085938,90.6328125 L37.8398438,95.4140625 L37.8398438,126 L35.3085938,126 L35.3085938,90.6328125 Z M30.2460938,81 L32.7773438,85.8164062 L32.7773438,126 L30.2460938,126 L30.2460938,81 Z M50.7070312,110.8125 L47.859375,110.8125 L27.7148438,72.5976562 L27.7148438,126 L25.1835938,126 L25.1835938,67.78125 L28.03125,67.78125 L50.7070312,110.8125 Z M56.4375,110.8125 L53.5546875,110.8125 L30.9140625,67.78125 L33.796875,67.78125 L56.4375,110.8125 Z M82.2773438,72.5976562 L62.1328125,110.8125 L59.25,110.8125 L36.6445312,67.78125 L39.4921875,67.78125 L60.7265625,108.140625 L81.9257812,67.78125 L84.8085938,67.78125 L84.8085938,126 L82.2773438,126 L82.2773438,72.5976562 Z M106.675781,67.78125 L109.207031,67.78125 L109.207031,126 L106.675781,126 L106.675781,67.78125 Z M101.613281,67.78125 L104.144531,67.78125 L104.144531,126 L101.613281,126 L101.613281,67.78125 Z M96.5507812,67.78125 L99.0820312,67.78125 L99.0820312,126 L96.5507812,126 L96.5507812,67.78125 Z M91.4882812,67.78125 L94.0195312,67.78125 L94.0195312,126 L91.4882812,126 L91.4882812,67.78125 Z M135.011719,97.03125 L150.269531,97.03125 C152.589855,97.03125 154.552726,96.2812575 156.158203,94.78125 C157.76368,93.2812425 158.566406,91.1484513 158.566406,88.3828125 C158.566406,86.3437398 157.722665,84.5097738 156.035156,82.8808594 C154.347648,81.251945 152.425792,80.4375 150.269531,80.4375 L128.542969,80.4375 L128.542969,126 L126.011719,126 L126.011719,77.90625 L150.269531,77.90625 C153.128921,77.90625 155.648427,78.9667863 157.828125,81.0878906 C160.007823,83.208995 161.097656,85.6406113 161.097656,88.3828125 C161.097656,91.7578294 160.042979,94.4648336 157.933594,96.5039062 C155.824208,98.5429789 153.269546,99.5625 150.269531,99.5625 L135.011719,99.5625 L135.011719,97.03125 Z M135.011719,102.09375 L150.269531,102.09375 C153.9258,102.09375 157.066393,100.81056 159.691406,98.2441406 C162.316419,95.6777215 163.628906,92.390645 163.628906,88.3828125 C163.628906,84.9374828 162.287123,81.9082162 159.603516,79.2949219 C156.919908,76.6816276 153.808611,75.375 150.269531,75.375 L123.480469,75.375 L123.480469,126 L120.949219,126 L120.949219,72.84375 L150.269531,72.84375 C153.058608,72.84375 155.677722,73.5585866 158.126953,74.9882812 C160.576184,76.4179759 162.527336,78.3339724 163.980469,80.7363281 C165.433601,83.1386839 166.160156,85.6874865 166.160156,88.3828125 C166.160156,93.0000231 164.595719,96.8613126 161.466797,99.9667969 C158.337875,103.072281 154.60549,104.625 150.269531,104.625 L135.011719,104.625 L135.011719,102.09375 Z M135.011719,107.15625 L150.269531,107.15625 C153.550798,107.15625 156.597642,106.347664 159.410156,104.730469 C162.22267,103.113273 164.472648,100.857436 166.160156,97.9628906 C167.847665,95.0683449 168.691406,91.8750175 168.691406,88.3828125 C168.691406,85.2187342 167.853524,82.2480608 166.177734,79.4707031 C164.501945,76.6933455 162.246108,74.4726646 159.410156,72.8085938 C156.574205,71.1445229 153.52736,70.3125 150.269531,70.3125 L118.417969,70.3125 L118.417969,126 L115.886719,126 L115.886719,67.78125 L150.269531,67.78125 C153.949237,67.78125 157.406234,68.7245999 160.640625,70.6113281 C163.875016,72.4980563 166.447256,75.029281 168.357422,78.2050781 C170.267588,81.3808753 171.222656,84.7734195 171.222656,88.3828125 C171.222656,92.5547084 170.326181,96.2226404 168.533203,99.3867188 C166.740225,102.550797 164.308609,105.023429 161.238281,106.804688 L167.777344,126 L165.105469,126 L158.847656,108 C157.910152,108.375002 157.195315,108.632812 156.703125,108.773438 L162.574219,126 L159.902344,126 L154.171875,109.371094 C153.960936,109.417969 153.210944,109.499999 151.921875,109.617188 L157.371094,126 L154.699219,126 L149.320312,109.6875 L147.035156,109.6875 L152.167969,126 L149.496094,126 L144.328125,109.6875 L135.011719,109.6875 L135.011719,107.15625 Z M133.605469,126 L131.074219,126 L131.074219,82.96875 L150.269531,82.96875 C151.839852,82.96875 153.193354,83.5019478 154.330078,84.5683594 C155.466803,85.634771 156.035156,86.9062426 156.035156,88.3828125 C156.035156,92.4609579 154.1133,94.5 150.269531,94.5 L135.011719,94.5 L135.011719,91.96875 L150.269531,91.96875 C151.277349,91.96875 152.068357,91.7050808 152.642578,91.1777344 C153.2168,90.650388 153.503906,89.7187567 153.503906,88.3828125 C153.503906,87.5624959 153.193362,86.8769559 152.572266,86.3261719 C151.951169,85.7753879 151.183598,85.5 150.269531,85.5 L133.605469,85.5 L133.605469,126 Z M195.761719,97.03125 L211.019531,97.03125 C213.339855,97.03125 215.302726,96.2812575 216.908203,94.78125 C218.51368,93.2812425 219.316406,91.1484513 219.316406,88.3828125 C219.316406,86.3437398 218.472665,84.5097738 216.785156,82.8808594 C215.097648,81.251945 213.175792,80.4375 211.019531,80.4375 L189.292969,80.4375 L189.292969,126 L186.761719,126 L186.761719,77.90625 L211.019531,77.90625 C213.878921,77.90625 216.398427,78.9667863 218.578125,81.0878906 C220.757823,83.208995 221.847656,85.6406113 221.847656,88.3828125 C221.847656,91.7578294 220.792979,94.4648336 218.683594,96.5039062 C216.574208,98.5429789 214.019546,99.5625 211.019531,99.5625 L195.761719,99.5625 L195.761719,97.03125 Z M195.761719,102.09375 L211.019531,102.09375 C214.6758,102.09375 217.816393,100.81056 220.441406,98.2441406 C223.066419,95.6777215 224.378906,92.390645 224.378906,88.3828125 C224.378906,84.9374828 223.037123,81.9082162 220.353516,79.2949219 C217.669908,76.6816276 214.558611,75.375 211.019531,75.375 L184.230469,75.375 L184.230469,126 L181.699219,126 L181.699219,72.84375 L211.019531,72.84375 C213.808608,72.84375 216.427722,73.5585866 218.876953,74.9882812 C221.326184,76.4179759 223.277336,78.3339724 224.730469,80.7363281 C226.183601,83.1386839 226.910156,85.6874865 226.910156,88.3828125 C226.910156,93.0000231 225.345719,96.8613126 222.216797,99.9667969 C219.087875,103.072281 215.35549,104.625 211.019531,104.625 L195.761719,104.625 L195.761719,102.09375 Z M195.761719,107.15625 L211.019531,107.15625 C214.300798,107.15625 217.347642,106.347664 220.160156,104.730469 C222.97267,103.113273 225.222648,100.857436 226.910156,97.9628906 C228.597665,95.0683449 229.441406,91.8750175 229.441406,88.3828125 C229.441406,85.2187342 228.603524,82.2480608 226.927734,79.4707031 C225.251945,76.6933455 222.996108,74.4726646 220.160156,72.8085938 C217.324205,71.1445229 214.27736,70.3125 211.019531,70.3125 L179.167969,70.3125 L179.167969,126 L176.636719,126 L176.636719,67.78125 L211.019531,67.78125 C214.699237,67.78125 218.156234,68.7245999 221.390625,70.6113281 C224.625016,72.4980563 227.197256,75.029281 229.107422,78.2050781 C231.017588,81.3808753 231.972656,84.7734195 231.972656,88.3828125 C231.972656,92.5547084 231.076181,96.2226404 229.283203,99.3867188 C227.490225,102.550797 225.058609,105.023429 221.988281,106.804688 L228.527344,126 L225.855469,126 L219.597656,108 C218.660152,108.375002 217.945315,108.632812 217.453125,108.773438 L223.324219,126 L220.652344,126 L214.921875,109.371094 C214.710936,109.417969 213.960944,109.499999 212.671875,109.617188 L218.121094,126 L215.449219,126 L210.070312,109.6875 L207.785156,109.6875 L212.917969,126 L210.246094,126 L205.078125,109.6875 L195.761719,109.6875 L195.761719,107.15625 Z M194.355469,126 L191.824219,126 L191.824219,82.96875 L211.019531,82.96875 C212.589852,82.96875 213.943354,83.5019478 215.080078,84.5683594 C216.216803,85.634771 216.785156,86.9062426 216.785156,88.3828125 C216.785156,92.4609579 214.8633,94.5 211.019531,94.5 L195.761719,94.5 L195.761719,91.96875 L211.019531,91.96875 C212.027349,91.96875 212.818357,91.7050808 213.392578,91.1777344 C213.9668,90.650388 214.253906,89.7187567 214.253906,88.3828125 C214.253906,87.5624959 213.943362,86.8769559 213.322266,86.3261719 C212.701169,85.7753879 211.933598,85.5 211.019531,85.5 L194.355469,85.5 L194.355469,126 Z M257.882812,87.046875 C255.164049,89.7656386 253.804688,93.0468558 253.804688,96.890625 C253.804688,100.734394 255.164049,104.015611 257.882812,106.734375 C260.601576,109.453139 263.882793,110.8125 267.726562,110.8125 C271.570332,110.8125 274.851549,109.453139 277.570312,106.734375 C280.289076,104.015611 281.648438,100.734394 281.648438,96.890625 C281.648438,93.0468558 280.289076,89.7656386 277.570312,87.046875 C274.851549,84.3281114 271.570332,82.96875 267.726562,82.96875 C263.882793,82.96875 260.601576,84.3281114 257.882812,87.046875 Z M252.574219,103.289062 C251.707027,101.24999 251.273438,99.1171986 251.273438,96.890625 C251.273438,94.6640514 251.707027,92.5371195 252.574219,90.5097656 C253.441411,88.4824117 254.613274,86.7304761 256.089844,85.2539062 C257.566414,83.7773364 259.318349,82.6054731 261.345703,81.7382812 C263.373057,80.8710894 265.499989,80.4375 267.726562,80.4375 C269.953136,80.4375 272.080068,80.8710894 274.107422,81.7382812 C276.134776,82.6054731 277.886711,83.7773364 279.363281,85.2539062 C280.839851,86.7304761 282.011714,88.4824117 282.878906,90.5097656 C283.746098,92.5371195 284.179688,94.6640514 284.179688,96.890625 C284.179688,99.1171986 283.746098,101.24413 282.878906,103.271484 C282.011714,105.298838 280.839851,107.050774 279.363281,108.527344 C277.886711,110.003914 276.134776,111.175777 274.107422,112.042969 C272.080068,112.910161 269.953136,113.34375 267.726562,113.34375 C265.499989,113.34375 263.373057,112.910161 261.345703,112.042969 C259.318349,111.175777 257.566414,110.003914 256.089844,108.527344 C254.613274,107.050774 253.441411,105.304698 252.574219,103.289062 Z M251.273438,87.3632812 C249.585929,90.2695458 248.742188,93.4452953 248.742188,96.890625 C248.742188,100.335955 249.591788,103.511704 251.291016,106.417969 C252.990243,109.324233 255.292954,111.626945 258.199219,113.326172 C261.105483,115.025399 264.281233,115.875 267.726562,115.875 C271.171892,115.875 274.347642,115.025399 277.253906,113.326172 C280.160171,111.626945 282.462882,109.324233 284.162109,106.417969 C285.861337,103.511704 286.710938,100.335955 286.710938,96.890625 C286.710938,93.4452953 285.861337,90.2695458 284.162109,87.3632812 C282.462882,84.4570167 280.160171,82.1543054 277.253906,80.4550781 C274.347642,78.7558509 271.171892,77.90625 267.726562,77.90625 C264.281233,77.90625 261.105483,78.7558509 258.199219,80.4550781 C255.292954,82.1543054 252.984384,84.4570167 251.273438,87.3632812 Z M249.09375,107.683594 C247.171865,104.37889 246.210938,100.781269 246.210938,96.890625 C246.210938,92.9999805 247.171865,89.4023603 249.09375,86.0976562 C251.015635,82.7929522 253.62889,80.1796971 256.933594,78.2578125 C260.238298,76.3359279 263.835918,75.375 267.726562,75.375 C271.617207,75.375 275.214827,76.3359279 278.519531,78.2578125 C281.824235,80.1796971 284.43749,82.7929522 286.359375,86.0976562 C288.28126,89.4023603 289.242188,92.9999805 289.242188,96.890625 C289.242188,100.781269 288.28126,104.37889 286.359375,107.683594 C284.43749,110.988298 281.824235,113.601553 278.519531,115.523438 C275.214827,117.445322 271.617207,118.40625 267.726562,118.40625 C263.835918,118.40625 260.238298,117.445322 256.933594,115.523438 C253.62889,113.601553 251.015635,110.988298 249.09375,107.683594 Z M245.578125,87.5390625 C244.312494,90.5156399 243.679688,93.6327962 243.679688,96.890625 C243.679688,100.148454 244.312494,103.26561 245.578125,106.242188 C246.843756,109.218765 248.548817,111.779286 250.693359,113.923828 C252.837901,116.06837 255.398423,117.773431 258.375,119.039062 C261.351577,120.304694 264.468734,120.9375 267.726562,120.9375 C270.984391,120.9375 274.101548,120.304694 277.078125,119.039062 C280.054702,117.773431 282.615224,116.06837 284.759766,113.923828 C286.904308,111.779286 288.609369,109.218765 289.875,106.242188 C291.140631,103.26561 291.773438,100.148454 291.773438,96.890625 C291.773438,93.6327962 291.140631,90.5156399 289.875,87.5390625 C288.609369,84.5624851 286.904308,82.0019638 284.759766,79.8574219 C282.615224,77.7128799 280.054702,76.0078188 277.078125,74.7421875 C274.101548,73.4765562 270.984391,72.84375 267.726562,72.84375 C264.468734,72.84375 261.351577,73.4765562 258.375,74.7421875 C255.398423,76.0078188 252.837901,77.7128799 250.693359,79.8574219 C248.548817,82.0019638 246.843756,84.5624851 245.578125,87.5390625 Z M244.699219,110.214844 C242.332019,106.136698 241.148438,101.695337 241.148438,96.890625 C241.148438,92.0859135 242.337879,87.6445516 244.716797,83.5664062 C247.095715,79.4882609 250.324198,76.2597775 254.402344,73.8808594 C258.480489,71.5019412 262.921851,70.3125 267.726562,70.3125 C272.531274,70.3125 276.972636,71.5019412 281.050781,73.8808594 C285.128927,76.2597775 288.35741,79.4882609 290.736328,83.5664062 C293.115246,87.6445516 294.304688,92.0859135 294.304688,96.890625 C294.304688,101.695337 293.115246,106.136698 290.736328,110.214844 C288.35741,114.292989 285.128927,117.521472 281.050781,119.900391 C276.972636,122.279309 272.531274,123.46875 267.726562,123.46875 C262.921851,123.46875 258.480489,122.279309 254.402344,119.900391 C250.324198,117.521472 247.089856,114.292989 244.699219,110.214844 Z M240.902344,85.6054688 C239.378899,89.1914242 238.617188,92.9531053 238.617188,96.890625 C238.617188,100.828145 239.384758,104.595685 240.919922,108.193359 C242.455086,111.791034 244.523424,114.890612 247.125,117.492188 C249.726576,120.093763 252.826154,122.162102 256.423828,123.697266 C260.021502,125.23243 263.789043,126 267.726562,126 C271.664082,126 275.431623,125.23243 279.029297,123.697266 C282.626971,122.162102 285.726549,120.093763 288.328125,117.492188 C290.929701,114.890612 292.998039,111.791034 294.533203,108.193359 C296.068367,104.595685 296.835938,100.828145 296.835938,96.890625 C296.835938,92.9531053 296.068367,89.1855649 294.533203,85.5878906 C292.998039,81.9902164 290.929701,78.890638 288.328125,76.2890625 C285.726549,73.687487 282.626971,71.6191483 279.029297,70.0839844 C275.431623,68.5488204 271.664082,67.78125 267.726562,67.78125 C263.789043,67.78125 260.021502,68.5488204 256.423828,70.0839844 C252.826154,71.6191483 249.726576,73.687487 247.125,76.2890625 C244.523424,78.890638 242.449226,81.9960757 240.902344,85.6054688 Z M238.582031,109.195312 C236.91796,105.28123 236.085938,101.179709 236.085938,96.890625 C236.085938,92.6015411 236.92382,88.5058789 238.599609,84.6035156 C240.275399,80.7011524 242.525377,77.3379047 245.349609,74.5136719 C248.173842,71.689439 251.53709,69.4394615 255.439453,67.7636719 C259.341816,66.0878822 263.437479,65.25 267.726562,65.25 C272.015646,65.25 276.111309,66.0878822 280.013672,67.7636719 C283.916035,69.4394615 287.279283,71.689439 290.103516,74.5136719 C292.927748,77.3379047 295.177726,80.7011524 296.853516,84.6035156 C298.529305,88.5058789 299.367188,92.6015411 299.367188,96.890625 C299.367188,101.179709 298.529305,105.275371 296.853516,109.177734 C295.177726,113.080098 292.927748,116.443345 290.103516,119.267578 C287.279283,122.091811 283.916035,124.341788 280.013672,126.017578 C276.111309,127.693368 272.015646,128.53125 267.726562,128.53125 C263.437479,128.53125 259.341816,127.693368 255.439453,126.017578 C251.53709,124.341788 248.173842,122.091811 245.349609,119.267578 C242.525377,116.443345 240.26954,113.085957 238.582031,109.195312 Z M323.730469,97.03125 L338.988281,97.03125 C341.308605,97.03125 343.271476,96.2812575 344.876953,94.78125 C346.48243,93.2812425 347.285156,91.1484513 347.285156,88.3828125 C347.285156,86.3437398 346.441415,84.5097738 344.753906,82.8808594 C343.066398,81.251945 341.144542,80.4375 338.988281,80.4375 L317.261719,80.4375 L317.261719,126 L314.730469,126 L314.730469,77.90625 L338.988281,77.90625 C341.847671,77.90625 344.367177,78.9667863 346.546875,81.0878906 C348.726573,83.208995 349.816406,85.6406113 349.816406,88.3828125 C349.816406,91.7578294 348.761729,94.4648336 346.652344,96.5039062 C344.542958,98.5429789 341.988296,99.5625 338.988281,99.5625 L323.730469,99.5625 L323.730469,97.03125 Z M323.730469,102.09375 L338.988281,102.09375 C342.64455,102.09375 345.785143,100.81056 348.410156,98.2441406 C351.035169,95.6777215 352.347656,92.390645 352.347656,88.3828125 C352.347656,84.9374828 351.005873,81.9082162 348.322266,79.2949219 C345.638658,76.6816276 342.527361,75.375 338.988281,75.375 L312.199219,75.375 L312.199219,126 L309.667969,126 L309.667969,72.84375 L338.988281,72.84375 C341.777358,72.84375 344.396472,73.5585866 346.845703,74.9882812 C349.294934,76.4179759 351.246086,78.3339724 352.699219,80.7363281 C354.152351,83.1386839 354.878906,85.6874865 354.878906,88.3828125 C354.878906,93.0000231 353.314469,96.8613126 350.185547,99.9667969 C347.056625,103.072281 343.32424,104.625 338.988281,104.625 L323.730469,104.625 L323.730469,102.09375 Z M323.730469,107.15625 L338.988281,107.15625 C342.269548,107.15625 345.316392,106.347664 348.128906,104.730469 C350.94142,103.113273 353.191398,100.857436 354.878906,97.9628906 C356.566415,95.0683449 357.410156,91.8750175 357.410156,88.3828125 C357.410156,85.2187342 356.572274,82.2480608 354.896484,79.4707031 C353.220695,76.6933455 350.964858,74.4726646 348.128906,72.8085938 C345.292955,71.1445229 342.24611,70.3125 338.988281,70.3125 L307.136719,70.3125 L307.136719,126 L304.605469,126 L304.605469,67.78125 L338.988281,67.78125 C342.667987,67.78125 346.124984,68.7245999 349.359375,70.6113281 C352.593766,72.4980563 355.166006,75.029281 357.076172,78.2050781 C358.986338,81.3808753 359.941406,84.7734195 359.941406,88.3828125 C359.941406,92.5547084 359.044931,96.2226404 357.251953,99.3867188 C355.458975,102.550797 353.027359,105.023429 349.957031,106.804688 L356.496094,126 L353.824219,126 L347.566406,108 C346.628902,108.375002 345.914065,108.632812 345.421875,108.773438 L351.292969,126 L348.621094,126 L342.890625,109.371094 C342.679686,109.417969 341.929694,109.499999 340.640625,109.617188 L346.089844,126 L343.417969,126 L338.039062,109.6875 L335.753906,109.6875 L340.886719,126 L338.214844,126 L333.046875,109.6875 L323.730469,109.6875 L323.730469,107.15625 Z M322.324219,126 L319.792969,126 L319.792969,82.96875 L338.988281,82.96875 C340.558602,82.96875 341.912104,83.5019478 343.048828,84.5683594 C344.185553,85.634771 344.753906,86.9062426 344.753906,88.3828125 C344.753906,92.4609579 342.83205,94.5 338.988281,94.5 L323.730469,94.5 L323.730469,91.96875 L338.988281,91.96875 C339.996099,91.96875 340.787107,91.7050808 341.361328,91.1777344 C341.93555,90.650388 342.222656,89.7187567 342.222656,88.3828125 C342.222656,87.5624959 341.912112,86.8769559 341.291016,86.3261719 C340.669919,85.7753879 339.902348,85.5 338.988281,85.5 L322.324219,85.5 L322.324219,126 Z" id="Combined-Shape"></path>
            </g>
        </g>
    </g>
</svg>