<?xml version="1.0" encoding="UTF-8"?>
<svg width="255px" height="141px" viewBox="0 0 255 141" version="1.1" xmlns="http://www.w3.org/2000/svg" xmlns:xlink="http://www.w3.org/1999/xlink">
    <!-- Generator: Sketch 52.5 (67469) - http://www.bohemiancoding.com/sketch -->
    <title>Group</title>
    <desc>Created with Sketch.</desc>
    <g id="Page-1" stroke="none" stroke-width="1" fill="none" fill-rule="evenodd">
        <g id="Group" transform="translate(-89.000000, -21.000000)">
            <rect id="Rectangle" fill-rule="nonzero" x="0" y="0" width="430" height="205"></rect>
            <path d="M146.53099,79.0781709 C146.558918,79.1088808 146.521922,79.2261564 146.42,79.43 C146.42,79.4900003 146.360001,79.6399988 146.24,79.88 C146.24,79.9400003 146.21,79.97 146.15,79.97 C146.09,79.97 146.06,79.9400003 146.06,79.88 C145.879999,79.88 145.849999,79.8200006 145.97,79.7 C145.91,79.2799979 145.91,78.9200015 145.97,78.62 L146.33,77.99 C146.510001,77.6899985 146.450001,77.5999994 146.15,77.72 C146.029999,77.72 145.925,77.6750004 145.835,77.585 C145.745,77.4949996 145.67,77.45 145.61,77.45 C145.489999,77.45 145.43,77.3900006 145.43,77.27 C145.43,76.9099982 145.445,76.6250011 145.475,76.415 C145.505,76.204999 145.52,75.8900021 145.52,75.47 C145.52,75.3499994 145.579999,75.1700012 145.7,74.93 L145.88,74.75 L146.06,74.39 C146.06,74.2099991 146.015,73.9700015 145.925,73.67 C145.835,73.3699985 145.82,72.920003 145.88,72.32 C145.94,71.719997 146.089999,70.8650056 146.33,69.755 C146.570001,68.6449944 147.019997,67.190009 147.68,65.39 C147.68,65.2699994 147.71,65.1800003 147.77,65.12 C147.890001,64.8199985 147.98,64.4900018 148.04,64.13 C148.1,63.7699982 148.249999,63.4700012 148.49,63.23 L148.67,62.87 C148.73,62.5699985 148.834999,62.3000012 148.985,62.06 C149.135001,61.8199988 149.269999,61.5500015 149.39,61.25 L149.93,60.17 C150.050001,59.8699985 150.155,59.5850013 150.245,59.315 C150.335,59.0449986 150.454999,58.6700024 150.605,58.19 C150.755001,57.7099976 150.994998,57.065004 151.325,56.255 C151.655002,55.444996 152.149997,54.3200072 152.81,52.88 C152.81,52.8199997 152.825,52.7750001 152.855,52.745 C152.885,52.7149998 152.9,52.6700003 152.9,52.61 L154.43,48.56 L154.97,47.57 C155.090001,47.3899991 155.18,47.2100009 155.24,47.03 C155.3,46.8499991 155.419999,46.6700009 155.6,46.49 L155.78,46.22 L157.31,42.62 L157.67,41.63 C157.73,41.3899988 157.670001,41.2100006 157.49,41.09 L156.95,41.09 C156.829999,41.09 156.680001,40.9700012 156.5,40.73 C156.319999,40.4899988 156.125001,40.2050016 155.915,39.875 C155.704999,39.5449984 155.510001,39.2450013 155.33,38.975 C155.149999,38.7049986 155.000001,38.5400003 154.88,38.48 L154.34,38.21 C154.039999,37.9699988 154.039999,37.8200003 154.34,37.76 C154.640001,37.6999997 154.670001,37.5200015 154.43,37.22 L154.07,36.68 L154.52,36.05 C154.58,35.9899997 154.699999,35.9300003 154.88,35.87 C155.060001,35.8099997 155.239999,35.7650002 155.42,35.735 C155.600001,35.7049998 155.749999,35.69 155.87,35.69 C155.990001,35.69 155.990001,35.6600003 155.87,35.6 L155.06,35.06 C154.879999,34.8799991 154.730001,34.7150008 154.61,34.565 C154.489999,34.4149992 154.4,34.1900015 154.34,33.89 L154.43,33.26 L154.52,33.26 L154.7,33.08 L154.79,32.81 C154.85,32.5099985 155.119998,32.36 155.6,32.36 L154.52,32.27 L154.52,32.18 L154.61,32 C154.61,31.9399997 154.669999,31.8800003 154.79,31.82 L154.88,31.82 C155.000001,31.82 155.119999,31.7900003 155.24,31.73 C155.360001,31.4299985 155.569998,31.2500003 155.87,31.19 C156.470003,31.2500003 156.785,31.2350005 156.815,31.145 C156.845,31.0549996 156.83,30.9200009 156.77,30.74 C156.71,30.5599991 156.769999,30.3800009 156.95,30.2 C157.130001,30.0199991 157.669995,29.8700006 158.57,29.75 C158.930002,29.8100003 159.259998,29.6300021 159.56,29.21 C159.860002,28.7899979 160.159999,28.6099997 160.46,28.67 C160.940002,28.7900006 161.389998,28.7900006 161.81,28.67 C162.230002,28.5499994 162.679998,28.4000009 163.16,28.22 C163.640002,28.1599997 163.925,28.2349989 164.015,28.445 C164.105,28.655001 164.299999,28.5200024 164.6,28.04 L164.6,27.77 C164.6,27.7099997 164.689999,27.7399994 164.87,27.86 C164.93,27.86 164.93,27.8300003 164.87,27.77 L164.96,27.32 C165.02,27.2599997 165.109999,27.1850005 165.23,27.095 C165.350001,27.0049996 165.619998,26.9450001 166.04,26.915 C166.460002,26.8849998 167.029996,26.87 167.75,26.87 C168.470004,26.87 169.459994,26.9599991 170.72,27.14 L171.62,26.96 C171.920002,26.8399994 172.219999,26.7350005 172.52,26.645 C172.820001,26.5549996 173.089999,26.5399997 173.33,26.6 C173.450001,26.5399997 173.51,26.5399997 173.51,26.6 C173.51,26.6600003 173.54,26.69 173.6,26.69 C173.960002,26.5699994 174.229999,26.5549996 174.41,26.645 C174.590001,26.7350005 174.829998,26.8399994 175.13,26.96 L176.84,26.51 L177.56,26.42 L177.83,26.42 C178.010001,26.42 178.189999,26.3900003 178.37,26.33 L180.35,26.06 L182.15,25.88 C182.330001,25.8199997 182.494999,25.8049999 182.645,25.835 C182.795001,25.8650002 182.959999,25.8500003 183.14,25.79 L184.58,25.52 L186.11,24.98 C186.230001,24.98 186.29,25.0399994 186.29,25.16 C186.530001,25.2200003 186.784999,25.2200003 187.055,25.16 C187.325001,25.0999997 187.549999,25.0100006 187.73,24.89 C187.910001,24.9500003 187.97,25.0249996 187.91,25.115 C187.85,25.2050005 187.760001,25.2799997 187.64,25.34 L187.37,25.475 C187.31,25.5050002 187.369999,25.52 187.55,25.52 C187.61,25.52 187.64,25.5050002 187.64,25.475 C187.64,25.4449999 187.67,25.43 187.73,25.43 C188.090002,25.6700012 188.479998,25.7300006 188.9,25.61 C189.020001,25.61 189.125,25.5650004 189.215,25.475 C189.305,25.3849996 189.38,25.3699997 189.44,25.43 L189.53,25.43 C189.53,25.4900003 189.56,25.52 189.62,25.52 L189.53,25.52 C189.650001,25.6400006 189.829999,25.7 190.07,25.7 L190.25,25.7 C190.370001,25.7600003 190.489999,25.7600003 190.61,25.7 C190.730001,25.6399997 190.849999,25.6699994 190.97,25.79 L191.06,25.79 C191.06,25.9700009 191.09,26.1799988 191.15,26.42 C191.15,26.4800003 191.12,26.5249999 191.06,26.555 C191,26.5850001 190.97,26.6299997 190.97,26.69 C190.789999,26.69 190.625001,26.7349995 190.475,26.825 C190.324999,26.9150005 190.130001,26.96 189.89,26.96 L189.89,27.545 C189.89,27.8150014 190.249996,27.9799997 190.97,28.04 L190.88,28.49 C190.82,28.6100006 190.76,28.7749989 190.7,28.985 C190.64,29.1950011 190.550001,29.2700003 190.43,29.21 C190.309999,29.3300006 190.160001,29.4649993 189.98,29.615 C189.799999,29.7650008 189.949998,29.7800006 190.43,29.66 L190.7,29.66 C190.76,29.66 190.835,29.6749999 190.925,29.705 C191.015,29.7350002 191.03,29.8099994 190.97,29.93 C190.91,30.0500006 190.775001,30.214999 190.565,30.425 C190.354999,30.6350011 189.950003,30.9199982 189.35,31.28 C189.29,31.4000006 189.095002,31.4000006 188.765,31.28 C188.434998,31.1599994 188.329999,31.2199988 188.45,31.46 C188.690001,31.9400024 188.899999,32.2399994 189.08,32.36 C189.260001,32.4800006 189.365,32.5549999 189.395,32.585 C189.425,32.6150002 189.350001,32.6749995 189.17,32.765 C188.989999,32.8550005 188.660002,33.0799982 188.18,33.44 L188.27,33.53 C188.510001,33.5900003 188.749999,33.6799994 188.99,33.8 C189.230001,33.9200006 189.38,34.0549993 189.44,34.205 C189.5,34.3550008 189.425001,34.5499988 189.215,34.79 C189.004999,35.0300012 188.540004,35.2699988 187.82,35.51 C187.699999,35.6300006 187.550001,35.6300006 187.37,35.51 L185.03,36.05 L184.85,36.05 C184.549999,36.05 184.355,36.0799997 184.265,36.14 C184.175,36.2000003 183.980001,36.23 183.68,36.23 L183.5,36.23 C183.379999,36.23 183.305,36.2449998 183.275,36.275 C183.245,36.3050001 183.170001,36.3349999 183.05,36.365 L182.33,36.545 C181.969998,36.6350005 181.400004,36.7399994 180.62,36.86 L180.35,36.95 C179.929998,36.8899997 179.450003,36.9199994 178.91,37.04 C178.369997,37.1600006 177.950001,37.2799994 177.65,37.4 C177.169998,37.5200006 176.705002,37.6249995 176.255,37.715 C175.804998,37.8050004 175.340002,37.9399991 174.86,38.12 C174.379998,38.12 173.900002,38.2699985 173.42,38.57 C173.059998,38.4499994 172.700002,38.4199997 172.34,38.48 C172.099999,38.6000006 171.890001,38.6899997 171.71,38.75 C171.529999,38.8100003 171.380001,38.8999994 171.26,39.02 C171.2,39.1400006 171.080001,39.2299997 170.9,39.29 C170.719999,39.3500003 170.570001,39.4099997 170.45,39.47 L169.64,39.74 C169.519999,39.9200009 169.475,40.0999991 169.505,40.28 C169.535,40.4600009 169.595,40.6399991 169.685,40.82 C169.775,41.0000009 169.835,41.194999 169.865,41.405 C169.895,41.6150011 169.88,41.8099991 169.82,41.99 L168.11,45.05 L167.93,46.04 C167.87,46.1600006 167.914999,46.1900003 168.065,46.13 C168.215001,46.0699997 168.200001,46.0999994 168.02,46.22 L167.66,46.76 C167.6,46.9400009 167.525,47.1499988 167.435,47.39 C167.345,47.6300012 167.240001,47.8399991 167.12,48.02 C167.06,48.02 167.045,48.0349999 167.075,48.065 C167.105,48.0950002 167.15,48.11 167.21,48.11 L167.12,48.2 L167.3,48.29 L169.46,47.84 L172.16,47.3 C172.580002,47.3 172.849999,47.2400006 172.97,47.12 L174.68,47.03 C174.980002,46.9699997 175.294998,46.9699997 175.625,47.03 C175.955002,47.0900003 176.239999,47.0900003 176.48,47.03 C176.54,47.03 176.6,47.0150002 176.66,46.985 C176.72,46.9549998 176.78,46.94 176.84,46.94 L177.74,46.76 C178.040001,46.6999997 178.339998,46.67 178.64,46.67 L179.72,46.67 C179.840001,46.7900006 180.019999,46.85 180.26,46.85 C180.380001,46.7899997 180.485,46.7749999 180.575,46.805 C180.665,46.8350001 180.769999,46.85 180.89,46.85 C181.250002,46.7899997 181.46,46.7450001 181.52,46.715 C181.58,46.6849998 181.699999,46.6999997 181.88,46.76 C182.000001,46.76 182.015,46.7450001 181.925,46.715 C181.835,46.6849998 181.849999,46.67 181.97,46.67 C182.150001,46.67 182.24,46.7299994 182.24,46.85 L182.15,46.85 L182.15,47.12 C182.330001,47.12 182.479999,47.1799994 182.6,47.3 L182.69,47.48 C182.63,47.5400003 182.57,47.57 182.51,47.57 L182.51,47.66 C182.45,47.7200003 182.330001,47.75 182.15,47.75 C182.029999,47.8100003 181.985,47.84 182.015,47.84 L181.88,47.84 C181.699999,47.9600006 181.625,48.0649996 181.655,48.155 C181.685,48.2450004 181.745,48.3349996 181.835,48.425 L182.06,48.65 C182.12,48.7100003 182.060001,48.7699997 181.88,48.83 C181.399998,48.7699997 181.025001,48.7849996 180.755,48.875 C180.484999,48.9650004 180.32,49.0699994 180.26,49.19 C180.2,49.3100006 180.289999,49.3849998 180.53,49.415 C180.770001,49.4450001 181.159997,49.4000006 181.7,49.28 L181.79,49.28 L181.7,49.37 C181.76,49.4300003 181.76,49.4899997 181.7,49.55 C181.7,49.6100003 181.550001,49.6699997 181.25,49.73 C180.949999,49.7900003 180.665001,49.8649995 180.395,49.955 C180.124999,50.0450005 179.930001,50.1499994 179.81,50.27 C179.689999,50.3900006 179.809998,50.5699988 180.17,50.81 C180.23,50.8700003 180.349999,50.9 180.53,50.9 L181.16,50.9 C181.280001,50.9 181.34,50.9599994 181.34,51.08 C181.4,51.1400003 181.370001,51.2299994 181.25,51.35 C181.069999,51.5300009 180.920001,51.5900003 180.8,51.53 C180.8,51.5900003 180.665001,51.62 180.395,51.62 L179.675,51.62 C179.464999,51.62 179.315,51.6499997 179.225,51.71 C179.135,51.7700003 179.239998,51.8599994 179.54,51.98 C179.6,52.0400003 179.615,52.0999997 179.585,52.16 C179.555,52.2200003 179.51,52.2200003 179.45,52.16 C179.089998,52.3400009 178.94,52.5499988 179,52.79 C179.06,53.0300012 179.149999,53.254999 179.27,53.465 C179.390001,53.6750011 179.435,53.8849989 179.405,54.095 C179.375,54.3050011 179.060003,54.4699994 178.46,54.59 C178.219999,54.59 178.07,54.6799991 178.01,54.86 L177.74,55.13 C177.619999,55.13 177.53,55.1449998 177.47,55.175 C177.41,55.2050002 177.320001,55.1900003 177.2,55.13 C177.26,55.1900003 177.32,55.22 177.38,55.22 C177.44,55.2800003 177.47,55.3399997 177.47,55.4 C177.650001,55.4 177.74,55.4599994 177.74,55.58 C177.8,55.7600009 177.770001,55.85 177.65,55.85 C177.65,55.9100003 177.62,55.94 177.56,55.94 C177.5,55.94 177.47,55.9699997 177.47,56.03 C177.229999,55.9699997 176.900002,55.9250001 176.48,55.895 C176.059998,55.8649998 175.760001,55.8799997 175.58,55.94 C175.279999,56.0000003 174.860003,56.0899994 174.32,56.21 C173.779997,56.3300006 173.390001,56.4499994 173.15,56.57 C172.909999,56.4499994 172.76,56.4199997 172.7,56.48 L170.9,56.66 C170.599998,56.9600015 170.225002,57.1549995 169.775,57.245 C169.324998,57.3350004 168.950002,57.38 168.65,57.38 L168.38,57.29 C168.139999,57.3500003 167.99,57.4099997 167.93,57.47 C167.87,57.5300003 167.84,57.5749999 167.84,57.605 C167.84,57.6350002 167.795,57.6649999 167.705,57.695 C167.615,57.7250001 167.450001,57.74 167.21,57.74 C166.909999,57.74 166.610002,57.7849996 166.31,57.875 C166.009998,57.9650005 165.740001,58.0399997 165.5,58.1 C165.379999,58.1 165.379999,58.2499985 165.5,58.55 C165.620001,58.8500015 165.620001,59 165.5,59 C165.199998,59.0600003 164.960001,59.0750002 164.78,59.045 C164.599999,59.0149999 164.360002,59.0599994 164.06,59.18 C163.639998,59.4200012 163.43,59.5849996 163.43,59.675 C163.43,59.7650005 163.190002,59.8699994 162.71,59.99 C162.469999,60.1100006 162.32,60.2299994 162.26,60.35 C162.139999,60.5300009 162.095,60.7249989 162.125,60.935 C162.155,61.145001 162.14,61.3099994 162.08,61.43 L161.36,62.06 C160.999998,62.4200018 160.85,62.7499985 160.91,63.05 L160.55,64.58 C160.49,64.7000006 160.355001,64.9099985 160.145,65.21 C159.934999,65.5100015 159.8,65.7199994 159.74,65.84 C159.68,65.9600006 159.560001,66.0799994 159.38,66.2 C159.199999,66.3200006 159.08,66.4699991 159.02,66.65 C159.08,66.7100003 159.050001,66.7999994 158.93,66.92 C158.87,67.0400006 158.87,67.0850001 158.93,67.055 C158.99,67.0249999 159.065,66.9800003 159.155,66.92 C159.245,66.8599997 159.32,66.83 159.38,66.83 C159.44,66.83 159.44,66.8899994 159.38,67.01 C159.44,67.1300006 159.44,67.2199997 159.38,67.28 C159.32,67.3400003 159.26,67.4299994 159.2,67.55 C159.079999,67.6100003 159.02,67.6999994 159.02,67.82 C159.02,67.9400006 158.960001,68.0899991 158.84,68.27 L159.2,67.73 C159.26,67.6699997 159.245,67.7299991 159.155,67.91 L158.84,68.54 L158.84,68.45 L158.66,68.9 C158.66,69.0800009 158.63,69.2749989 158.57,69.485 C158.51,69.6950011 158.45,69.8599994 158.39,69.98 L157.4,72.23 L157.22,72.95 C157.22,73.0700006 157.160001,73.2049993 157.04,73.355 C156.919999,73.5050007 156.89,73.6699991 156.95,73.85 C156.89,73.9700006 156.89,74.0749996 156.95,74.165 C157.01,74.2550004 156.980001,74.3899991 156.86,74.57 C156.86,74.6900006 156.770001,74.8399991 156.59,75.02 C156.469999,75.2600012 156.320001,75.38 156.14,75.38 L155.78,77.18 C155.78,77.3000006 155.765,77.4349993 155.735,77.585 C155.705,77.7350008 155.69,77.8699994 155.69,77.99 C155.569999,78.1100006 155.51,78.3199985 155.51,78.62 C155.630001,78.8000009 155.66,79.0399985 155.6,79.34 C155.54,79.6400015 155.450001,79.8499994 155.33,79.97 C155.089999,80.2700015 154.97,80.5999982 154.97,80.96 L154.79,81.32 L154.61,81.5 L154.43,81.5 C154.37,81.5 154.34,81.4700003 154.34,81.41 C154.219999,81.0499982 154.219999,80.8100006 154.34,80.69 C154.34,80.3899985 154.429999,80.0000024 154.61,79.52 C154.730001,79.2799988 154.730001,79.1749999 154.61,79.205 C154.489999,79.2350001 154.489999,79.1300012 154.61,78.89 C154.850001,78.4099976 155.059999,77.7800039 155.24,77 L155.33,76.73 C155.510001,76.6099994 155.615,76.4900006 155.645,76.37 C155.675,76.2499994 155.72,76.1300006 155.78,76.01 C155.84,75.5299976 155.915,75.0950019 156.005,74.705 C156.095,74.314998 156.17,73.8800024 156.23,73.4 L156.5,73.13 C156.56,73.0699997 156.59,72.9800006 156.59,72.86 L156.41,72.77 L155.96,73.04 C155.9,73.04 155.87,73.0549999 155.87,73.085 C155.87,73.1150002 155.84,73.13 155.78,73.13 L155.51,74.3 C155.45,74.3600003 155.435,74.4199997 155.465,74.48 C155.495,74.5400003 155.450001,74.6299994 155.33,74.75 L155.195,75.02 C155.165,75.0800003 155.15,75.2299988 155.15,75.47 C155.15,75.5900006 155.090001,75.65 154.97,75.65 C154.91,75.7100003 154.820001,75.74 154.7,75.74 L154.61,76.37 L153.89,78.35 L153.26,79.88 C153.26,80.0600009 153.245,80.1949996 153.215,80.285 C153.185,80.3750005 153.17,80.5099991 153.17,80.69 L152.99,80.78 L152.81,81.05 C152.689999,81.1100003 152.645,81.1100003 152.675,81.05 C152.705,80.9899997 152.779999,80.9000006 152.9,80.78 L152.81,80.78 C152.509998,80.78 152.33,80.7200006 152.27,80.6 C151.849998,80.4799994 151.759999,80.2400018 152,79.88 C152,79.6399988 151.97,79.4600006 151.91,79.34 C151.91,79.2199994 151.835001,79.2949986 151.685,79.565 C151.534999,79.8350013 151.370001,80.0599991 151.19,80.24 L151.55,79.43 L151.91,78.71 L151.82,78.62 L151.73,78.62 C151.369998,78.9800018 151.22,79.3399982 151.28,79.7 C151.22,79.7 151.16,79.7149998 151.1,79.745 C151.04,79.7750001 150.98,79.79 150.92,79.79 L150.2,79.7 C150.079999,79.5799994 149.870002,79.5649996 149.57,79.655 C149.269998,79.7450004 149.09,79.8199997 149.03,79.88 C148.909999,80.1200012 148.835,80.1800006 148.805,80.06 C148.775,79.9399994 148.610001,79.9099997 148.31,79.97 C148.189999,80.0900006 148.16,80.15 148.22,80.15 C148.039999,80.3300009 147.860001,80.42 147.68,80.42 L147.5,80.78 C147.620001,80.9000006 147.799999,81.0199994 148.04,81.14 C148.220001,81.2000003 148.28,81.2599997 148.22,81.32 C148.22,81.4400006 148.160001,81.5 148.04,81.5 C147.919999,81.5 147.83,81.4700003 147.77,81.41 C147.71,81.41 147.68,81.3800003 147.68,81.32 C147.62,81.32 147.575,81.3050001 147.545,81.275 C147.515,81.2449998 147.47,81.23 147.41,81.23 L147.32,81.23 L147.32,81.32 L147.23,81.14 C147.29,81.2000003 147.35,81.035002 147.41,80.645 C147.47,80.2549981 147.53,80.0000006 147.59,79.88 C147.469999,79.9400003 147.41,79.9999997 147.41,80.06 C147.169999,80.06 147.05,80.0300003 147.05,79.97 L147.05,79.88 L146.78,80.15 L146.6,80.15 C146.479999,80.0899997 146.479999,80.0000006 146.6,79.88 L146.6,79.52 C146.657339,79.3479837 146.632485,79.203367 146.525438,79.0861462 L146.53099,79.0781709 Z M189.89,25.52 C190.070001,25.52 190.16,25.5799994 190.16,25.7 L189.89,25.52 Z M147.14,79.25 L147.05,79.88 C147.05,79.5799985 147.08,79.3700006 147.14,79.25 Z M151.083333,80.4533347 C151.061111,80.5311118 151.066667,80.595 151.1,80.645 C151.16,80.7350005 151.130001,80.7200006 151.01,80.6 L151.083333,80.4533347 Z M151.083333,80.4533347 L151.19,80.24 C151.136666,80.3200009 151.10111,80.3911123 151.083333,80.4533347 Z M154.52,33.17 C154.46,33.0499994 154.43,32.9600003 154.43,32.9 C154.43,32.8399997 154.46,32.8699994 154.52,32.99 L154.52,33.17 Z M154.52,32.27 C154.52,32.3300003 154.460001,32.3300003 154.34,32.27 L154.52,32.27 Z M225.440069,26.5200001 C225.44169,26.6366672 225.471666,26.7533328 225.53,26.87 C225.650001,27.1700015 225.74,27.32 225.8,27.32 C225.8,27.2599997 225.83,27.2599997 225.89,27.32 C225.95,27.3800003 225.95,27.4699994 225.89,27.59 L225.62,28.31 C225.56,28.4300006 225.455001,28.594999 225.305,28.805 C225.154999,29.0150011 225.020001,29.2099991 224.9,29.39 L224.9,29.93 C225.200001,29.8099994 225.35,29.7200003 225.35,29.66 C225.35,29.3599985 225.395,29.1500006 225.485,29.03 C225.575,28.9099994 225.65,28.7900006 225.71,28.67 L226.52,28.4 C226.58,28.4 226.61,28.3700003 226.61,28.31 L226.88,27.77 C227.180002,27.5299988 227.36,27.3800003 227.42,27.32 C227.48,27.2599997 227.51,27.7399949 227.51,28.76 C227.329999,29.1200018 227.135001,29.4349987 226.925,29.705 C226.714999,29.9750014 226.58,30.3199979 226.52,30.74 L226.52,30.92 C226.700001,30.6799988 226.924999,30.4850008 227.195,30.335 C227.465001,30.1849993 227.689999,29.9600015 227.87,29.66 L228.41,29.39 C228.650001,29.1499988 228.77,29.0000003 228.77,28.94 L229.4,28.4 L229.58,28.4 C230.060002,28.4 230.359999,28.3700003 230.48,28.31 C230.54,28.31 230.674999,28.2350007 230.885,28.085 C231.095001,27.9349993 231.349998,27.8000006 231.65,27.68 C231.770001,27.68 231.875,27.6650001 231.965,27.635 C232.055,27.6049999 232.159999,27.6199997 232.28,27.68 L232.37,27.68 C232.43,27.68 232.415,27.8449983 232.325,28.175 C232.235,28.5050016 232.130001,28.8499982 232.01,29.21 C231.889999,29.5700018 231.770001,29.8999985 231.65,30.2 C231.529999,30.5000015 231.5,30.65 231.56,30.65 C231.800001,30.7100003 231.95,30.6500009 232.01,30.47 L232.28,29.84 C232.400001,29.7199994 232.519999,29.6150004 232.64,29.525 C232.760001,29.4349996 232.85,29.3300006 232.91,29.21 C233.030001,28.9699988 233.239998,28.9099994 233.54,29.03 C233.6,29.0900003 233.585,29.1349998 233.495,29.165 C233.405,29.1950001 233.33,29.2699994 233.27,29.39 C233.33,29.4500003 233.345,29.4949998 233.315,29.525 C233.285,29.5550001 233.3,29.5999997 233.36,29.66 L233.27,29.66 C233.33,29.66 233.36,29.6749999 233.36,29.705 C233.36,29.7350002 233.39,29.75 233.45,29.75 L233.45,29.66 C233.51,29.66 233.599999,29.5700009 233.72,29.39 C233.900001,29.2099991 234.109999,29.2099991 234.35,29.39 L234.44,29.57 C234.680001,29.0899976 234.8,28.9699988 234.8,29.21 C234.679999,29.6300021 234.575,30.0199982 234.485,30.38 C234.395,30.7400018 234.230001,31.1599976 233.99,31.64 L233.63,32.36 C233.509999,32.6000012 233.42,32.8699985 233.36,33.17 C233.3,33.5300018 233.225,33.8599985 233.135,34.16 C233.045,34.4600015 232.940001,34.7899982 232.82,35.15 L232.91,35.15 L232.64,35.33 L232.64,35.6 C232.519999,35.9600018 232.265002,36.6799946 231.875,37.76 C231.484998,38.8400054 231.080002,39.9649941 230.66,41.135 C230.239998,42.3050059 229.850002,43.3399955 229.49,44.24 C229.129998,45.1400045 228.92,45.6199997 228.86,45.68 L227.15,49.91 C227.029999,50.0900009 226.865001,50.3899979 226.655,50.81 C226.444999,51.2300021 226.280001,51.5899985 226.16,51.89 C226.16,51.9500003 226.145,52.0099997 226.115,52.07 C226.085,52.1300003 226.07,52.2199994 226.07,52.34 L225.8,52.61 L225.485,53.195 C225.274999,53.5850019 225.065001,54.0049977 224.855,54.455 C224.644999,54.9050023 224.450001,55.3249981 224.27,55.715 L224,56.3 C223.279996,57.8600078 222.800001,58.9099973 222.56,59.45 C222.319999,59.9900027 222.17,60.2300003 222.11,60.17 L220.31,63.14 L219.5,63.86 L219.32,64.22 L218.87,64.94 C218.81,65.2400015 218.630001,65.6149978 218.33,66.065 C218.029999,66.5150023 217.85,66.8899985 217.79,67.19 L216.89,67.82 C216.769999,67.9400006 216.725,68.0749992 216.755,68.225 C216.785,68.3750007 216.740001,68.5099994 216.62,68.63 C216.379999,69.1700027 216.020002,69.6199982 215.54,69.98 C215.419999,70.1000006 215.345,70.2049995 215.315,70.295 C215.285,70.3850005 215.210001,70.4899994 215.09,70.61 C214.969999,70.7300006 214.820001,70.8349995 214.64,70.925 C214.459999,71.0150005 214.310001,71.1499991 214.19,71.33 C213.949999,71.6300015 213.770001,71.8999988 213.65,72.14 C213.529999,72.3800012 213.320001,72.6499985 213.02,72.95 L212.57,73.4 C212.389999,73.4 212.33,73.4899991 212.39,73.67 C212.269999,73.8500009 212.135001,74.0149993 211.985,74.165 C211.834999,74.3150007 211.610001,74.39 211.31,74.39 L211.13,74.57 C210.889999,74.7500009 210.755,74.9149992 210.725,75.065 C210.695,75.2150008 210.620001,75.3799991 210.5,75.56 C210.199998,75.8600015 209.930001,76.0399997 209.69,76.1 L209.42,76.1 C209.42,76.1600003 209.39,76.19 209.33,76.19 C209.27,76.19 209.24,76.2199997 209.24,76.28 C209.119999,76.5800015 208.895002,76.8499988 208.565,77.09 C208.234998,77.3300012 207.830002,77.5699988 207.35,77.81 C206.989998,77.9300006 206.720001,77.99 206.54,77.99 C206.359999,77.99 206.195001,78.0799991 206.045,78.26 C205.894999,78.4400009 205.760001,78.5599997 205.64,78.62 C205.399999,78.8600012 205.28,78.9650002 205.28,78.935 C205.28,78.9049998 205.100002,78.89 204.74,78.89 C204.259998,79.0100006 203.840002,79.1299994 203.48,79.25 C203.359999,79.3700006 203.075002,79.4000003 202.625,79.34 C202.174998,79.2799997 201.830001,79.25 201.59,79.25 L200.24,79.52 C199.759998,79.6400006 199.325002,79.6700003 198.935,79.61 C198.544998,79.5499997 198.140002,79.4900003 197.72,79.43 C197.419998,79.3699997 196.910004,79.2950005 196.19,79.205 C195.469996,79.1149995 194.960001,79.0100006 194.66,78.89 L193.31,78.215 C192.889998,78.004999 192.500002,77.7500015 192.14,77.45 L191.87,76.91 C191.569998,76.6699988 191.195002,76.3250023 190.745,75.875 C190.294998,75.4249978 189.920001,74.9300027 189.62,74.39 C189.439999,74.2099991 189.275001,73.9850014 189.125,73.715 C188.974999,73.4449987 188.840001,73.1600015 188.72,72.86 C188.66,72.7999997 188.63,72.7400003 188.63,72.68 C188.63,72.6199997 188.6,72.5300006 188.54,72.41 C188.54,72.1699988 188.51,71.9300012 188.45,71.69 C188.39,71.5699994 188.36,71.4800003 188.36,71.42 C188.36,71.3599997 188.33,71.3000003 188.27,71.24 C188.21,70.9999988 188.165,70.7900009 188.135,70.61 C188.105,70.4299991 188.000001,70.1900015 187.82,69.89 C187.76,69.4099976 187.685,68.9600021 187.595,68.54 C187.505,68.1199979 187.46,67.6700024 187.46,67.19 L187.37,64.94 C187.37,64.6999988 187.4,64.5500003 187.46,64.49 L187.37,63.77 C187.37,63.4699985 187.385,63.1550017 187.415,62.825 C187.445,62.4949983 187.46,62.1800015 187.46,61.88 L187.46,60.26 C187.52,59.2999952 187.639999,58.4000042 187.82,57.56 L187.82,57.38 C187.82,56.8399973 187.939999,56.2400033 188.18,55.58 L188.63,53.69 L188.9,52.07 C189.080001,51.6499979 189.2,51.2600018 189.26,50.9 C189.32,50.5399982 189.439999,50.1800018 189.62,49.82 L190.16,47.48 L191.69,42.71 C191.75,42.4699988 191.944998,41.9600039 192.275,41.18 C192.605002,40.3999961 192.949998,39.5750044 193.31,38.705 C193.670002,37.8349956 193.999999,37.0100039 194.3,36.23 C194.600001,35.4499961 194.809999,34.9700009 194.93,34.79 C194.99,34.6099991 195.065,34.52 195.155,34.52 C195.245,34.52 195.335,34.5349999 195.425,34.565 C195.515,34.5950002 195.575,34.6249998 195.605,34.655 C195.635,34.6850002 195.65,34.6100009 195.65,34.43 L195.92,33.26 C196.040001,32.9599985 196.174999,32.4800033 196.325,31.82 C196.475001,31.1599967 197.059995,30.5000033 198.08,29.84 L199.52,29.84 C199.820001,29.84 200.104999,29.8549999 200.375,29.885 C200.645001,29.9150001 200.81,29.9599997 200.87,30.02 C200.990001,30.02 201.109999,30.1099991 201.23,30.29 C201.23,30.3500003 201.289999,30.4399994 201.41,30.56 L202.04,30.83 C202.340001,31.0100009 202.639998,30.9800012 202.94,30.74 C203.240001,30.4999988 203.599998,30.4999988 204.02,30.74 L204.65,30.92 L205.82,31.46 L206.72,32 C207.200002,32.4200021 207.559999,32.7049993 207.8,32.855 C208.040001,33.0050008 208.175,33.1399994 208.205,33.26 C208.235,33.3800006 208.22,33.5149992 208.16,33.665 C208.1,33.8150007 208.04,34.0999979 207.98,34.52 L204.65,41.81 L203.39,45.41 L202.67,47.3 C202.549999,47.6000015 202.430001,48.1099964 202.31,48.83 L202.04,50.45 C202.04,50.5700006 201.980001,50.7499988 201.86,50.99 C201.92,51.1100006 201.905,51.2449993 201.815,51.395 C201.725,51.5450008 201.68,51.6799994 201.68,51.8 C201.559999,52.2800024 201.5,52.6699985 201.5,52.97 C201.5,53.2700015 201.440001,53.5399988 201.32,53.78 L201.32,54.185 C201.32,54.3350007 201.260001,54.4699994 201.14,54.59 L200.87,55.49 C200.689999,55.9700024 200.585,56.4499976 200.555,56.93 C200.525,57.4100024 200.390001,57.8599979 200.15,58.28 C200.029999,58.4000006 200,58.564999 200.06,58.775 C200.12,58.9850011 200.090001,59.1499994 199.97,59.27 C199.91,59.6900021 199.85,60.0649984 199.79,60.395 C199.73,60.7250017 199.640001,61.0399985 199.52,61.34 L199.52,61.61 C199.52,61.9100015 199.49,62.2099985 199.43,62.51 C199.37,62.8100015 199.34,63.1399982 199.34,63.5 L199.34,63.77 C199.219999,63.9500009 199.16,64.3699967 199.16,65.03 L199.16,66.38 C199.1,66.6200012 199.1,66.8299991 199.16,67.01 C199.22,67.1900009 199.22,67.3399994 199.16,67.46 C199.1,68.060003 199.129999,68.5849978 199.25,69.035 C199.370001,69.4850023 199.519999,70.009997 199.7,70.61 L199.79,70.61 C199.85,70.61 199.88,70.6249998 199.88,70.655 C199.88,70.6850002 199.91,70.7 199.97,70.7 C199.97,70.8200006 200.059999,70.88 200.24,70.88 L201.05,70.43 C201.170001,70.3099994 201.304999,70.1300012 201.455,69.89 C201.605001,69.6499988 201.769999,69.4700006 201.95,69.35 C202.190001,69.1699991 202.355,68.9750011 202.445,68.765 C202.535,68.5549989 202.729998,68.3300012 203.03,68.09 L203.12,67.82 C203.540002,67.3399976 203.944998,66.8450026 204.335,66.335 C204.725002,65.8249975 205.039999,65.3300024 205.28,64.85 C205.520001,64.3699976 205.819998,63.9500018 206.18,63.59 C206.600002,63.1099976 206.944999,62.6000027 207.215,62.06 C207.485001,61.5199973 207.769998,61.0100024 208.07,60.53 L209.78,57.47 C209.84,57.47 209.87,57.4400003 209.87,57.38 C209.87,57.3199997 209.929999,57.2600003 210.05,57.2 L210.41,56.48 L210.5,56.12 L210.41,56.12 C210.47,56.0599997 210.5,55.9400009 210.5,55.76 C210.740001,55.76 210.86,55.7300003 210.86,55.67 C210.86,55.5499994 210.905,55.4150007 210.995,55.265 C211.085,55.1149993 211.070001,54.9200012 210.95,54.68 C211.070001,54.5599994 211.204999,54.4700003 211.355,54.41 C211.505001,54.3499997 211.58,54.2300009 211.58,54.05 C211.940002,53.6899982 212.15,53.3600015 212.21,53.06 C212.27,52.9399994 212.33,52.8650002 212.39,52.835 C212.45,52.8049999 212.420001,52.7300006 212.3,52.61 L212.48,52.52 C212.48,52.3399991 212.51,52.2200003 212.57,52.16 L212.48,52.16 L212.66,51.98 C212.780001,51.8599994 212.855,51.7100009 212.885,51.53 C212.915,51.3499991 212.96,51.1700009 213.02,50.99 L213.02,51.17 L213.65,50 C213.71,49.9399997 213.74,49.8500006 213.74,49.73 L213.47,49.82 C213.47,49.7599997 213.5,49.6850005 213.56,49.595 C213.62,49.5049996 213.68,49.4000006 213.74,49.28 C213.860001,49.0399988 213.95,48.8000012 214.01,48.56 C214.07,48.3199988 214.159999,48.0500015 214.28,47.75 L215.45,45.68 C215.45,45.4999991 215.509999,45.2900012 215.63,45.05 L217.16,41.27 L217.7,40.55 L218.15,39.47 L218.96,37.85 L219.59,36.5 L220.04,35.6 L220.22,35.33 L220.13,35.15 L220.22,35.15 L220.13,35.06 C220.009999,34.6399979 220.159998,34.43 220.58,34.43 C220.64,34.3099994 220.715,34.2050005 220.805,34.115 L221.12,33.8 L221.12,33.53 C221.12,33.4699997 221.15,33.4100003 221.21,33.35 L221.12,33.35 L221.12,33.08 C221.360001,32.7799985 221.465,32.5250011 221.435,32.315 C221.405,32.104999 221.509999,31.9100009 221.75,31.73 C221.930001,30.9499961 222.289997,30.2900027 222.83,29.75 C223.010001,29.0899967 223.309998,28.7300003 223.73,28.67 L223.91,27.95 C224.030001,27.8299994 224.105,27.6650011 224.135,27.455 C224.165,27.244999 224.269999,27.0800006 224.45,26.96 C224.39,26.8399994 224.539998,26.7500003 224.9,26.69 C225.253335,26.6311108 225.433272,26.5722225 225.439815,26.5133334 L225.440069,26.5200001 Z M230.389912,37.7737002 C230.387668,37.9461029 230.342697,38.061535 230.255,38.12 C230.165,38.1800003 230.12,38.2699994 230.12,38.39 L229.58,39.56 C229.52,39.7400009 229.46,39.8899994 229.4,40.01 C229.34,40.1300006 229.31,40.2499994 229.31,40.37 L229.04,41 L228.05,43.16 C227.929999,43.2800006 227.855,43.3999994 227.825,43.52 C227.795,43.6400006 227.720001,43.7599994 227.6,43.88 L227.51,44.33 C227.51,44.6300015 227.450001,44.8099997 227.33,44.87 C227.209999,45.1100012 227.105,45.3349989 227.015,45.545 C226.925,45.7550011 226.730001,46.0399982 226.43,46.4 C226.309999,46.6400012 226.324999,46.7899997 226.475,46.85 C226.625001,46.9100003 226.640001,47.0899985 226.52,47.39 C226.219998,47.39 226.07,47.4799991 226.07,47.66 C226.07,47.8400009 225.980001,47.9599997 225.8,48.02 C225.679999,48.3800018 225.470002,48.8299973 225.17,49.37 C224.869999,49.9100027 224.570001,50.3599982 224.27,50.72 L223.55,52.07 C223.55,52.2500009 223.58,52.3699997 223.64,52.43 C223.519999,52.5500006 223.445,52.6699994 223.415,52.79 C223.385,52.9100006 223.280001,53.0299994 223.1,53.15 L223.01,53.51 C223.01,53.5700003 223.04,53.6 223.1,53.6 L223.37,53.6 C223.43,53.4799994 223.49,53.4349998 223.55,53.465 C223.61,53.4950001 223.64,53.4800003 223.64,53.42 C223.7,53.2999994 223.789999,53.1350011 223.91,52.925 C224.030001,52.7149989 224.09,52.5500006 224.09,52.43 C224.09,52.2499991 224.179999,52.0100015 224.36,51.71 C224.480001,51.5899994 224.54,51.4850005 224.54,51.395 C224.54,51.3049995 224.599999,51.2000006 224.72,51.08 C224.66,50.9599994 224.749999,50.7350017 224.99,50.405 C225.230001,50.0749983 225.32,49.8500006 225.26,49.73 C225.26,49.5499991 225.349999,49.5499991 225.53,49.73 C225.650001,49.73 225.725,49.7000003 225.755,49.64 C225.785,49.5799997 225.83,49.5200003 225.89,49.46 C225.83,49.3399994 225.889999,49.1900009 226.07,49.01 L226.52,48.56 C226.640001,48.4399994 226.745,48.3200006 226.835,48.2 C226.925,48.0799994 226.97,47.9600006 226.97,47.84 C227.270001,47.2999973 227.45,46.8350019 227.51,46.445 C227.57,46.054998 227.749999,45.6200024 228.05,45.14 C228.11,45.2000003 228.14,45.2000003 228.14,45.14 C228.14,45.0799997 228.17,45.05 228.23,45.05 C228.29,44.7499985 228.439999,44.4200018 228.68,44.06 C228.920001,43.6999982 228.980001,43.4000012 228.86,43.16 C228.8,43.0999997 228.829999,42.9050017 228.95,42.575 C229.070001,42.2449984 229.219999,41.8700021 229.4,41.45 C229.580001,41.0299979 229.774999,40.5950022 229.985,40.145 C230.195001,39.6949977 230.389999,39.2600021 230.57,38.84 C230.628978,38.84 230.658969,38.7240541 230.659974,38.4921589 C230.648719,38.5494846 230.619617,38.57 230.57,38.57 C230.51,38.57 230.48,38.5400003 230.48,38.48 C230.48,38.4199997 230.539999,38.3600003 230.66,38.3 C230.66,38.1799994 230.675,38.1050002 230.705,38.075 C230.735,38.0449998 230.72,37.9700006 230.66,37.85 L230.57,37.85 C230.45307,37.85 230.39311,37.821516 230.390118,37.7645471 L230.389912,37.7737002 Z M222.65,54.86 C222.59,54.9800006 222.515,55.0549999 222.425,55.085 C222.335,55.1150002 222.26,55.1599997 222.2,55.22 L221.75,56.12 C222.170002,55.8199985 222.38,55.5500012 222.38,55.31 L222.65,55.04 L222.65,54.86 Z M221.3,57.38 C221.36,57.4400003 221.39,57.2900018 221.39,56.93 L221.21,57.38 C221.089999,57.4400003 220.985,57.5749989 220.895,57.785 C220.805,57.995001 220.73,58.1599994 220.67,58.28 C220.850001,58.2199997 220.999999,58.0850011 221.12,57.875 C221.240001,57.664999 221.3,57.5000006 221.3,57.38 Z M214.46,48.29 L214.46,48.38 L214.28,48.56 L214.55,47.57 L214.64,47.57 L214.64,48.02 L214.55,48.11 C214.55,48.1700003 214.52,48.2299997 214.46,48.29 Z M214.46,48.29 L214.46,48.38 L214.28,48.56 L214.55,47.57 L214.64,47.57 L214.64,48.02 L214.55,48.11 C214.55,48.1700003 214.52,48.2299997 214.46,48.29 Z M213.74,49.37 L213.74,49.73 C213.8,49.6699997 213.83,49.6100003 213.83,49.55 C213.83,49.4899997 213.845,49.46 213.875,49.46 C213.905,49.46 213.92,49.4300003 213.92,49.37 L213.92,49.28 L214.01,49.19 L214.01,49.1 L214.1,48.92 L213.74,49.37 Z M213.74,49.37 L213.74,49.73 C213.8,49.6699997 213.83,49.6100003 213.83,49.55 C213.83,49.4899997 213.845,49.46 213.875,49.46 C213.905,49.46 213.92,49.4300003 213.92,49.37 L213.92,49.28 L214.01,49.19 L214.01,49.1 L214.1,48.92 L213.74,49.37 Z M214.28,48.56 C214.22,48.56 214.19,48.5899997 214.19,48.65 C214.13,48.65 214.1,48.6799997 214.1,48.74 L214.1,48.83 L214.19,48.83 L214.28,48.74 L214.28,48.56 Z M214.28,48.56 C214.22,48.56 214.19,48.5899997 214.19,48.65 C214.13,48.65 214.1,48.6799997 214.1,48.74 L214.1,48.83 L214.19,48.83 L214.28,48.74 L214.28,48.56 Z M233.99,30.47 C233.93,30.6500009 233.945,30.6800006 234.035,30.56 C234.125,30.4399994 234.229999,30.2600012 234.35,30.02 L233.99,30.47 Z M214.82,47.39 C214.82,47.3299997 214.85,47.3 214.91,47.3 L214.82,47.3 L214.73,47.39 L214.64,47.3 L214.64,47.48 L214.73,47.39 L214.82,47.39 Z M288.08,29.39 C287.899999,29.5700009 287.765,29.7949986 287.675,30.065 C287.585,30.3350013 287.480001,30.6199985 287.36,30.92 C287.3,30.9800003 287.359999,30.9800003 287.54,30.92 C287.179998,32.120006 286.640004,33.1999952 285.92,34.16 C285.86,34.2800006 285.845,34.3549999 285.875,34.385 C285.905,34.4150001 285.92,34.4899994 285.92,34.61 C284.719994,36.9500117 283.535006,39.5749854 282.365,42.485 C281.194994,45.3950145 279.995006,48.4249842 278.765,51.575 C277.534994,54.7250157 276.275006,57.8899841 274.985,61.07 C273.694994,64.2500159 272.360007,67.2499859 270.98,70.07 C270.439997,70.7900036 269.915003,71.5999955 269.405,72.5 C268.894997,73.4000045 268.355003,74.2699958 267.785,75.11 C267.214997,75.9500042 266.585003,76.7149965 265.895,77.405 C265.204997,78.0950035 264.410004,78.5599988 263.51,78.8 C263.029998,78.9200006 262.445003,78.9650002 261.755,78.935 C261.064997,78.9049998 260.360004,78.8300006 259.64,78.71 C258.319993,78.5899994 257.150005,78.1700036 256.13,77.45 C255.109995,76.7299964 254.180004,75.9800039 253.34,75.2 C251.659992,73.6999925 250.610002,71.9300102 250.19,69.89 C250.069999,69.4699979 249.950001,69.0350023 249.83,68.585 C249.709999,68.1349977 249.590001,67.610003 249.47,67.01 C249.349999,66.2899964 249.230001,65.5550037 249.11,64.805 C248.989999,64.0549963 248.989999,63.3200036 249.11,62.6 C248.989999,62.1199976 248.945,61.6100027 248.975,61.07 C249.005,60.5299973 248.870001,60.1400012 248.57,59.9 C248.51,59.7799994 248.51,59.7050002 248.57,59.675 C248.63,59.6449999 248.69,59.6000003 248.75,59.54 C248.449998,57.3799892 248.3,55.2500105 248.3,53.15 C248.3,51.0499895 248.27,48.9500105 248.21,46.85 C248.089999,46.85 248.045,46.9399991 248.075,47.12 C248.105,47.3000009 248.000001,47.3600003 247.76,47.3 C247.82,47.5400012 247.775001,47.8549981 247.625,48.245 C247.474999,48.635002 247.325001,49.0399979 247.175,49.46 C247.024999,49.8800021 246.890001,50.284998 246.77,50.675 C246.649999,51.0650019 246.62,51.3499991 246.68,51.53 C246.319998,51.7100009 246.095,52.0699973 246.005,52.61 C245.915,53.1500027 245.780001,53.6599976 245.6,54.14 C245.54,54.14 245.495,54.1250002 245.465,54.095 C245.435,54.0649998 245.39,54.05 245.33,54.05 L245.15,54.41 C245.09,54.5300006 245.119999,54.6799991 245.24,54.86 C245.119999,54.86 245.06,54.8450002 245.06,54.815 C245.06,54.7849998 245.03,54.77 244.97,54.77 C244.669998,55.3100027 244.460001,55.9549962 244.34,56.705 C244.219999,57.4550038 244.040001,58.0699976 243.8,58.55 C243.679999,58.8500015 243.575,59.0749993 243.485,59.225 C243.395,59.3750008 243.439999,59.6599979 243.62,60.08 C243.499999,60.08 243.455,60.0500003 243.485,59.99 C243.515,59.9299997 243.470001,59.9 243.35,59.9 C243.229999,60.2000015 243.125,60.4849987 243.035,60.755 C242.945,61.0250013 242.959999,61.3999976 243.08,61.88 C242.779998,62.0000006 242.570001,62.254998 242.45,62.645 C242.329999,63.035002 242.359999,63.3199991 242.54,63.5 C242.419999,63.5 242.255001,63.5299997 242.045,63.59 C241.834999,63.6500003 241.73,63.7399994 241.73,63.86 C241.850001,64.1600015 241.835001,64.4299988 241.685,64.67 C241.534999,64.9100012 241.609998,65.0899994 241.91,65.21 C241.85,65.5700018 241.79,65.8249993 241.73,65.975 C241.67,66.1250007 241.67,66.3199988 241.73,66.56 C241.73,66.6800006 241.655001,66.7250001 241.505,66.695 C241.354999,66.6649999 241.28,66.7099994 241.28,66.83 C241.28,67.4900033 241.100002,68.0299979 240.74,68.45 C240.379998,68.8700021 240.259999,69.4099967 240.38,70.07 C240.079998,70.1900006 239.915,70.354999 239.885,70.565 C239.855,70.7750011 239.780001,71.0299985 239.66,71.33 C239.66,71.4500006 239.675,71.4800003 239.705,71.42 C239.735,71.3599997 239.690001,71.3599997 239.57,71.42 C239.449999,71.5400006 239.435,71.6 239.525,71.6 C239.615,71.6 239.600001,71.6599994 239.48,71.78 C239.239999,71.8400003 239.254999,72.0049987 239.525,72.275 C239.795001,72.5450014 239.810001,72.7399994 239.57,72.86 C239.389999,73.3400024 239.255,73.7299985 239.165,74.03 C239.075,74.3300015 238.880001,74.6299985 238.58,74.93 C238.459999,75.1100009 238.385,75.2449996 238.355,75.335 C238.325,75.4250004 238.31,75.5599991 238.31,75.74 C238.009998,76.340003 237.740001,76.9849966 237.5,77.675 C237.259999,78.3650035 236.960002,78.9349978 236.6,79.385 C236.239998,79.8350023 235.715003,80.1049996 235.025,80.195 C234.334997,80.2850004 233.390006,80.0000033 232.19,79.34 L230.66,78.44 C230.479999,78.3199994 230.330001,78.0950017 230.21,77.765 C230.089999,77.4349984 229.880001,77.1500012 229.58,76.91 C229.399999,76.6099985 229.160001,76.3100015 228.86,76.01 C228.559998,75.7099985 228.41,75.3500021 228.41,74.93 C228.41,74.7499991 228.44,74.5250013 228.5,74.255 C228.56,73.9849986 228.56,73.7000015 228.5,73.4 C228.620001,72.4999955 228.814999,71.450006 229.085,70.25 C229.355001,69.049994 229.639998,68.0300042 229.94,67.19 C230.120001,66.3499958 230.344999,65.5250041 230.615,64.715 C230.885001,63.9049959 231.169998,63.0200048 231.47,62.06 C232.190004,59.8999892 232.939996,57.7700105 233.72,55.67 C234.500004,53.5699895 235.249996,51.620009 235.97,49.82 C236.150001,49.3999979 236.344999,48.9650022 236.555,48.515 C236.765001,48.0649978 236.9,47.6600018 236.96,47.3 C237.140001,46.9399982 237.304999,46.5500021 237.455,46.13 C237.605001,45.7099979 237.739999,45.3500015 237.86,45.05 C238.160001,44.8099988 238.295,44.5850011 238.265,44.375 C238.235,44.1649989 238.22,43.9100015 238.22,43.61 C238.400001,43.4899994 238.579999,43.3850005 238.76,43.295 C238.940001,43.2049995 238.970001,43.0700009 238.85,42.89 C239.150001,42.8299997 239.3,42.6350017 239.3,42.305 C239.3,41.9749984 239.419999,41.7500006 239.66,41.63 C239.66,41.5099994 239.63,41.4350002 239.57,41.405 C239.51,41.3749998 239.48,41.3000006 239.48,41.18 C239.600001,41.18 239.749999,41.1200006 239.93,41 C239.93,40.6999985 240.034999,40.4600009 240.245,40.28 C240.455001,40.0999991 240.500001,39.8000021 240.38,39.38 L240.56,39.65 C240.680001,39.4099988 240.74,39.2000009 240.74,39.02 L241.1,38.57 C241.04,38.4499994 241.04,38.3600003 241.1,38.3 C241.16,38.2399997 241.19,38.1500006 241.19,38.03 C241.490002,37.7299985 241.699999,37.4300015 241.82,37.13 C241.940001,36.8299985 242.059999,36.5000018 242.18,36.14 C242.360001,36.0199994 242.509999,35.7800018 242.63,35.42 C242.750001,35.0599982 242.855,34.6550022 242.945,34.205 C243.035,33.7549978 243.139999,33.3200021 243.26,32.9 C243.380001,32.4799979 243.529999,32.1500012 243.71,31.91 C243.77,31.6099985 243.874999,31.3700009 244.025,31.19 C244.175001,31.0099991 244.28,30.7100021 244.34,30.29 C244.580001,29.0299937 245.014997,28.4299997 245.645,28.49 C246.275003,28.5500003 246.829998,28.7299985 247.31,29.03 C247.610001,29.1500006 247.909998,29.21 248.21,29.21 C248.510001,29.21 248.809998,29.2699994 249.11,29.39 C249.17,29.5100006 249.23,29.5849999 249.29,29.615 C249.35,29.6450002 249.439999,29.7199994 249.56,29.84 C249.680001,29.7799997 249.785,29.7649999 249.875,29.795 C249.965,29.8250002 250.069999,29.7800006 250.19,29.66 C250.910004,29.9000012 251.569997,30.0499997 252.17,30.11 C252.770003,30.1700003 253.399997,30.3799982 254.06,30.74 C254.660003,30.4399985 255.169998,30.3799991 255.59,30.56 C256.010002,30.7400009 256.549997,30.9199991 257.21,31.1 C257.570002,31.3400012 257.854999,31.6999976 258.065,32.18 C258.275001,32.6600024 258.529999,33.1099979 258.83,33.53 C258.83,33.6500006 258.815,33.71 258.785,33.71 C258.755,33.71 258.74,33.7399997 258.74,33.8 C259.220002,34.2800024 259.43,34.7749975 259.37,35.285 C259.31,35.7950026 259.399999,36.2899976 259.64,36.77 C259.519999,37.2500024 259.445,37.789997 259.415,38.39 C259.385,38.990003 259.310001,39.5299976 259.19,40.01 C259.310001,40.1300006 259.429999,40.1750002 259.55,40.145 C259.670001,40.1149999 259.640001,40.2199988 259.46,40.46 C259.4,40.5200003 259.34,40.5200003 259.28,40.46 C259.039999,40.7600015 258.92,41.1049981 258.92,41.495 C258.92,41.885002 258.979999,42.3199976 259.1,42.8 C258.979999,42.9200006 258.935,43.174998 258.965,43.565 C258.995,43.9550019 259.099999,44.1200003 259.28,44.06 C259.099999,44.4200018 259.055,44.7199988 259.145,44.96 C259.235,45.2000012 259.28,45.4399988 259.28,45.68 C259.400001,45.8000006 259.370001,45.86 259.19,45.86 C259.009999,45.86 258.95,45.9199994 259.01,46.04 C259.250001,46.3400015 259.310001,46.7299976 259.19,47.21 C259.069999,47.6900024 259.099999,48.0799985 259.28,48.38 C259.159999,48.6200012 259.1,48.8749987 259.1,49.145 C259.1,49.4150014 259.07,49.6999985 259.01,50 C259.01,51.0200051 258.995,52.1899934 258.965,53.51 C258.935,54.8300066 258.905,56.1799931 258.875,57.56 C258.845,58.9400069 258.86,60.2899934 258.92,61.61 C258.98,62.9300066 259.099999,64.0699952 259.28,65.03 C259.580001,64.9699997 259.849999,64.9250002 260.09,64.895 C260.330001,64.8649999 260.509999,64.7600009 260.63,64.58 C261.110002,63.5599949 261.619997,62.5400051 262.16,61.52 C262.700003,60.4999949 263.209998,59.390006 263.69,58.19 C264.110002,57.2299952 264.529998,56.3300042 264.95,55.49 C265.370002,54.6499958 265.789998,53.7500048 266.21,52.79 C266.15,52.6699994 266.165,52.61 266.255,52.61 C266.345,52.61 266.39,52.5800003 266.39,52.52 C267.230004,50.6599907 268.099995,48.8600087 269,47.12 C269.900005,45.3799913 270.769996,43.6400087 271.61,41.9 L273.41,38.21 C273.830002,37.3699958 274.144999,36.6950025 274.355,36.185 C274.565001,35.6749975 274.759999,35.1950023 274.94,34.745 L275.48,33.395 C275.660001,32.9449977 275.959998,32.3600036 276.38,31.64 L276.29,31.55 C276.530001,31.0699976 276.784999,30.5750026 277.055,30.065 C277.325001,29.5549975 277.639998,28.9700033 278,28.31 C278.240001,27.9499982 278.36,27.7100006 278.36,27.59 C278.600001,27.2899985 278.735,26.9600018 278.765,26.6 C278.795,26.2399982 278.959998,25.9100015 279.26,25.61 L279.26,25.43 C279.500001,25.3099994 279.62,25.1900006 279.62,25.07 C279.62,24.9499994 279.769998,24.8600003 280.07,24.8 L281.15,23.63 C281.450001,23.4499991 281.6,23.2400012 281.6,23 C281.900001,22.8799994 282.05,22.7300009 282.05,22.55 C282.290001,22.3699991 282.395,22.1900009 282.365,22.01 C282.335,21.8299991 282.649997,21.7999994 283.31,21.92 L283.49,21.92 C284.090003,22.3400021 284.180002,22.55 283.76,22.55 C283.76,22.6700006 283.805,22.8349989 283.895,23.045 C283.985,23.2550011 283.970001,23.4499991 283.85,23.63 C283.85,23.9900018 283.939999,24.2149996 284.12,24.305 C284.300001,24.3950004 284.479999,24.4250002 284.66,24.395 C284.840001,24.3649999 285.004999,24.3050004 285.155,24.215 C285.305001,24.1249996 285.38,24.1099997 285.38,24.17 C285.500001,23.9299988 285.649999,23.7200009 285.83,23.54 L286.64,23.27 C287.120002,23.1499994 287.345,23.1349996 287.315,23.225 C287.285,23.3150004 287.419999,23.1800018 287.72,22.82 C287.72,22.9400006 287.75,22.9400006 287.81,22.82 C287.87,22.82 287.945,22.8050001 288.035,22.775 C288.125,22.7449998 288.2,22.7599997 288.26,22.82 C288.26,22.9400006 288.29,22.9700003 288.35,22.91 L288.26,23 C288.32,23.2400012 288.409999,23.3749998 288.53,23.405 C288.650001,23.4350002 288.590001,23.5399991 288.35,23.72 C288.229999,24.0200015 288.215,24.1849998 288.305,24.215 C288.395,24.2450002 288.350001,24.3799988 288.17,24.62 L287.72,25.43 C287.72,25.5500006 287.705,25.7299988 287.675,25.97 C287.645,26.2100012 287.645,26.4049993 287.675,26.555 C287.705,26.7050008 287.794999,26.7650002 287.945,26.735 C288.095001,26.7049998 288.319998,26.5100018 288.62,26.15 L289.34,25.7 C289.4,25.6399997 289.385,25.61 289.295,25.61 C289.205,25.61 289.16,25.5500006 289.16,25.43 C289.280001,25.4900003 289.399999,25.4750005 289.52,25.385 C289.640001,25.2949995 289.67,25.2200003 289.61,25.16 C289.67,25.0399994 289.715,24.9949998 289.745,25.025 C289.775,25.0550001 289.79,25.0400003 289.79,24.98 L290.15,24.98 C290.21,25.0400003 290.180001,25.1299994 290.06,25.25 L289.79,25.52 C289.669999,25.5800003 289.625,25.7149989 289.655,25.925 C289.685,26.1350011 289.73,26.2999994 289.79,26.42 L289.34,26.96 C289.039999,27.2600015 288.92,27.4999991 288.98,27.68 C289.04,27.8600009 288.950001,28.0399991 288.71,28.22 L288.17,28.94 L287.99,28.94 C287.99,29.1200009 288.02,29.2699994 288.08,29.39 Z M273.936667,60.6333335 C273.905555,60.6177778 273.82,60.4933338 273.68,60.26 C273.800001,60.1999997 273.86,60.1250005 273.86,60.035 C273.86,59.9449996 273.919999,59.9299997 274.04,59.99 L274.94,58.73 C274.94,58.6099994 274.97,58.4750007 275.03,58.325 C275.09,58.1749992 275.09,57.9800012 275.03,57.74 C275.450002,57.6199994 275.570001,57.4700009 275.39,57.29 C275.45,57.29 275.45,57.2600003 275.39,57.2 C275.33,57.2 275.3,57.1700003 275.3,57.11 C275.600001,56.6299976 275.735,56.2400015 275.705,55.94 C275.675,55.6399985 275.779999,55.3400015 276.02,55.04 C276.140001,54.9199994 276.245,54.7700009 276.335,54.59 C276.425,54.4099991 276.589999,54.2600006 276.83,54.14 L276.74,53.87 C276.559999,53.5699985 276.709998,53.3600006 277.19,53.24 L276.83,53.24 C276.649999,53.3000003 276.470001,53.3899994 276.29,53.51 C276.109999,53.6300006 276.05,53.8099988 276.11,54.05 L275.93,54.32 C275.87,54.32 275.780001,54.4699985 275.66,54.77 L275.66,55.13 C275.72,55.1900003 275.735,55.2349999 275.705,55.265 C275.675,55.2950001 275.63,55.2800003 275.57,55.22 C275.449999,55.3400006 275.449999,55.4149999 275.57,55.445 C275.690001,55.4750001 275.72,55.5199997 275.66,55.58 C275.66,55.7600009 275.600001,55.9699988 275.48,56.21 L275.21,56.75 L274.76,57.38 L273.59,59.63 L273.59,59.72 C273.409999,60.0200015 273.29,60.2749989 273.23,60.485 C273.17,60.6950011 273.020001,60.9499985 272.78,61.25 C272.78,61.6700021 272.630001,62.0899979 272.33,62.51 C271.909998,62.8100015 271.625001,63.1249983 271.475,63.455 C271.324999,63.7850016 271.22,64.0999985 271.16,64.4 C271.039999,64.7600018 270.905001,65.0899985 270.755,65.39 C270.604999,65.6900015 270.380001,66.0199982 270.08,66.38 L270.17,66.56 C270.23,66.6200003 270.305,66.65 270.395,66.65 C270.485,66.65 270.53,66.6200003 270.53,66.56 L270.35,66.56 L270.35,66.47 C270.41,66.47 270.499999,66.4849999 270.62,66.515 C270.740001,66.5450001 270.740001,66.6199994 270.62,66.74 C270.56,66.8600006 270.56,66.92 270.62,66.92 L270.8,66.92 C270.8,66.8599997 270.845,66.8000003 270.935,66.74 C271.025,66.6799997 271.07,66.5900006 271.07,66.47 L271.34,65.66 L271.43,64.94 C271.730001,64.8799997 271.88,64.7900006 271.88,64.67 C272.000001,64.5499994 272.09,64.4300006 272.15,64.31 C272.21,64.1899994 272.299999,63.9800015 272.42,63.68 C272.48,63.68 272.54,63.5900009 272.6,63.41 L273.41,61.88 C273.530001,61.7599994 273.56,61.6250007 273.5,61.475 C273.44,61.3249992 273.44,61.1900006 273.5,61.07 L273.936666,60.6333335 Z M268.82,70.07 C268.940001,70.0099997 268.955,69.9650002 268.865,69.935 C268.775,69.9049998 268.73,69.8300006 268.73,69.71 L268.19,70.34 C268.13,70.4000003 268.13,70.4599997 268.19,70.52 L268.19,70.61 C268.19,70.8500012 268.100001,70.97 267.92,70.97 C267.799999,71.0900006 267.695,71.2399991 267.605,71.42 L267.38,71.87 C267.259999,71.87 267.17,71.9299994 267.11,72.05 C267.17,72.1700006 267.17,72.23 267.11,72.23 C266.989999,72.4700012 266.855001,72.6649992 266.705,72.815 C266.554999,72.9650008 266.420001,73.1599988 266.3,73.4 C266.119999,73.2199991 266.089999,73.2499988 266.21,73.49 C266.330001,73.5500003 266.345,73.58 266.255,73.58 C266.165,73.58 266.12,73.6099997 266.12,73.67 C265.879999,73.9100012 265.700001,74.2399979 265.58,74.66 L265.76,74.57 C266.120002,74.57 266.359999,74.270003 266.48,73.67 C266.780001,73.5499994 266.9,73.4300006 266.84,73.31 L267.02,73.22 L267.83,72.32 C267.83,72.1399991 267.86,71.9900006 267.92,71.87 L267.92,71.42 C268.040001,71.3599997 268.115,71.3000003 268.145,71.24 C268.175,71.1799997 268.249999,71.0900006 268.37,70.97 C268.43,70.8499994 268.519999,70.7450004 268.64,70.655 C268.760001,70.5649996 268.82,70.3700015 268.82,70.07 Z M259.55,40.28 L259.37,40.46 L259.55,40.28 Z" id="FUN" fill="#FFFFFF"></path>
            <text id="MONEY" font-family="Phosphate-Inline, Phosphate" font-size="80" font-weight="normal" fill="#FFFFFF">
                <tspan x="87.24" y="158">MONEY</tspan>
            </text>
            <g id="Group-3" transform="translate(98.000000, 31.000000)" fill-rule="nonzero">
                <g id="Group-2" transform="translate(202.000000, 0.000000)">
                    <polygon id="Rectangle" fill="#2AAD60" transform="translate(16.624421, 11.988309) rotate(-8.000000) translate(-16.624421, -11.988309) " points="0.674421403 8.68830898 32.5744214 8.68830898 32.5744214 15.288309 0.674421403 15.288309"></polygon>
                    <polygon id="Rectangle-Copy" fill="#BFFF00" transform="translate(16.302141, 33.065990) rotate(-8.000000) translate(-16.302141, -33.065990) " points="0.35214054 29.76599 32.2521405 29.76599 32.2521405 36.36599 0.35214054 36.36599"></polygon>
                    <polygon id="Rectangle-Copy-2" fill="#00FF69" transform="translate(16.748947, 22.528602) rotate(-329.000000) translate(-16.748947, -22.528602) " points="0.798946765 19.2286022 32.6989468 19.2286022 32.6989468 25.8286022 0.798946765 25.8286022"></polygon>
                    <polygon id="Rectangle-Copy-2" fill="#1AD467" transform="translate(17.500000, 21.500000) rotate(-270.000000) translate(-17.500000, -21.500000) " points="-4 18 39 18 39 25 -4 25"></polygon>
                </g>
                <g id="Group-2">
                    <polygon id="Rectangle" fill="#2AAD60" transform="translate(16.624421, 11.988309) rotate(-8.000000) translate(-16.624421, -11.988309) " points="0.674421403 8.68830898 32.5744214 8.68830898 32.5744214 15.288309 0.674421403 15.288309"></polygon>
                    <polygon id="Rectangle-Copy" fill="#BFFF00" transform="translate(16.302141, 33.065990) rotate(-8.000000) translate(-16.302141, -33.065990) " points="0.35214054 29.76599 32.2521405 29.76599 32.2521405 36.36599 0.35214054 36.36599"></polygon>
                    <polygon id="Rectangle-Copy-2" fill="#00FF69" transform="translate(16.748947, 22.528602) rotate(-329.000000) translate(-16.748947, -22.528602) " points="0.798946765 19.2286022 32.6989468 19.2286022 32.6989468 25.8286022 0.798946765 25.8286022"></polygon>
                    <polygon id="Rectangle-Copy-2" fill="#1AD467" transform="translate(17.500000, 21.500000) rotate(-270.000000) translate(-17.500000, -21.500000) " points="-4 18 39 18 39 25 -4 25"></polygon>
                </g>
            </g>
        </g>
    </g>
</svg>