<?xml version="1.0" encoding="UTF-8"?>
<svg width="32px" height="32px" viewBox="0 0 32 32" version="1.1" xmlns="http://www.w3.org/2000/svg" xmlns:xlink="http://www.w3.org/1999/xlink">
    <!-- Generator: Sketch 52.5 (67469) - http://www.bohemiancoding.com/sketch -->
    <title>flasks</title>
    <desc>Created with Sketch.</desc>
    <defs>
        <linearGradient x1="1.20687319%" y1="48.7931268%" x2="98.7931268%" y2="48.7931268%" id="linearGradient-1">
            <stop stop-color="#FF1786" offset="0%"></stop>
            <stop stop-color="#FFB64C" offset="100%"></stop>
        </linearGradient>
    </defs>
    <g id="Page-1" stroke="none" stroke-width="1" fill="none" fill-rule="evenodd">
        <g id="flasks">
            <path d="M23.8894043,1.00976562 C23.2382813,0.358642563 22.3725586,0 21.451416,0 C20.5305176,0 19.6647949,0.358642562 19.0134278,1.00976562 C18.3623047,1.66088869 18.0036621,2.5268555 18.0036621,3.44775388 C18.0036621,4.04736325 18.1555176,4.62353513 18.4411621,5.13232425 L15.5791016,7.99462888 C14.4948731,7.68701175 13.3725586,7.53125 12.234375,7.53125 C5.48828125,7.53125 2.84217094e-14,13.0195312 2.84217094e-14,19.765625 C2.84217094e-14,26.5117188 5.48828125,32 12.234375,32 C18.9804688,32 24.46875,26.5117188 24.46875,19.765625 C24.46875,18.6274414 24.3132324,17.5048828 24.0056153,16.4208984 L26.8676758,13.5585938 C27.3764649,13.8444824 27.9523926,13.9963379 28.5520019,13.9963379 C29.4729004,13.9963379 30.3388672,13.6376953 30.9902344,12.9863281 C32.3344726,11.6420899 32.3342285,9.45458987 30.9899903,8.11010744 L23.8894043,1.00976562 Z M12.234375,30.125 C6.83813475,30.125 2.39331056,25.9775391 1.91796875,20.703125 L22.5507813,20.703125 C22.0754394,25.9775391 17.6306153,30.125 12.234375,30.125 Z M29.6643066,11.6606445 C29.3671875,11.9577637 28.972168,12.1213379 28.5520019,12.1213379 C28.1318359,12.1213379 27.7368164,11.9577637 27.4399414,11.6606445 C27.2641601,11.4848633 27.0256348,11.3859863 26.7768555,11.3859863 C26.5283203,11.3859863 26.2897949,11.4848633 26.1140137,11.6606445 L22.2797851,15.4951172 C22.0280762,15.7468262 21.9406738,16.1196289 22.0541993,16.4570312 C22.3129883,17.2250976 22.4790039,18.0192871 22.5515137,18.828125 L1.91796875,18.828125 C2.39331056,13.5537109 6.83813475,9.40625 12.234375,9.40625 C13.3666993,9.40625 14.4797363,9.58789062 15.5429688,9.94580075 C15.8803711,10.0593262 16.2531738,9.972168 16.5051269,9.72021487 L20.3393555,5.88598631 C20.5151368,5.70996094 20.6140137,5.47167969 20.6140137,5.22290038 C20.6140137,4.97436525 20.5151368,4.73583987 20.3393555,4.56005862 C20.0422363,4.26293944 19.8786621,3.86816406 19.8786621,3.44775388 C19.8786621,3.02758788 20.0422363,2.6328125 20.3393555,2.33569337 C20.6364746,2.03857425 21.0314941,1.875 21.4516601,1.875 C21.8718262,1.875 22.2668457,2.03857425 22.5637207,2.33569337 L29.6643066,9.43603513 C30.2775879,10.0493164 30.2775879,11.0473633 29.6643066,11.6606445 Z" id="Shape" fill="url(#linearGradient-1)" fill-rule="nonzero"></path>
            <path d="M16.7531738,14.3093262 C16.5063476,14.3093262 16.2648926,14.4094238 16.0900879,14.5844726 C15.9155274,14.7587891 15.8156738,15 15.8156738,15.2468262 C15.8156738,15.4936524 15.9155274,15.7351074 16.0900879,15.9099121 C16.2648926,16.0844726 16.5063476,16.1843262 16.7531738,16.1843262 C17,16.1843262 17.2412109,16.0844726 17.4162597,15.9099121 C17.5905762,15.7355957 17.6906738,15.4936524 17.6906738,15.2468262 C17.6906738,15 17.5905762,14.7587891 17.4162597,14.5844726 C17.2412109,14.4094238 17,14.3093262 16.7531738,14.3093262 Z" id="Path" fill="#FF6B68"></path>
            <path d="M7.71557619,14.3093262 C7.46875,14.3093262 7.22680663,14.4094238 7.05249025,14.5844726 C6.87817381,14.7587891 6.77807619,15 6.77807619,15.2468262 C6.77807619,15.4936524 6.87817381,15.7355957 7.05249025,15.9099121 C7.22753906,16.0844726 7.46875,16.1843262 7.71557619,16.1843262 C7.96240237,16.1843262 8.20385744,16.0844726 8.37866212,15.9099121 C8.5529785,15.7355957 8.65307619,15.4936524 8.65307619,15.2468262 C8.65307619,15 8.55322263,14.7587891 8.37866212,14.5844726 C8.20434569,14.4094238 7.96240237,14.3093262 7.71557619,14.3093262 Z" id="Path" fill="#FF3D77"></path>
            <path d="M12.234375,11.7988281 C11.9875488,11.7988281 11.7463379,11.8994141 11.5712891,12.0737305 C11.3969726,12.2480469 11.296875,12.4899902 11.296875,12.7368164 C11.296875,12.9831543 11.3969726,13.2250976 11.5712891,13.3994141 C11.7456055,13.5737305 11.9875488,13.6738281 12.234375,13.6738281 C12.4812012,13.6738281 12.7231445,13.5737305 12.8974609,13.3994141 C13.0717774,13.2250976 13.171875,12.9831543 13.171875,12.7368164 C13.171875,12.4899902 13.0717774,12.2480469 12.8974609,12.0737305 C12.7224121,11.8994141 12.4812012,11.7988281 12.234375,11.7988281 Z" id="Path" fill="#FF5470"></path>
            <path d="M31.0625,1.875 C31.3093262,1.875 31.5505371,1.77490237 31.7255859,1.60058594 C31.8999024,1.42553712 32,1.18432619 32,0.9375 C32,0.690673813 31.8999024,0.4487305 31.7255859,0.274414062 C31.5505371,0.100097625 31.3093262,0 31.0625,0 C30.8156738,0 30.5744629,0.100097625 30.3994141,0.274414062 C30.2250976,0.4487305 30.125,0.690673813 30.125,0.9375 C30.125,1.18432619 30.2250976,1.42553712 30.3994141,1.60058594 C30.5744629,1.77490237 30.8156738,1.875 31.0625,1.875 Z" id="Path" fill="#FFB44D"></path>
            <path d="M22.7780762,8.28442381 C22.53125,8.28442381 22.2893066,8.38427737 22.1149902,8.55932619 C21.9406738,8.73364256 21.8405762,8.97509762 21.8405762,9.22192381 C21.8405762,9.46875 21.9406738,9.71069337 22.1149902,9.88500975 C22.2900391,10.0593262 22.53125,10.1594238 22.7780762,10.1594238 C23.0249024,10.1594238 23.2663574,10.0593262 23.4411621,9.88500975 C23.6157226,9.71069337 23.7155762,9.46875 23.7155762,9.22192381 C23.7155762,8.97509762 23.6157226,8.73364256 23.4411621,8.55932619 C23.2668457,8.38427737 23.0249024,8.28442381 22.7780762,8.28442381 Z" id="Path" fill="#FF8B5C"></path>
        </g>
    </g>
</svg>